<svg xmlns="http://www.w3.org/2000/svg" width="28.534" height="25.031" viewBox="0 0 28.534 25.031"><defs><style>.a{fill:#0075ff;stroke:#0075ff;stroke-width:0.5px;}</style></defs><g transform="translate(0.25 0.25)"><path class="a" d="M129.127,137.374a7.009,7.009,0,1,0,7.009,7.009A7.017,7.017,0,0,0,129.127,137.374Zm0,12.265a5.257,5.257,0,1,1,5.257-5.257A5.262,5.262,0,0,1,129.127,149.639Z" transform="translate(-115.109 -131.241)"/><path class="a" d="M28.025,36.65A2.631,2.631,0,0,0,25.4,34.025H21.558l-1.511-3.019a.876.876,0,0,0-.784-.484H8.75a.876.876,0,0,0-.784.484l-1.509,3.02-3.833.005A2.632,2.632,0,0,0,0,36.659V52.426a2.631,2.631,0,0,0,2.628,2.627H25.406a2.632,2.632,0,0,0,2.628-2.629ZM25.406,53.3H2.628a.877.877,0,0,1-.876-.876V36.659a.877.877,0,0,1,.874-.876L7,35.777a.877.877,0,0,0,.783-.484l1.508-3.019h9.43l1.511,3.019a.876.876,0,0,0,.784.484H25.4a.886.886,0,0,1,.886.875V52.425A.878.878,0,0,1,25.406,53.3Z" transform="translate(0 -30.522)"/></g></svg>