<svg xmlns="http://www.w3.org/2000/svg" width="24" height="24" viewBox="0 0 24 24"><defs><style>.a{fill:none;}.b{fill:#fff;}</style></defs><g transform="translate(-130 -554)"><rect class="a" width="24" height="24" transform="translate(130 554)"/><g transform="translate(-33 239)"><rect class="a" width="19.141" height="19.141" transform="translate(165.43 317.43)"/><g transform="translate(165 317)"><path class="b" d="M.915,103.5H8.573a6.252,6.252,0,0,0,5.024,2.612,6.874,6.874,0,0,0,0-13.715,6.272,6.272,0,0,0-5.14,2.774,6.6,6.6,0,0,0-1.445-.162A7.282,7.282,0,0,0,0,102.523a.949.949,0,0,0,.915.98ZM13.6,94.359a4.91,4.91,0,0,1,0,9.8,4.91,4.91,0,0,1,0-9.8Zm0,0" transform="translate(0 -86.115)"/><path class="b" d="M46.155,0A4.355,4.355,0,1,0,50.51,4.355,4.36,4.36,0,0,0,46.155,0Zm0,0" transform="translate(-38.887)"/><path class="b" d="M143.441,144.564h1.041v1.041a1.041,1.041,0,1,0,2.082,0v-1.041h1.041a1.041,1.041,0,1,0,0-2.082h-1.041v-1.041a1.041,1.041,0,1,0-2.082,0v1.041h-1.041a1.041,1.041,0,0,0,0,2.082Zm0,0" transform="translate(-132.114 -130.15)"/></g></g></g></svg>