<svg xmlns="http://www.w3.org/2000/svg" width="24" height="24" viewBox="0 0 24 24">
  <g id="Group_21145" data-name="Group 21145" transform="translate(7013 13981)">
    <g id="Group_21143" data-name="Group 21143" transform="translate(-1895 557)">
      <rect id="Rectangle_13872" data-name="Rectangle 13872" width="22" height="22" transform="translate(-5117 -14537)" fill="none"/>
      <path id="Path_62953" data-name="Path 62953" d="M134.068,134.89c-1.8-.281-1.882.168-2.352.375a5.752,5.752,0,0,0-1.908,2.978c-.479,2.077.27,4.57,2.047,7.054a20.712,20.712,0,0,0,11.183,8.23,5.457,5.457,0,0,0,4.634-.557,4.085,4.085,0,0,0,1.776-2.626l.2-.972a.7.7,0,0,0-.34-.76l-4.294-2.007a.645.645,0,0,0-.819.2l-1.707,2.226a.538.538,0,0,1-.548.141,13.314,13.314,0,0,1-7.159-6.223.528.528,0,0,1,.07-.557l1.637-1.865a.874.874,0,0,0,.139-.69l-1.977-4.5a.683.683,0,0,0-.583-.453" transform="translate(-5245.667 -14669.801)" fill="#6971e8"/>
    </g>
    <rect id="Rectangle_15184" data-name="Rectangle 15184" width="24" height="24" transform="translate(-7013 -13981)" fill="none"/>
  </g>
</svg>
