<svg xmlns="http://www.w3.org/2000/svg" xmlns:xlink="http://www.w3.org/1999/xlink" width="20" height="20" viewBox="0 0 20 20"><defs><style>.a{fill:url(#a);}</style><linearGradient id="a" x1="0.33" y1="0.261" x2="0.991" y2="1.063" gradientUnits="objectBoundingBox"><stop offset="0" stop-color="#6966e9"/><stop offset="1" stop-color="#69b1e3"/></linearGradient></defs><g transform="translate(0 -0.001)"><g transform="translate(0 0.001)"><g transform="translate(0 0)"><circle class="a" cx="1" cy="1" r="1" transform="translate(11.889 11.89)"/><path class="a" d="M9.26,18.438H3.113a1.561,1.561,0,0,1-1.556-1.562V10.47A1.561,1.561,0,0,1,3.113,8.907H14.318a1.561,1.561,0,0,1,1.556,1.562v1.562a.778.778,0,1,0,1.556,0V10.47a3.122,3.122,0,0,0-3.113-3.125h-.935V4.589a4.67,4.67,0,0,0-9.338,0V7.345H3.113A3.122,3.122,0,0,0,0,10.47v6.406A3.122,3.122,0,0,0,3.113,20H9.26a.781.781,0,0,0,0-1.562ZM5.6,4.589a3.114,3.114,0,0,1,6.225,0V7.345H5.6V4.589Z" transform="translate(0 -0.001)"/><path class="a" d="M272.7,322.149a.8.8,0,0,0-1.12.185l-3.957,5.528a.459.459,0,0,1-.66.034l-2.557-2.5a.8.8,0,0,0-1.121,1.149l2.562,2.5.007.007a2.07,2.07,0,0,0,1.424.569c.045,0,.091,0,.136,0a2.07,2.07,0,0,0,1.472-.767l.027-.036,3.973-5.55A.8.8,0,0,0,272.7,322.149Z" transform="translate(-253.034 -309.626)"/><circle class="a" cx="1" cy="1" r="1" transform="translate(8.985 11.89)"/><circle class="a" cx="1" cy="1" r="1" transform="translate(3.178 11.89)"/><circle class="a" cx="1" cy="1" r="1" transform="translate(6.088 11.89)"/></g></g></g></svg>