<svg xmlns="http://www.w3.org/2000/svg" width="24" height="24" viewBox="0 0 24 24">
  <g id="Group_21142" data-name="Group 21142" transform="translate(-38 -290)">
    <rect id="Rectangle_13964" data-name="Rectangle 13964" width="24" height="24" transform="translate(38 290)" fill="none"/>
    <path id="Subtraction_3" data-name="Subtraction 3" d="M0,20V2A2,2,0,0,1,2,0H18a2,2,0,0,1,2,2V14a2,2,0,0,1-2,2H4L0,20ZM15.025,6.455a1.5,1.5,0,1,0,1.5,1.5A1.5,1.5,0,0,0,15.025,6.455Zm-5,0a1.5,1.5,0,1,0,1.5,1.5A1.5,1.5,0,0,0,10.024,6.455Zm-5,0a1.5,1.5,0,1,0,1.5,1.5A1.5,1.5,0,0,0,5.025,6.455Z" transform="translate(40 292)" fill="#6971e8"/>
  </g>
</svg>
