<svg xmlns="http://www.w3.org/2000/svg" width="24" height="24" viewBox="0 0 24 24">
  <g id="Group_21139" data-name="Group 21139" transform="translate(7080 14075)">
    <rect id="Rectangle_15183" data-name="Rectangle 15183" width="24" height="24" transform="translate(-7080 -14075)" fill="none"/>
    <path id="Path_62951" data-name="Path 62951" d="M20.778,3.2H19.667V1H17.444V3.2H8.556V1H6.333V3.2H5.222A2.211,2.211,0,0,0,3,5.4V20.8A2.211,2.211,0,0,0,5.222,23H20.778A2.218,2.218,0,0,0,23,20.8V5.4A2.218,2.218,0,0,0,20.778,3.2ZM13,6.5A3.3,3.3,0,1,1,9.667,9.8,3.312,3.312,0,0,1,13,6.5Zm6.667,13.2H6.333V18.6c0-2.2,4.444-3.41,6.667-3.41s6.667,1.21,6.667,3.41Z" transform="translate(-7081 -14075)" fill="#6970e8"/>
  </g>
</svg>
