<svg xmlns="http://www.w3.org/2000/svg" width="24" height="24" viewBox="0 0 24 24"><defs><style>.a{fill:none;}.b{fill:#fff;}</style></defs><g transform="translate(18206 19841)"><rect class="a" width="24" height="24" transform="translate(-18206 -19841)"/><g transform="translate(-18336 -20164)"><rect class="a" width="22" height="22" transform="translate(131 324)"/><path class="b" d="M20.778,3.2H19.667V1H17.444V3.2H8.556V1H6.333V3.2H5.222A2.211,2.211,0,0,0,3,5.4V20.8A2.211,2.211,0,0,0,5.222,23H20.778A2.218,2.218,0,0,0,23,20.8V5.4A2.218,2.218,0,0,0,20.778,3.2ZM13,6.5A3.3,3.3,0,1,1,9.667,9.8,3.312,3.312,0,0,1,13,6.5Zm6.667,13.2H6.333V18.6c0-2.2,4.444-3.41,6.667-3.41s6.667,1.21,6.667,3.41Z" transform="translate(129 323)"/></g></g></svg>