<svg xmlns="http://www.w3.org/2000/svg" xmlns:xlink="http://www.w3.org/1999/xlink" width="348.094" height="198.622" viewBox="0 0 348.094 198.622"><defs><style>.a{fill:#0f094c;}.b{fill:#0196f2;}.c{fill:#fecd40;}.d{fill:#0298db;}.e{fill:#afbedd;}.f{fill:#fff;}.g{fill:#adb0fa;}.h{fill:#e4e9fd;}.i{fill:#cdd0fd;}.j{fill:#6150e2;}.k{fill:url(#a);}.l{fill:url(#b);}.m{fill:url(#c);}.n{fill:#ffd9b6;}.o{fill:url(#d);}.p{fill:url(#e);}.q{fill:url(#f);}.r{fill:url(#g);}.s{fill:url(#h);}.t{fill:url(#i);}.u{fill:url(#j);}.v{fill:url(#k);}.w{fill:url(#l);}.x{fill:url(#m);}.y{fill:url(#n);}.z{fill:url(#o);}.aa{fill:url(#p);}.ab{fill:url(#q);}.ac{fill:url(#r);}.ad{fill:url(#s);}.ae{fill:url(#t);}.af{fill:url(#u);}.ag{fill:#724ce4;}</style><linearGradient id="a" x1="-185.828" y1="-15.393" x2="-185.828" y2="-14.231" gradientUnits="objectBoundingBox"><stop offset="0" stop-color="#071786"/><stop offset="0.151" stop-color="#05136b"/><stop offset="0.324" stop-color="#041055"/><stop offset="0.511" stop-color="#030e45"/><stop offset="0.72" stop-color="#020c3b"/><stop offset="1" stop-color="#020c38"/></linearGradient><linearGradient id="b" x1="-102.51" y1="-74.017" x2="-102.51" y2="-71.794" xlink:href="#a"/><linearGradient id="c" x1="-117.019" y1="-6.139" x2="-117.019" y2="-7.149" gradientUnits="objectBoundingBox"><stop offset="0" stop-color="#ffd1c1"/><stop offset="0.386" stop-color="#ffcfbf"/><stop offset="0.588" stop-color="#ffc9b7"/><stop offset="0.747" stop-color="#ffbda9"/><stop offset="0.882" stop-color="#ffae97"/><stop offset="1" stop-color="#ff9a7f"/></linearGradient><linearGradient id="d" x1="-122.79" y1="-16.194" x2="-121.783" y2="-16.194" xlink:href="#a"/><linearGradient id="e" x1="-238.237" y1="-3.202" x2="-238.237" y2="-4.41" xlink:href="#a"/><linearGradient id="f" x1="-1296.858" y1="39.527" x2="-1297.956" y2="39.22" gradientUnits="objectBoundingBox"><stop offset="0" stop-color="#e2b691"/><stop offset="1" stop-color="#ef9367"/></linearGradient><linearGradient id="g" x1="-379.638" y1="13.48" x2="-380.728" y2="13.14" xlink:href="#c"/><linearGradient id="h" x1="-184.336" y1="10.635" x2="-185.314" y2="10.145" xlink:href="#c"/><linearGradient id="i" x1="-1.97" y1="9.176" x2="-0.982" y2="9.176" xlink:href="#a"/><linearGradient id="j" x1="-762.398" y1="26.016" x2="-763.457" y2="25.689" xlink:href="#c"/><linearGradient id="k" x1="-1.026" y1="5.197" x2="-2.102" y2="4.463" gradientUnits="objectBoundingBox"><stop offset="0" stop-color="#795fee"/><stop offset="0.078" stop-color="#7a68ef"/><stop offset="0.492" stop-color="#8095f2"/><stop offset="0.813" stop-color="#84b1f3"/><stop offset="1" stop-color="#85bbf4"/></linearGradient><linearGradient id="l" x1="-0.172" y1="0.633" x2="0.9" y2="0.313" xlink:href="#k"/><linearGradient id="m" x1="-7.969" y1="12.172" x2="-8.216" y2="13.213" xlink:href="#c"/><linearGradient id="n" x1="0.294" y1="11.898" x2="1.274" y2="11.898" gradientUnits="objectBoundingBox"><stop offset="0" stop-color="#18154b"/><stop offset="0.128" stop-color="#191650"/><stop offset="0.284" stop-color="#1c1a5f"/><stop offset="0.454" stop-color="#212078"/><stop offset="0.634" stop-color="#27299a"/><stop offset="0.819" stop-color="#2f34c5"/><stop offset="1" stop-color="#3941f7"/></linearGradient><linearGradient id="o" x1="0.375" y1="14.961" x2="1.357" y2="14.961" gradientUnits="objectBoundingBox"><stop offset="0.046" stop-color="#f8f2fa"/><stop offset="0.22" stop-color="#f4f1fa"/><stop offset="0.389" stop-color="#e9ecfa"/><stop offset="0.554" stop-color="#d5e5fb"/><stop offset="0.718" stop-color="#badafc"/><stop offset="0.879" stop-color="#97cdfd"/><stop offset="1" stop-color="#78c1fe"/></linearGradient><linearGradient id="p" x1="-47.898" y1="34.926" x2="-48.411" y2="33.867" xlink:href="#c"/><linearGradient id="q" x1="-518.049" y1="-69.326" x2="-518.437" y2="-68.335" xlink:href="#c"/><linearGradient id="r" x1="1.234" y1="0.972" x2="-0.397" y2="0.161" xlink:href="#k"/><linearGradient id="s" x1="-282.703" y1="-42.389" x2="-282.812" y2="-43.264" xlink:href="#c"/><linearGradient id="t" x1="-614.998" y1="-40.098" x2="-612.343" y2="-40.098" xlink:href="#a"/><linearGradient id="u" x1="-135.527" y1="-88.163" x2="-135.632" y2="-91.731" xlink:href="#a"/></defs><g transform="translate(-409 -332.221)"><path class="a" d="M4016.06,2256.677l-.057-.2-.007-.023-.067-.238c-.15.043-3.706,1.1-6.938,6.56a35.705,35.705,0,0,0-4.1,12,72.646,72.646,0,0,0-.967,12.872q.01,1.8.087,3.685.07,1.723.2,3.514l.488-.087q-.058-.822-.1-1.618c-.135-2.374-.188-4.593-.173-6.664.095-12.259,2.612-19.4,4.965-23.4,3.072-5.222,6.512-6.338,6.674-6.386l.005,0Zm0,0-.068-.2.048.216h0l.024,0Z" transform="translate(-3360.268 -1831.292)"/><path class="b" d="M4089.165,2111.269s-1.541-2.851-4.315-2.39c0,0-2.132,1.908-.252,5.473a5.916,5.916,0,0,0-5.1,2.1,5.472,5.472,0,0,0,4.212,3.862s-1.578,3.545.079,5.388a4.817,4.817,0,0,0,4.462-1.7s1.23,3.585,4.12,3.865a4.979,4.979,0,0,0,2.007-4.674s3.107.682,5.173-1c0,0-.388-3.426-2.371-4.385,0,0,2.831-1.577,2.551-4.543,0,0-2.395-1.634-4.385-.511,0,0-.063-4.311-3.141-5.811a4.346,4.346,0,0,0-3.04,4.335" transform="translate(-3429.643 -1694.255)"/><path class="a" d="M4162.42,2195.855a3.8,3.8,0,1,0,1.538-5.155,3.8,3.8,0,0,0-1.538,5.155" transform="translate(-3505.336 -1770.723)"/><path class="c" d="M4186.89,2217.575a1.775,1.775,0,1,0,.717-2.405,1.774,1.774,0,0,0-.717,2.405" transform="translate(-3528.02 -1793.407)"/><path class="b" d="M3987.66,2331.975s.676-7.711-3.448-5.64c0,0-2.425,1.247-.242,3.547a9.845,9.845,0,0,0,3.653,2.439Z" transform="translate(-3320.926 -1895.323)"/><path class="b" d="M4042.477,2368.826s5.636-5.307,6.563-.786c0,0,.523,2.677-2.635,2.387a9.846,9.846,0,0,1-4.177-1.358Z" transform="translate(-3375.24 -1932.255)"/><path class="b" d="M3955.8,2407.124s.81-9.235-4.129-6.754c0,0-2.9,1.493-.29,4.248a11.785,11.785,0,0,0,4.375,2.921Z" transform="translate(-3290.848 -1963.218)"/><path class="b" d="M4019.775,2445.17s5.953-7.107,7.695-1.862c0,0,1,3.109-2.8,3.21a11.787,11.787,0,0,1-5.16-1.024Z" transform="translate(-3354.39 -2001.249)"/><path class="b" d="M4009.875,2524.423s4.305-8.211,7.123-3.456c0,0,1.639,2.825-2.05,3.732a11.79,11.79,0,0,1-5.26.1Z" transform="translate(-3345.372 -2072.947)"/><path class="b" d="M3934.6,2504.67s-1.418-9.162-5.622-5.574c0,0-2.465,2.144.732,4.194a11.794,11.794,0,0,0,4.946,1.792Z" transform="translate(-3270.454 -2053.467)"/><path class="a" d="M1305.423,2619.689l.006,0c.161.049,3.6,1.164,6.674,6.387,2.353,4,4.87,11.137,4.965,23.4.015,2.072-.038,4.29-.173,6.664q-.045.8-.1,1.618l.488.087q.127-1.79.2-3.514.078-1.884.087-3.686a72.654,72.654,0,0,0-.967-12.872,35.712,35.712,0,0,0-4.1-12c-3.232-5.463-6.788-6.517-6.938-6.56l-.067.238-.007.023-.057.2Zm0,0,.024,0h0l.047-.216-.068.2Z" transform="translate(-863.049 -2164.507)"/><path class="d" d="M1141.659,2474.269s1.541-2.851,4.314-2.39c0,0,2.133,1.908.253,5.473a5.916,5.916,0,0,1,5.1,2.1,5.473,5.473,0,0,1-4.213,3.862s1.579,3.545-.079,5.388a4.818,4.818,0,0,1-4.463-1.7s-1.23,3.585-4.12,3.865a4.981,4.981,0,0,1-2.007-4.674s-3.108.682-5.173-1c0,0,.388-3.427,2.37-4.386,0,0-2.831-1.577-2.551-4.542,0,0,2.394-1.634,4.385-.511,0,0,.063-4.311,3.141-5.811a4.347,4.347,0,0,1,3.041,4.335" transform="translate(-703.017 -2027.468)"/><path class="a" d="M1209.755,2558.855a3.8,3.8,0,1,1-1.538-5.155,3.8,3.8,0,0,1,1.538,5.155" transform="translate(-768.675 -2103.935)"/><path class="c" d="M1230.654,2580.575a1.775,1.775,0,1,1-.717-2.405,1.775,1.775,0,0,1,.717,2.405" transform="translate(-791.359 -2126.619)"/><path class="b" d="M1417.673,2694.975s-.676-7.711,3.448-5.64c0,0,2.426,1.247.242,3.547a9.844,9.844,0,0,1-3.653,2.439Z" transform="translate(-966.046 -2228.535)"/><path class="b" d="M1338.243,2731.825s-5.636-5.307-6.563-.786c0,0-.523,2.676,2.635,2.386a9.845,9.845,0,0,0,4.177-1.357Z" transform="translate(-887.121 -2265.466)"/><path class="b" d="M1439.274,2770.124s-.809-9.235,4.129-6.754c0,0,2.905,1.493.29,4.248a11.794,11.794,0,0,1-4.375,2.921Z" transform="translate(-985.866 -2296.43)"/><path class="b" d="M1347.186,2808.169s-5.953-7.107-7.695-1.862c0,0-1,3.109,2.8,3.211a11.788,11.788,0,0,0,5.16-1.024Z" transform="translate(-894.212 -2334.459)"/><path class="b" d="M1361.593,2887.423s-4.306-8.21-7.123-3.456c0,0-1.639,2.825,2.049,3.732a11.8,11.8,0,0,0,5.26.1Z" transform="translate(-907.737 -2406.159)"/><path class="b" d="M1449.017,2867.67s1.418-9.162,5.622-5.574c0,0,2.464,2.144-.733,4.194a11.79,11.79,0,0,1-4.946,1.792Z" transform="translate(-994.802 -2386.678)"/><path class="e" d="M2007.8,2023.568c-1.423-2.3-2.808-4.609-5.136-5.9-2.3-1.273-5.064-1.285-7.691-1.542-2.135-.209-4.871-.66-6.387-2.323-.622-.682-.947-1.412-1.647-2.056-.663-.61-1.921-1.432-1.94-2.468-.356-1.6.951-3.118,2.348-4.009s3.033-1.518,4.047-2.826a4.492,4.492,0,0,0-1.826-6.664c-1.121-.425-2.539-.461-3.206-1.452-.9-1.333.37-3.111,1.727-4.016s3.051-1.74,3.4-3.324c.727-3.305-5.078-5.253-4.373-8.563.372-1.747,2.551-2.61,4.291-2.226a10.8,10.8,0,0,1,4.468,2.784,8.715,8.715,0,0,0,4.605,2.5c2.813.273,5.242-2.007,6.866-4.34.73-1.049,1.546-2.252,2.806-2.446a2.643,2.643,0,0,1,2.457,1.147,4.648,4.648,0,0,1,.748,2.7c.005,2.146-.877,4.191-1.588,6.227s-1.263,4.27-.6,6.3,2.99,3.626,4.987,2.794c1.192-.5,1.938-1.663,2.846-2.583s2.348-1.643,3.441-.984a3.138,3.138,0,0,1,1.126,2.713,15.539,15.539,0,0,1-3.879,10.634,35.091,35.091,0,0,0-2.95,3.292,4.668,4.668,0,0,0-.806,4.152c.545,1.435,2.059,2.3,2.7,3.692.759,1.646.137,3.583-.489,5.3-.672,1.848-1.983,4.124-1.85,6.089.1,1.444.027,3.01-1.955,3.183a4.606,4.606,0,0,1-3.473-1.606,22.312,22.312,0,0,1-3.071-4.183" transform="translate(-1486.817 -1572.854)"/><path class="f" d="M2079.383,2037.875a.4.4,0,0,0,.61-.4c-2.424-12.7-8.819-23.282-13.757-29.918a80.1,80.1,0,0,0-10.244-11.479.4.4,0,1,0-.521.6c.191.166,19.158,16.918,23.743,40.947a.393.393,0,0,0,.168.255" transform="translate(-1551.428 -1592.41)"/><path class="f" d="M2313.906,2214.1a.4.4,0,0,0,.578-.157c2.459-5.1,5.948-14.885,5.984-14.983a.4.4,0,1,0-.747-.266c-.035.1-3.51,9.839-5.951,14.9a.4.4,0,0,0,.136.5" transform="translate(-1788.613 -1778.245)"/><path class="f" d="M2120.944,2394.971c1.836,1.233,11.5,7.351,17.331,3.7a.4.4,0,0,0,.126-.546.385.385,0,0,0-.532-.148c-5.878,3.68-16.62-3.825-16.73-3.9l-.007,0a.42.42,0,0,0-.56.123.408.408,0,0,0,.089.563c.036.025.128.106.284.21" transform="translate(-1611.241 -1957.772)"/><path class="f" d="M2071.336,2191.556a.4.4,0,0,0,.261.065,25.006,25.006,0,0,1,14.086,3.568.4.4,0,1,0,.415-.676,25.329,25.329,0,0,0-14.582-3.682.4.4,0,0,0-.181.724" transform="translate(-1565.953 -1771.214)"/><path class="f" d="M2252.47,2049.774a.4.4,0,0,0,.616-.357c-.4-5.716,1.707-17.591,1.728-17.71a.4.4,0,1,0-.781-.14c-.088.491-2.147,12.091-1.738,17.906a.394.394,0,0,0,.174.3" transform="translate(-1732.17 -1624.772)"/><path class="g" d="M3984.43,2485.871c-.108.058-.218.118-.329.175l-.117-.275c-1.1-2.668-9.391-24.175,1.147-41.752q.124-.212.252-.419a35.545,35.545,0,0,1,5.035-6.359s2.727-2.915,8.583-4.24c.129-.031.261-.062.4-.087a29.653,29.653,0,0,1,9.927-.274c.074.008.153.017.23.028,0,0,.043.089.124.26a36.346,36.346,0,0,1,2.131,21.438c-.029.143-.06.287-.092.43-2.171,9.86-9.167,21.406-27.286,31.077" transform="translate(-3338.177 -1992.987)"/><path class="f" d="M4029.693,2489.356l-.191-.114-.192-.116.075-.159,25.339-53.133c.074.008.153.017.23.028,0,0,.044.089.125.26l-25.248,52.945Z" transform="translate(-3383.578 -1996.182)"/><path class="f" d="M4225.723,2700.149l-12.666-.062-.059-.431,12.816.063c-.029.143-.06.287-.092.43" transform="translate(-3552.185 -2238.331)"/><path class="f" d="M4053.469,2590.15l-.267.393-9.009-20.8q.124-.212.252-.419Z" transform="translate(-3397.234 -2118.702)"/><path class="f" d="M4218.124,2450.892l-.388.108-4.626-11.742c.129-.031.261-.062.4-.088Z" transform="translate(-3552.285 -1999.226)"/><path class="g" d="M4083.96,2594.6c-.151-.03-.3-.059-.458-.092,0,0,.036-.124.1-.359,1.054-3.458,10.087-30.889,34.255-39.563.192-.071.385-.14.577-.206a44.538,44.538,0,0,1,9.929-2.167s4.958-.662,11.686,2.7c.15.072.3.147.452.229a37.155,37.155,0,0,1,9.841,7.614c.066.066.134.138.2.21,0,0-.029.121-.086.35a45.533,45.533,0,0,1-14.952,22.473c-.142.116-.286.231-.431.343-9.931,7.834-25.878,13.474-51.118,8.466" transform="translate(-3433.359 -2102.962)"/><path class="f" d="M4082.543,2713.242l-.094-.262-.094-.265.2-.094,66.739-31.391c.066.066.135.138.2.21,0,0-.029.121-.086.35l-66.5,31.281Z" transform="translate(-3432.306 -2221.43)"/><path class="f" d="M4574.936,2847.676l-12.228-10.114.284-.465,12.374,10.234c-.142.116-.286.231-.431.344" transform="translate(-3873.216 -2364.498)"/><path class="f" d="M4407.792,2606.556l-.571.169L4415,2579.41q.289-.107.578-.205Z" transform="translate(-3730.466 -2127.776)"/><path class="f" d="M4713.77,2600.971l-.462-.2,4.836-15.055c.15.072.3.147.453.229Z" transform="translate(-3991.251 -2133.745)"/><path class="g" d="M1539.942,2337.6c.151-.03.3-.059.458-.092,0,0-.036-.124-.105-.359-1.054-3.458-10.086-30.889-34.254-39.563q-.289-.107-.578-.205a44.513,44.513,0,0,0-9.929-2.168s-4.957-.662-11.685,2.7c-.15.072-.3.147-.453.229a37.166,37.166,0,0,0-9.84,7.615c-.066.066-.135.138-.2.21,0,0,.028.121.085.35a45.542,45.542,0,0,0,14.952,22.473c.142.115.286.231.431.344,9.931,7.834,25.878,13.474,51.119,8.465" transform="translate(-1017.193 -1867.049)"/><path class="f" d="M1540.306,2456.242l.094-.262.094-.265-.2-.094-66.739-31.391c-.066.066-.135.138-.2.21,0,0,.028.121.085.35l66.5,31.281Z" transform="translate(-1017.193 -1985.518)"/><path class="f" d="M1656.916,2590.676l12.228-10.113-.284-.465-12.375,10.235c.142.115.286.231.43.343" transform="translate(-1185.314 -2128.587)"/><path class="f" d="M1872.165,2349.556l.571.169-7.778-27.315q-.288-.107-.577-.205Z" transform="translate(-1376.145 -1891.864)"/><path class="f" d="M1600.47,2343.971l.462-.2-4.836-15.055c-.15.072-.3.147-.453.229Z" transform="translate(-1129.44 -1897.834)"/><path class="g" d="M1130.13,2855.535c.128-.085.259-.171.389-.26l-.234-.292c-2.294-2.793-21.12-24.695-46.768-23.481q-.308.012-.612.031a44.528,44.528,0,0,0-10,1.789s-4.834,1.282-9.767,6.96c-.111.124-.223.252-.331.384a37.164,37.164,0,0,0-6.186,10.8c-.036.087-.072.18-.105.271,0,0,.072.1.213.292a45.544,45.544,0,0,0,22.4,15.058c.175.052.353.1.529.153,12.17,3.447,29.063,2.569,50.477-11.7" transform="translate(-634.577 -2359.347)"/><path class="f" d="M1130.533,3079.213l-.013-.278-.014-.281-.22-.011-73.669-3.521c-.036.086-.072.179-.105.271,0,0,.072.1.213.291l73.407,3.511Z" transform="translate(-634.578 -2583.007)"/><path class="f" d="M1332.446,3106.944l7.438-14.018-.44-.321-7.527,14.185c.175.052.353.1.529.153" transform="translate(-887.369 -2599.056)"/><path class="f" d="M1395.585,2854.381l.592-.062-17.621-22.273q-.308.011-.612.031Z" transform="translate(-929.618 -2359.866)"/><path class="h" d="M1247.094,3050.146c0,11.743-77.924,21.263-174.047,21.263S899,3061.89,899,3050.146s77.923-21.262,174.047-21.262,174.047,9.519,174.047,21.262" transform="translate(-490 -2540.566)"/><path class="i" d="M1525.822,2210.921V2261.1c-6.906,9.218-19.044,12.92-30.442,15.293-1.436.3-4.361,1.028-4.427,1.028h-4.833c-4.146,0-8.343.189-12.482-.043-2.931-.165-5.767-1.266-8.708-1.161-4.479.161-9.065,1.857-13.449,2.741q-7.254,1.464-14.587,2.481-8.19,1.136-16.446,1.712c-13.149.917-27.21,1.46-40.286-.557-6.336-.977-12.831-1.31-19.252-1.828-6.545-.527-13.29-1.6-19.853-1.6a40.664,40.664,0,0,1-10.766-1.864,4.586,4.586,0,0,1-2.771-5.8,8.637,8.637,0,0,1,3.729-4.506c3.125-1.814,6.921-1.909,10.534-1.957,9.426-.122,18.7-.536,28.073.757a39.164,39.164,0,0,1-25.6-15.033c-3.314-4.394-5.49-11.051-1.71-15.048,2.541-2.684,6.689-2.917,10.379-2.672a69.319,69.319,0,0,1,29.98,9.14c-5.388-3.592-10.981-7.4-14.106-13.067s-2.855-13.783,2.353-17.633c5.515-4.075,13.4-1.637,19.257,1.935a61.132,61.132,0,0,1,23.229,25.819c-2.594-7.021-5.232-14.516-3.657-21.831s9.217-13.836,16.27-11.341c4.112,1.453,6.849,5.519,7.892,9.75.147.605.27,1.211.36,1.821a23.525,23.525,0,0,1,1.988-6.313c2.6-5.359,8.019-9.635,13.975-9.553,6.963.1,12.748,6.047,14.941,12.654s1.579,13.779.941,20.713c3.633-12.56,11.046-24.629,22.567-30.814a32.568,32.568,0,0,1,16.79-3.727l.642.037c7.1.483,13.807,3.334,18.381,8.768a13.279,13.279,0,0,1,1.1,1.522" transform="translate(-883.1 -1780.256)"/><path class="i" d="M3892,2787.256v16.963a9.817,9.817,0,0,0,1.382,1.473,24.774,24.774,0,0,0,2.327,1.585,9.963,9.963,0,0,1,1.324,1.333,14.331,14.331,0,0,0,4.741,2.79,46.862,46.862,0,0,0,10.992,2.522,43.373,43.373,0,0,0,10.271.653c3.841-.367,7.541-1.755,11.392-1.989,8.228-.5,16.252,4.292,24.4,3.043a9.453,9.453,0,0,0,4.757-1.948,5.089,5.089,0,0,0,1.859-4.613c-.659-3.609-5.443-3.566-8.216-3.685a81.473,81.473,0,0,0-12.5.422,13.24,13.24,0,0,0,8.655-5.082c1.121-1.485,1.856-3.736.578-5.087a4.338,4.338,0,0,0-3.509-.9,23.429,23.429,0,0,0-10.135,3.09c1.821-1.214,3.712-2.5,4.769-4.417s.965-4.66-.8-5.961c-1.864-1.378-4.531-.554-6.51.654a20.669,20.669,0,0,0-7.853,8.729c.877-2.373,1.769-4.907,1.236-7.38s-3.116-4.678-5.5-3.834a4.551,4.551,0,0,0-2.668,3.3c-.05.2-.091.409-.122.616a7.947,7.947,0,0,0-.672-2.134,5.461,5.461,0,0,0-4.725-3.229c-2.354.033-4.31,2.044-5.051,4.278a17.223,17.223,0,0,0-.318,7c-1.229-4.246-3.734-8.326-7.629-10.417a11.013,11.013,0,0,0-5.676-1.26l-.217.013a8.773,8.773,0,0,0-6.219,2.964,2.52,2.52,0,0,0-.375.515" transform="translate(-3257.582 -2315.541)"/><path class="j" d="M217.395,169.5c0,2.889-35.572,5.231-79.447,5.231S58.5,172.391,58.5,169.5s35.572-5.231,79.447-5.231S217.395,166.612,217.395,169.5Z" transform="translate(432.915 345.379)"/><g transform="translate(466.197 332.221)"><g transform="translate(0 81.943)"><path class="k" d="M122.874,116.232c7.306,5.155,13.466,11.9,19.311,18.609,2.9,3.331,11.619,17.125,14.284,20.667,5.038,6.7,2.677,6.593-6.324,11.4a9.845,9.845,0,0,1-3.67,1.11c-15.114,1.531-22.093-18.27-26.628-28.919-1.975-4.629-4.1-10.333-5.786-15.079C115.369,115.577,122.874,116.232,122.874,116.232Z" transform="translate(-57.342 -76.63)"/><path class="l" d="M118.174,161.842c7.75-4.442,16.47-7.177,25.027-9.644,4.243-1.227,20.433-3.308,24.769-4.22,8.194-1.73,7.107.362,7.656,10.544a9.988,9.988,0,0,1-.538,3.8c-4.991,14.343-25.892,12.309-37.452,11.923-5.026-.164-11.1-.643-16.108-1.122C114.41,168.365,118.174,161.842,118.174,161.842Z" transform="translate(-56.815 -71.357)"/><g transform="translate(25.914 39.476)"><path class="m" d="M120.148,165.16a10.185,10.185,0,0,0-.362-2.268c-.047-.21-.351-2.268-.327-2.49.339-3.261,2.2-12.11,2.2-12.11l-8.931-1.4s.164,7.925-1.753,12.3h.012c-4.267,1.625-11.748,3.542-11.748,3.542s-8.171.152-8.615.269a7.427,7.427,0,0,0-2.864,1.181s-1.227,1.929,8.51,4.933a33.389,33.389,0,0,0,11.245,1.485c1.52.082,3.028.175,4.547.257,1.555.082,6.2.608,6.862.245a1.82,1.82,0,0,0,.573-.456C120.51,169.345,120.113,166.715,120.148,165.16Z" transform="translate(-87.707 -110.925)"/><path class="n" d="M112.49,153.83c.105.514.2,1.029.269,1.543.245-.456.479-.923.713-1.391Z" transform="translate(-83.521 -109.753)"/><path class="o" d="M119.784,160.882c-.023-.129-.14-.865-.222-1.508-.374.14-.736.257-1.087.386-4.091,1.368-8.182.573-12.133-.877a1.657,1.657,0,0,1-.21-.094c-3.507,1.064-6.885,1.929-6.885,1.929s-8.171.152-8.615.269a7.427,7.427,0,0,0-2.864,1.181s-1.227,1.929,8.51,4.933a33.389,33.389,0,0,0,11.245,1.485c1.52.082,3.027.175,4.547.257,1.555.082,6.2.608,6.862.245a1.82,1.82,0,0,0,.573-.456c1.017-1.286.62-3.916.643-5.471A10.894,10.894,0,0,0,119.784,160.882Z" transform="translate(-87.706 -108.915)"/><path class="p" d="M119.231,116.178h-.07a7.7,7.7,0,0,0-7.89,6.978c-.947,9.889-2.291,24.524-3.051,32.87l9.2,1.742a176.643,176.643,0,0,0,6.16-25.272,136.1,136.1,0,0,0,1.368-13.606c.023-.69-1.11-1.894-1.075-2.653A38.048,38.048,0,0,0,119.231,116.178Z" transform="translate(-84.242 -116.123)"/></g><path class="q" d="M136.562,97.02l1.707,5.155-2.969.982Z" transform="translate(-53.754 -79.873)"/><path class="r" d="M144.08,102.171c.094,1.683.514,11.572.514,11.572,1.1,1.075,6.043,1.11,7.984-.795a4.835,4.835,0,0,0,1.625-2.782L152.508,95.8Z" transform="translate(-52.271 -80.079)"/><path class="s" d="M152.58,86.49l.923,5.1,1.414,7.773.4,2.186c-4.36,8.884-12.566,10.4-15.465,7.773s-5.33-18.749-5.33-18.749Z" transform="translate(-53.886 -81.652)"/><path class="t" d="M152.961,109.878s-7.317-12.835-9.363-13.793-8.486,1.1-12.379-3.869c-3.834-4.9-1.952-7.738-.608-8.1s4.278,4.512,8.568,1.157c4.372-3.413,13.758-4.126,15.477-.573,0,0,5.915.152,5.248,8.264s-2.385,15.009-4.29,15.757Z" transform="translate(-54.828 -82.351)"/><path class="u" d="M145.783,93.81c2.151,1.473,2.408,6.172-1.3,9.059L142.3,95.283A2.366,2.366,0,0,1,145.783,93.81Z" transform="translate(-52.572 -80.474)"/><path class="v" d="M155.126,108.4c-5.587.655-14.354,2.291-15.979,8.732a25.49,25.49,0,0,0-.129,10.555c.479,2.712.923,5.435,1.251,8.182.538,4.629,1.192,9.854-.082,14.424l-5.237,9.585s25.4,11.21,38-3.635c0,0-.795-36.973-6.7-45.635-.713-1.052-2.525-1.52-3.647-1.8A20.737,20.737,0,0,0,155.126,108.4Z" transform="translate(-53.814 -77.978)"/><path class="w" d="M163.076,110.612c-.713-1.052-2.525-1.52-3.647-1.8a19.917,19.917,0,0,0-5.669-.549v55.57c5.6-.456,11.455-2.209,16.026-7.586C169.786,156.235,168.979,119.274,163.076,110.612Z" transform="translate(-50.636 -77.977)"/><g transform="translate(48.016 32.153)"><path class="x" d="M112.95,120.38a17.078,17.078,0,0,0,3.4,7.984c2.805,3.2,6,4.477,8.627,7.867,2.069,2.665,22.607,22.361,24.7,15.184a4.525,4.525,0,0,0-.432-2.852c-3.483-8.486-11.981-12.087-19.392-16.552l-2.817-1.882s-1.216-4.839-4.2-7.5Z" transform="translate(-105.546 -108.08)"/><path class="y" d="M113.085,110.258l-6.172,6.99a1.2,1.2,0,0,0,.094,1.672l12.543,11.35a1.187,1.187,0,0,0,1.683-.082l6.055-6.675a1.179,1.179,0,0,0-.07-1.66l-12.426-11.666A1.183,1.183,0,0,0,113.085,110.258Z" transform="translate(-106.616 -109.858)"/><g transform="translate(1.536 1.545)"><path class="z" d="M107.93,117.8l10.7,9.714,5.728-6.312L113.775,111.18Z" transform="translate(-107.93 -111.18)"/></g><path class="aa" d="M118.495,128.68s.935-.573.549-2.35-1.2-5.985-1.2-5.985.012-1.5.608-1.169,1.882,1.262,2.373,3.869a8.818,8.818,0,0,0,1.1,2.817,7.777,7.777,0,0,1,2.361,4.617C124.269,130.48,120.049,131.906,118.495,128.68Z" transform="translate(-104.72 -108.292)"/><g transform="translate(37.08 10.174)"><path class="ab" d="M146.266,151.617c.865-1.157.994-2.782,1.052-4.512.14-4.2.351-8.381.538-12.578.082-1.87.164-3.729.222-5.6.129-3.811.386-9.422-4.606-10.333a4.225,4.225,0,0,0-3.32,1.414,5.116,5.116,0,0,0-1.064,2.314,37.918,37.918,0,0,0-.4,6.032c-.187,3.46-.327,6.932-.351,10.4-.012,2.233,0,4.477.117,6.71.094,1.847.035,4.173.888,5.9.9,1.835,3.133,2.116,4.793,1.648A4.041,4.041,0,0,0,146.266,151.617Z" transform="translate(-138.337 -118.562)"/></g><path class="ac" d="M150.55,137.419c-.69-5.178.035-23.776-7.376-24.536-8.206-.842-6.616,24.758-6.616,24.758Z" transform="translate(-101.579 -109.35)"/></g><g transform="translate(0 72.8)"><path class="ad" d="M73.7,174.652a10.838,10.838,0,0,0,2.174-.736c.2-.082,2.174-.736,2.4-.748,3.261-.222,12.309.105,12.309.105l-.129-9.036s-7.785,1.508-12.414.362v.012a69.366,69.366,0,0,0-7.388-9.293s-1.718-4.372-1.905-4.793,1.2-1.438.07-2.607c0,0-.222-6.043-1.531,4.068,0,0-2.373,4.2-1.087,11.14l.526,4.524c.175,1.543.456,6.207.923,6.8a1.754,1.754,0,0,0,.549.491C69.644,175.716,72.168,174.886,73.7,174.652Z" transform="translate(-65.492 -144.378)"/><path class="ae" d="M75.885,174.18a25.229,25.229,0,0,1-.152-6.8,13.853,13.853,0,0,1,1.216-4.547c-2.1-3.928-4.348-8.942-4.348-8.942s-1.59-5.739-1.788-6.16a7.607,7.607,0,0,0-1.648-2.63s-2.046-3.156-3.355,6.955a33.543,33.543,0,0,0,.444,11.327l.526,4.524c.175,1.543.456,6.207.923,6.8a1.755,1.755,0,0,0,.549.491c1.449.783,3.963-.047,5.494-.292A11.258,11.258,0,0,0,75.885,174.18Z" transform="translate(-65.539 -144.631)"/><path class="af" d="M83.28,171.147c10.649,1.485,34.027,3.518,47.236-.994,2.081-.713,4.3-2.817,4.535-5.108.175-1.765-.549-4.348-2.069-5.424-1.251-.877-5.412-1.181-6.862-1.11-4.1.187-30.3,2.279-42.677,3.273Z" transform="translate(-62.542 -142.288)"/></g></g><g transform="translate(107.203 66.476)"><path class="ag" d="M181.682,123.241a25.623,25.623,0,1,1,30.275,0h11.175a33.187,33.187,0,0,0,7.224-20.573,33.549,33.549,0,1,0-59.872,20.573h11.2Z" transform="translate(-156.235 -69.12)"/><g transform="translate(0 41.473)"><path class="ag" d="M232.318,104.6H162.311a5.064,5.064,0,0,0-5.061,5.061V176a5.074,5.074,0,0,0,5.061,5.073h70.007A5.066,5.066,0,0,0,237.379,176V109.661A5.063,5.063,0,0,0,232.318,104.6Zm-29.562,35.126V158.85a2.572,2.572,0,0,1-2.572,2.572h-4.7a2.572,2.572,0,0,1-2.572-2.572V139.726a10.15,10.15,0,0,1-5.354-8.907,10.391,10.391,0,0,1,9.971-10.216,10.273,10.273,0,0,1,10.59,10.275A10.152,10.152,0,0,1,202.756,139.726Z" transform="translate(-157.25 -104.6)"/></g></g><g transform="translate(98.306 0)"><path class="ag" d="M550.2,84.838s-9.077,4.168-10.466,13.708-.714,18.337,10.466,29.083,23.526,8.429,29.917,3.983,10.1-16.672,6.761-28.064C584.2,94.4,577.812,84.5,568.032,82.1,561.938,80.609,555.78,82.378,550.2,84.838Z" transform="translate(-539.208 -81.555)"/><circle class="ag" cx="2.628" cy="2.628" r="2.628" transform="translate(13.913 70.434)"/><ellipse class="ag" cx="4.993" cy="7.623" rx="4.993" ry="7.623" transform="translate(10.071 61.344) rotate(-60)"/><g transform="translate(14.532 10.56)"><g transform="translate(0 0)"><path class="f" d="M608.574,128.312s-4.631,2.316-5.742,7.132.556,6.391,2.871,6.113,2.964-3.612,3.8-5.372,3.89-2.655,5.465-1.235,2.315,5.773,0,8.46-5.372,2.686-6.021,5.279c-.585,2.338-.463,6.685,3.057,6.576,3.167-.1,1.111-3.334,2.408-5s5.094-2.686,6.576-4.816,3.057-6.113,2.5-8.892a11.659,11.659,0,0,0-6.391-8.243C613.2,126.552,608.574,128.312,608.574,128.312Z" transform="translate(-602.479 -127.53)"/><ellipse class="f" cx="2.269" cy="2.779" rx="2.269" ry="2.779" transform="translate(7.299 30.792)"/></g></g></g></g></g></svg>