<svg xmlns="http://www.w3.org/2000/svg" width="24" height="24" viewBox="0 0 24 24"><defs><style>.a{fill:none;}.b{fill:#fff;}</style></defs><g transform="translate(-323.967 -633.967)"><rect class="a" width="24" height="24" transform="translate(323.967 633.967)"/><g transform="translate(325.088 637.263)"><path class="b" d="M105.823,8.947c2.035,0,3.683-2,3.683-4.474S108.964,0,105.823,0s-3.683,2-3.683,4.474,1.649,4.473,3.683,4.473Zm0,0" transform="translate(-95.062)"/><path class="b" d="M68.824,140.367c-.068-4.3-.63-5.53-4.931-6.307a3.022,3.022,0,0,1-4.033,0c-4.255.768-4.851,1.976-4.929,6.167-.006.342-.009.36-.01.32,0,.075,0,.212,0,.453,0,0,1.024,2.064,6.956,2.064S68.833,141,68.833,141v-.335a1.815,1.815,0,0,1-.009-.3Zm0,0" transform="translate(-51.114 -124.77)"/><path class="b" d="M210.715,20c1.652,0,2.992-1.626,2.992-3.633s-.44-3.633-2.992-3.633a4.278,4.278,0,0,0-1.116.132,7.336,7.336,0,0,1,.67,3.459,6.135,6.135,0,0,1-.919,3.274,2.568,2.568,0,0,0,1.365.4Zm0,0" transform="translate(-194.843 -11.848)"/><path class="b" d="M232.832,126.732c-.055-3.5-.512-4.492-4.005-5.122a2.1,2.1,0,0,1-1.638.626c-.047,0-.094,0-.139,0a4.6,4.6,0,0,1,1.879,1.455c.843,1.157,1.037,2.71,1.078,4.993,2.351-.464,2.832-1.434,2.832-1.434v-.272a2.257,2.257,0,0,1-.006-.241Zm0,0" transform="translate(-211.316 -113.183)"/><path class="b" d="M41.352,19.987a2.562,2.562,0,0,0,1.365-.4,6.135,6.135,0,0,1-.919-3.274,7.331,7.331,0,0,1,.67-3.46,4.274,4.274,0,0,0-1.116-.132c-2.551,0-2.992,1.627-2.992,3.633s1.34,3.634,2.992,3.634Zm0,0" transform="translate(-35.702 -11.839)"/><path class="b" d="M5.788,122.233c-.045,0-.091,0-.139,0a2.1,2.1,0,0,1-1.638-.626c-3.493.631-3.95,1.626-4.005,5.122,0,.225-.006.263-.006.242v.272s.482.97,2.832,1.434c.04-2.283.234-3.836,1.078-4.993a4.6,4.6,0,0,1,1.879-1.455Zm0,0" transform="translate(0 -113.183)"/></g></g></svg>