<svg xmlns="http://www.w3.org/2000/svg" width="23" height="28" viewBox="0 0 23 28">
  <g id="Group_20379" data-name="Group 20379" transform="translate(-1281 -416)">
    <path id="Fill_1" data-name="Fill 1" d="M20.6,16l-.016,0A1.766,1.766,0,0,1,19,14.251V7.813A7.707,7.707,0,0,0,11.73,0,7.5,7.5,0,0,0,4,7.5v6.751A1.766,1.766,0,0,1,2.412,16L2.4,16a2.5,2.5,0,0,0,0,5A83.338,83.338,0,0,1,20.6,21a2.5,2.5,0,0,0,0-5" transform="translate(1281 416)" fill="#fff"/>
    <path id="Fill_3" data-name="Fill 3" d="M7,1.741A3.386,3.386,0,0,1,3.5,5,3.386,3.386,0,0,1,0,1.741C0-.06,1.568,0,3.5,0S7-.06,7,1.741" transform="translate(1289 439)" fill="#fff"/>
  </g>
</svg>
