<svg xmlns="http://www.w3.org/2000/svg" xmlns:xlink="http://www.w3.org/1999/xlink" width="20" height="34" viewBox="0 0 20 34"><defs><style>.a{fill:#7a58fc;}.b{fill:#fafafa;}.c{clip-path:url(#a);}</style><clipPath id="a"><rect class="a" width="9.414" height="11.906"/></clipPath></defs><g transform="translate(8365 14406)"><g transform="translate(-8359 -14378.816)"><path class="b" d="M75.479,86.537H68.559a.539.539,0,0,1,0-1.077h6.926a.538.538,0,0,1,.539.539A.547.547,0,0,1,75.479,86.537Z" transform="translate(-68.02 -85.46)"/></g><g transform="translate(-8358.375 -14376.428)"><path class="b" d="M75.355,90.707H69.62a.539.539,0,0,1,0-1.077h5.735a.539.539,0,0,1,0,1.077Z" transform="translate(-69.11 -89.63)"/></g><path class="b" d="M73.45,95.81a2.079,2.079,0,0,0,2.08-2.08H71.37A2.08,2.08,0,0,0,73.45,95.81Z" transform="translate(-8428.449 -14467.81)"/><path class="b" d="M74.242,54.393a10,10,0,1,0-14.225,0,12.8,12.8,0,0,1,3.156,8.727h7.913A12.8,12.8,0,0,1,74.242,54.393Z" transform="translate(-8422.13 -14443.25)"/><g transform="translate(-8359.56 -14401.674)"><g class="c"><path class="a" d="M9.269,4.208,4.856.07a.271.271,0,0,0-.368,0L.074,4.208a.234.234,0,0,0,0,.347l1.175,1.1a.272.272,0,0,0,.368,0L3.51,3.881v7.751a.253.253,0,0,0,.26.244h1.8a.253.253,0,0,0,.26-.244V3.883L7.726,5.658a.281.281,0,0,0,.368,0l1.177-1.1a.238.238,0,0,0,.076-.172.247.247,0,0,0-.078-.176Zm0,0" transform="translate(0.002 0.002)"/></g></g></g></svg>