<svg xmlns="http://www.w3.org/2000/svg" width="50.171" height="18.481" viewBox="0 0 50.171 18.481"><defs><style>.a{fill:#fff;}</style></defs><path class="a" d="M2.393,0a1.13,1.13,0,0,1-.83-.342,1.13,1.13,0,0,1-.342-.83,1.116,1.116,0,0,1,.342-.818,1.13,1.13,0,0,1,.83-.342H7.056A3.362,3.362,0,0,0,9.521-3.357a3.376,3.376,0,0,0,1.025-2.478A3.362,3.362,0,0,0,9.521-8.3,3.362,3.362,0,0,0,7.056-9.326a1.13,1.13,0,0,1-.83-.342,1.13,1.13,0,0,1-.342-.83,1.13,1.13,0,0,1,.342-.83,1.13,1.13,0,0,1,.83-.342,5.588,5.588,0,0,1,4.114,1.721,5.588,5.588,0,0,1,1.721,4.114,5.6,5.6,0,0,1-1.721,4.126A5.608,5.608,0,0,1,7.056,0ZM3.613-2.844A1.116,1.116,0,0,1,2.8-3.186a1.13,1.13,0,0,1-.342-.83A1.116,1.116,0,0,1,2.8-4.834L4.724-6.775A5.708,5.708,0,0,1,2.2-8.887a5.708,5.708,0,0,1-.977-3.235A5.608,5.608,0,0,1,2.93-16.235a5.622,5.622,0,0,1,4.126-1.709,5.608,5.608,0,0,1,4.114,1.709,5.588,5.588,0,0,1,1.721,4.114,1.13,1.13,0,0,1-.342.83,1.13,1.13,0,0,1-.83.342,1.13,1.13,0,0,1-.83-.342,1.13,1.13,0,0,1-.342-.83,3.362,3.362,0,0,0-1.025-2.466,3.362,3.362,0,0,0-2.466-1.025,3.376,3.376,0,0,0-2.478,1.025,3.362,3.362,0,0,0-1.025,2.466A3.376,3.376,0,0,0,4.578-9.644,3.376,3.376,0,0,0,7.056-8.618,1.07,1.07,0,0,1,8.13-7.9a1.24,1.24,0,0,1,.11.488,1.069,1.069,0,0,1-.366.781L4.443-3.186A1.13,1.13,0,0,1,3.613-2.844ZM24.573.488a8.936,8.936,0,0,1-6.543-2.7,8.936,8.936,0,0,1-2.7-6.543,8.9,8.9,0,0,1,2.7-6.531,8.915,8.915,0,0,1,6.543-2.71,8.875,8.875,0,0,1,6.531,2.71,1.116,1.116,0,0,1,.342.818,1.13,1.13,0,0,1-.342.83,1.116,1.116,0,0,1-.818.342,1.13,1.13,0,0,1-.83-.342,6.629,6.629,0,0,0-4.883-2.026,6.629,6.629,0,0,0-4.883,2.026,6.629,6.629,0,0,0-2.026,4.883A6.629,6.629,0,0,0,19.69-3.87a6.629,6.629,0,0,0,4.883,2.026A6.629,6.629,0,0,0,29.456-3.87a1.13,1.13,0,0,1,.83-.342,1.116,1.116,0,0,1,.818.342,1.13,1.13,0,0,1,.342.83,1.13,1.13,0,0,1-.342.83A8.9,8.9,0,0,1,24.573.488ZM40.979-8.752l-4.761-4.761V-1.172a1.13,1.13,0,0,1-.342.83A1.116,1.116,0,0,1,35.059,0a1.13,1.13,0,0,1-.83-.342,1.13,1.13,0,0,1-.342-.83V-16.333a1.07,1.07,0,0,1,.72-1.074,1.24,1.24,0,0,1,.488-.11,1.085,1.085,0,0,1,.781.354l6.75,6.763,6.763-6.763a1.113,1.113,0,0,1,.781-.354,1.266,1.266,0,0,1,.5.11,1.07,1.07,0,0,1,.72,1.074V-1.172a1.13,1.13,0,0,1-.342.83A1.13,1.13,0,0,1,50.22,0a1.13,1.13,0,0,1-.83-.342,1.13,1.13,0,0,1-.342-.83V-8.838L45.789-5.579a1.116,1.116,0,0,1-.818.342,1.13,1.13,0,0,1-.83-.342A1.116,1.116,0,0,1,43.8-6.4a1.13,1.13,0,0,1,.342-.83L49.011-12.1l.037-.037v-1.379L41.125-5.591a1.116,1.116,0,0,1-.818.342,1.13,1.13,0,0,1-.83-.342,1.13,1.13,0,0,1-.342-.83,1.116,1.116,0,0,1,.342-.818Z" transform="translate(-1.221 17.993)"/></svg>