<svg xmlns="http://www.w3.org/2000/svg" xmlns:xlink="http://www.w3.org/1999/xlink" width="36" height="36" viewBox="0 0 36 36"><defs><style>.a{fill:#fff;}.b{clip-path:url(#a);}</style><clipPath id="a"><rect class="a" width="36" height="36"/></clipPath></defs><g transform="translate(-0.12)"><g transform="translate(0.12)"><g class="b" transform="translate(0)"><path class="a" d="M15.136,18.64a9.145,9.145,0,0,0,8.958-9.32A9.145,9.145,0,0,0,15.136,0,9.145,9.145,0,0,0,6.178,9.32a9.145,9.145,0,0,0,8.958,9.32ZM19.472,13c-.407,1.4-2.153,2.456-4.245,2.456S11.39,14.4,10.982,13ZM35.787,28.74l-8.2,7.107a.613.613,0,0,1-.832-.039l-4.081-4.246a.663.663,0,0,1,0-.909l.874-.909a.6.6,0,0,1,.874,0l2.885,3,6.9-5.978a.6.6,0,0,1,.87.082l.791.988a.664.664,0,0,1-.08.9ZM21.717,32.561l1.555,1.617a56.252,56.252,0,0,1-8.135.531C6.5,34.709,2.272,33.241.722,32.524A1.4,1.4,0,0,1,0,31.354V28.282a8.9,8.9,0,0,1,7.668-8.934.7.7,0,0,1,.431.123,11.579,11.579,0,0,0,14.075,0,.7.7,0,0,1,.431-.123,8.9,8.9,0,0,1,7.668,8.934v.052l-2.88,2.5-2.007-2.087a1.923,1.923,0,0,0-2.8,0l-.874.909a2.117,2.117,0,0,0,0,2.908Zm0,0" transform="translate(-0.007)"/></g></g></g></svg>