<svg xmlns="http://www.w3.org/2000/svg" xmlns:xlink="http://www.w3.org/1999/xlink" width="24" height="24" viewBox="0 0 24 24">
  <defs>
    <clipPath id="clip-path">
      <rect id="Rectangle_13855" data-name="Rectangle 13855" width="22" height="22" transform="translate(-0.049 -0.049)" fill="#6982e7"/>
    </clipPath>
  </defs>
  <g id="Group_21159" data-name="Group 21159" transform="translate(7016 13838)">
    <g id="Group_21154" data-name="Group 21154" transform="translate(-7014.951 -13836.951)">
      <g id="Group_19661" data-name="Group 19661" transform="translate(0)" clip-path="url(#clip-path)">
        <path id="Path_68142" data-name="Path 68142" d="M215.911,352.239a6.176,6.176,0,0,1-1.771-.259l1.77,4.055,1.769-4.054a6.168,6.168,0,0,1-1.768.258Zm0,0" transform="translate(-204.897 -336.359)" fill="#6982e7" fill-rule="evenodd"/>
      </g>
      <g id="Group_19662" data-name="Group 19662" transform="translate(0)" clip-path="url(#clip-path)">
        <path id="Path_68143" data-name="Path 68143" d="M2.223,369.5a2.01,2.01,0,0,1-.215-1.044l.069-1.049-.658-.057a10.014,10.014,0,0,0-1.413,5.023.656.656,0,0,0,.631.736h6.47c-.934-.636-4.462-2.782-4.884-3.607Zm0,0" transform="translate(0.181 -351.044)" fill="#6982e7" fill-rule="evenodd"/>
      </g>
      <g id="Group_19663" data-name="Group 19663" transform="translate(0)" clip-path="url(#clip-path)">
        <path id="Path_68144" data-name="Path 68144" d="M349.05,367.407l.069,1.049a2.01,2.01,0,0,1-.215,1.044,1.9,1.9,0,0,1-.682.746l-4.2,2.86h6.472a.65.65,0,0,0,.632-.668,10.016,10.016,0,0,0-1.413-5.088Zm0,0" transform="translate(-329.283 -351.044)" fill="#6982e7" fill-rule="evenodd"/>
      </g>
      <g id="Group_19664" data-name="Group 19664" transform="translate(0)" clip-path="url(#clip-path)">
        <path id="Path_68145" data-name="Path 68145" d="M10.214,258.686l-2.759-6.323a6.639,6.639,0,0,1-1.071-.912,6.948,6.948,0,0,1-1.63-2.85L.448,251.357a.6.6,0,0,0,.225,1.111l2.906.253-.155,2.361a.607.607,0,0,0,.288.561l5.737,3.9a.552.552,0,0,0,.786-.176.624.624,0,0,0,.039-.577Zm0,0" transform="translate(0.029 -237.582)" fill="#6982e7" fill-rule="evenodd"/>
      </g>
      <g id="Group_19665" data-name="Group 19665" transform="translate(0)" clip-path="url(#clip-path)">
        <path id="Path_68146" data-name="Path 68146" d="M278.39,255.111l-.155-2.361,2.9-.34a.607.607,0,0,0,.243-1.112l-4.321-2.668a6.948,6.948,0,0,1-1.63,2.849,6.64,6.64,0,0,1-1.075.915l-2.758,6.321-.06.11a.625.625,0,0,0,.04.577.551.551,0,0,0,.786.176l5.736-3.905a.606.606,0,0,0,.288-.561Zm0,0" transform="translate(-259.818 -237.611)" fill="#6982e7" fill-rule="evenodd"/>
      </g>
      <g id="Group_19666" data-name="Group 19666" transform="translate(0)" clip-path="url(#clip-path)">
        <path id="Path_68147" data-name="Path 68147" d="M137.332,182.434a5.4,5.4,0,0,0,5.242-5.518V175.66H132.09v1.257a5.4,5.4,0,0,0,5.242,5.518Zm0,0" transform="translate(-126.318 -167.89)" fill="#6982e7" fill-rule="evenodd"/>
      </g>
      <g id="Group_19667" data-name="Group 19667" transform="translate(0)" clip-path="url(#clip-path)">
        <path id="Path_68148" data-name="Path 68148" d="M87.635,6.5h13.03a.669.669,0,0,0,0-1.336H99.55c-.363-1.573-.641-3.5-1.669-4.587-.918-.967-1.579-.5-2.394.078a2.427,2.427,0,0,1-1.335.586,2.32,2.32,0,0,1-1.3-.59C92.04.06,91.378-.425,90.422.582c-1.06,1.116-1.373,3-1.688,4.587h-1.1a.669.669,0,0,0,0,1.336Zm0,0" transform="translate(-83.136 -0.053)" fill="#6982e7" fill-rule="evenodd"/>
      </g>
    </g>
    <rect id="Rectangle_15188" data-name="Rectangle 15188" width="24" height="24" transform="translate(-7016 -13838)" fill="none"/>
  </g>
</svg>
