<svg xmlns="http://www.w3.org/2000/svg" width="19" height="19" viewBox="0 0 19 19"><defs><style>.a{fill:#44455d;}</style></defs><path class="a" d="M13.734,10.6a5.584,5.584,0,0,0,1.373-3.672c0-.036,0-.071,0-.107a19.811,19.811,0,0,0,1.951-.692.742.742,0,0,0-.568-1.372q-.707.292-1.429.524C14.767,2.251,13.141,0,11.122,0A2.86,2.86,0,0,0,9.5.522,2.86,2.86,0,0,0,7.878,0C5.859,0,4.232,2.251,3.94,5.279q-.722-.232-1.429-.524a.742.742,0,0,0-.568,1.372,19.94,19.94,0,0,0,1.951.692c0,.036,0,.072,0,.107A5.584,5.584,0,0,0,5.265,10.6,8.207,8.207,0,0,0,0,18.258.742.742,0,0,0,.742,19H18.258A.742.742,0,0,0,19,18.258,8.206,8.206,0,0,0,13.734,10.6ZM7.878,1.484a1.58,1.58,0,0,1,1.1.526.742.742,0,0,0,1.042,0,1.581,1.581,0,0,1,1.1-.526c1.559,0,2.376,2.618,2.481,4.2a18.21,18.21,0,0,1-4.1.466,18.213,18.213,0,0,1-4.1-.466c.1-1.576.922-4.2,2.481-4.2ZM9.5,7.63A19.7,19.7,0,0,0,13.614,7.2a4.123,4.123,0,0,1-8.228,0A19.7,19.7,0,0,0,9.5,7.63ZM1.525,17.516A6.732,6.732,0,0,1,6.61,11.73a5.6,5.6,0,0,0,5.779,0,6.733,6.733,0,0,1,5.085,5.786Zm0,0"/></svg>