<svg xmlns="http://www.w3.org/2000/svg" width="16" height="16" viewBox="0 0 16 16"><defs><style>.a{fill:#707070;}</style></defs><path class="a" d="M15.469,15.063v-7.2H12.135V0H3.865V7.865H.531v7.2H0V16H16v-.937Zm-8.333,0V12.469H8.865v2.594ZM6.2,11.531v3.531H4.8V.938h6.4V15.063H9.8V11.531ZM1.469,8.8h2.4v6.26h-2.4Zm10.667,0h2.4v6.26h-2.4Z"/><rect class="a" width="0.95" height="1.351" transform="translate(6.193 6.326)"/><rect class="a" width="0.95" height="1.351" transform="translate(8.858 6.326)"/><rect class="a" width="0.95" height="1.351" transform="translate(6.193 8.989)"/><rect class="a" width="0.95" height="1.351" transform="translate(8.858 8.989)"/><rect class="a" width="0.95" height="1.351" transform="translate(12.824 11.252)"/><rect class="a" width="0.95" height="1.351" transform="translate(2.226 11.252)"/><path class="a" d="M209.045,67.039h.95V65.994h1.045v-.95h-1.045V64h-.95v1.045H208v.95h1.045Z" transform="translate(-201.519 -61.974)"/></svg>