<svg xmlns="http://www.w3.org/2000/svg" width="22" height="24" viewBox="0 0 22 24">
  <g id="Group_20409" data-name="Group 20409" transform="translate(-729 -284)">
    <path id="Path_69542" data-name="Path 69542" d="M734.249,293.609a4.534,4.534,0,1,0,4.534-4.453,4.5,4.5,0,0,0-4.534,4.453Zm7.158,0a2.625,2.625,0,1,1-2.625-2.578,2.6,2.6,0,0,1,2.625,2.578Zm4.581,8.531a.955.955,0,1,1-.954-.937.946.946,0,0,1,.954.937ZM751,301.2h-1.533a4.508,4.508,0,0,0-3.478-3.416v-1.506H744.08v1.506A4.508,4.508,0,0,0,740.6,301.2h-1.533v1.875H740.6a4.508,4.508,0,0,0,3.478,3.416V308h1.909v-1.506a4.508,4.508,0,0,0,3.478-3.416H751Zm-5.965,3.516a2.579,2.579,0,1,1,2.625-2.578,2.6,2.6,0,0,1-2.625,2.578Zm-5.707.353a6.38,6.38,0,0,0,1.135,1.523c-.63.557-1.041.885-1.08.916l-.6.476-.6-.476a39.932,39.932,0,0,1-4.534-4.354c-3.085-3.479-4.649-6.6-4.649-9.281v-.266a9.785,9.785,0,0,1,19.566,0v.266q0,.263-.021.531H746.63c.017-.178.027-.356.027-.531v-.266a7.875,7.875,0,0,0-15.748,0v.266c0,4.528,5.94,10.01,7.874,11.675.157-.135.34-.3.545-.478Zm0,0" transform="translate(0 0)" fill="#0075ff"/>
  </g>
</svg>
