<svg xmlns="http://www.w3.org/2000/svg" xmlns:xlink="http://www.w3.org/1999/xlink" width="351.728" height="197.998" viewBox="0 0 351.728 197.998"><defs><style>.a{fill:none;}.b{fill:#fe6442;}.c{fill:#fff;}.d{fill:#44465f;}.e{fill:#0f094c;}.f{fill:#0196f2;}.g{fill:#fecd40;}.h{fill:#0298db;}.i{fill:#afbedd;}.j{fill:#adb0fa;}.k{fill:#e4e9fd;}.l{fill:#cdd0fd;}.m{fill:url(#a);}.n{fill:#e4efff;}.o{fill:#f3aa06;}.p{fill:#e9d6b8;}.q{fill:#0f180a;}.r{fill:#3d3d3d;}.s{fill:#2e7feb;}.t{fill:#e7c49d;}.u{fill:#9ec301;}.v{fill:#e7eef6;}.w{fill:#b1bcc2;}.x{fill:#1a4568;}.y{fill:#193d56;}.z{fill:#eb512f;}.aa{fill:#183f59;}.ab{opacity:0.1;}.ac{clip-path:url(#c);}.ad{fill:#050003;}</style><linearGradient id="a" x1="0.5" x2="0.5" y2="1" gradientUnits="objectBoundingBox"><stop offset="0" stop-color="#6966e9"/><stop offset="1" stop-color="#69b1e3"/></linearGradient><clipPath id="c"><rect class="a" width="31.705" height="23.21"/></clipPath></defs><g transform="translate(7001.212 10482.884)"><path class="b" d="M3751.368,1521.6a6.612,6.612,0,0,0-6.626-6.6H3704.6a6.594,6.594,0,0,0-6.6,6.6v24.913a6.482,6.482,0,0,0,6.432,6.5h.412a2.232,2.232,0,0,1,2.243,2.316l-.045,1.15-.193,5.056a2.244,2.244,0,0,0,3.9,1.6l6.124-6.689,2.583-2.739a2.229,2.229,0,0,1,1.637-.694h23.68a6.64,6.64,0,0,0,6.587-6.14c.014-.171.013-.359.013-.533Z" transform="translate(-10467.107 -11968.478)"/><path class="c" d="M3829.1,1713.046a3.875,3.875,0,1,1-3.875-3.875,3.875,3.875,0,0,1,3.875,3.875" transform="translate(-10580.204 -12146.544)"/><path class="c" d="M3980.424,1713.046a3.875,3.875,0,1,1-3.875-3.875,3.875,3.875,0,0,1,3.875,3.875" transform="translate(-10718.976 -12146.544)"/><path class="c" d="M4131.745,1713.046a3.875,3.875,0,1,1-3.875-3.875,3.874,3.874,0,0,1,3.875,3.875" transform="translate(-10857.746 -12146.544)"/><path class="d" d="M2535.667,1425.188v-7.338a.35.35,0,0,1,.35-.35h.629a.35.35,0,0,1,.35.35v7.338a.349.349,0,0,1-.35.349h-.629a.35.35,0,0,1-.35-.349" transform="translate(-9401.143 -11879.07)"/><path class="d" d="M2535.667,1606.342v-11.9a.441.441,0,0,1,.441-.441h.447a.441.441,0,0,1,.441.441v11.9a.441.441,0,0,1-.441.441h-.447a.441.441,0,0,1-.441-.441" transform="translate(-9401.143 -12040.93)"/><path class="d" d="M2535.667,1796.852v-11.419a.432.432,0,0,1,.433-.432h.463a.433.433,0,0,1,.432.432v11.419a.432.432,0,0,1-.432.432h-.463a.432.432,0,0,1-.433-.432" transform="translate(-9401.143 -12216.08)"/><path class="e" d="M4016.19,2256.682l-.057-.2-.007-.024-.067-.24c-.152.043-3.746,1.109-7.012,6.631a36.094,36.094,0,0,0-4.147,12.127,73.418,73.418,0,0,0-.977,13.01q.011,1.821.088,3.726.071,1.741.2,3.551l.494-.088q-.06-.831-.1-1.635-.2-3.6-.174-6.736c.1-12.392,2.639-19.6,5.018-23.649,3.1-5.279,6.582-6.406,6.745-6.456l.006,0Zm0,0-.068-.2.047.219h0l.025,0Z" transform="translate(-10747.634 -12648.196)"/><path class="f" d="M4089.269,2111.316s-1.558-2.882-4.361-2.416c0,0-2.155,1.929-.255,5.532a5.979,5.979,0,0,0-5.156,2.119,5.531,5.531,0,0,0,4.258,3.9s-1.6,3.583.08,5.447a4.87,4.87,0,0,0,4.511-1.722s1.243,3.624,4.164,3.907a5.034,5.034,0,0,0,2.029-4.724s3.141.689,5.228-1.013c0,0-.392-3.464-2.4-4.433,0,0,2.862-1.594,2.578-4.592,0,0-2.42-1.651-4.432-.516,0,0-.063-4.357-3.175-5.874a4.393,4.393,0,0,0-3.073,4.382" transform="translate(-10816.947 -12511.302)"/><path class="e" d="M4162.426,2195.916a3.845,3.845,0,1,0,1.556-5.21,3.846,3.846,0,0,0-1.556,5.21" transform="translate(-10892.565 -12587.695)"/><path class="g" d="M4186.893,2217.6a1.794,1.794,0,1,0,.725-2.431,1.794,1.794,0,0,0-.725,2.431" transform="translate(-10915.227 -12610.358)"/><path class="f" d="M3987.71,2332.04s.683-7.794-3.485-5.7c0,0-2.452,1.26-.245,3.585a9.964,9.964,0,0,0,3.692,2.465Z" transform="translate(-10728.497 -12712.172)"/><path class="f" d="M4042.479,2368.854s5.7-5.364,6.634-.795c0,0,.529,2.705-2.663,2.412a9.953,9.953,0,0,1-4.222-1.372Z" transform="translate(-10782.761 -12749.065)"/><path class="f" d="M3955.862,2407.2s.818-9.335-4.173-6.827c0,0-2.937,1.509-.293,4.293a11.9,11.9,0,0,0,4.422,2.952Z" transform="translate(-10698.448 -12779.998)"/><path class="f" d="M4019.778,2445.212s6.017-7.184,7.777-1.883c0,0,1.011,3.143-2.826,3.245a11.922,11.922,0,0,1-5.216-1.036Z" transform="translate(-10761.93 -12817.991)"/><path class="f" d="M4009.878,2524.476s4.352-8.3,7.2-3.493c0,0,1.657,2.856-2.072,3.771a11.912,11.912,0,0,1-5.316.1Z" transform="translate(-10752.921 -12889.617)"/><path class="f" d="M3934.673,2504.74s-1.433-9.26-5.683-5.634c0,0-2.491,2.167.74,4.24a11.917,11.917,0,0,0,5,1.811Z" transform="translate(-10678.073 -12870.156)"/><path class="e" d="M1305.423,2619.694l.006,0c.163.049,3.64,1.177,6.745,6.455,2.378,4.045,4.923,11.257,5.019,23.649.016,2.094-.039,4.336-.175,6.736q-.045.8-.1,1.636l.493.088q.129-1.81.2-3.552.078-1.9.088-3.725a73.413,73.413,0,0,0-.977-13.01,36.1,36.1,0,0,0-4.147-12.127c-3.267-5.522-6.861-6.588-7.013-6.631l-.068.241-.006.023-.057.2Zm0,0,.025,0h0l.048-.218-.069.2Z" transform="translate(-8272.902 -12981.075)"/><path class="h" d="M1141.773,2474.317s1.557-2.882,4.361-2.416c0,0,2.156,1.928.256,5.532a5.979,5.979,0,0,1,5.156,2.119,5.532,5.532,0,0,1-4.258,3.9s1.6,3.583-.08,5.446a4.869,4.869,0,0,1-4.511-1.722s-1.243,3.624-4.164,3.907a5.034,5.034,0,0,1-2.029-4.724s-3.141.689-5.228-1.012c0,0,.392-3.463,2.4-4.433,0,0-2.861-1.595-2.578-4.592,0,0,2.42-1.651,4.432-.516,0,0,.064-4.357,3.175-5.874a4.394,4.394,0,0,1,3.073,4.382" transform="translate(-8113.024 -12844.18)"/><path class="e" d="M1209.832,2558.917a3.845,3.845,0,1,1-1.554-5.21,3.845,3.845,0,0,1,1.554,5.21" transform="translate(-8178.619 -12920.574)"/><path class="g" d="M1230.69,2580.6a1.794,1.794,0,1,1-.725-2.431,1.794,1.794,0,0,1,.725,2.431" transform="translate(-8201.281 -12943.236)"/><path class="f" d="M1417.674,2695.04s-.683-7.794,3.485-5.7c0,0,2.452,1.26.245,3.585a9.955,9.955,0,0,1-3.693,2.465Z" transform="translate(-8375.8 -13045.05)"/><path class="f" d="M1338.314,2731.854s-5.7-5.364-6.634-.795c0,0-.529,2.706,2.663,2.412a9.951,9.951,0,0,0,4.222-1.371Z" transform="translate(-8296.951 -13081.944)"/><path class="f" d="M1439.275,2770.2s-.818-9.335,4.174-6.827c0,0,2.936,1.509.293,4.293a11.927,11.927,0,0,1-4.422,2.953Z" transform="translate(-8395.601 -13112.876)"/><path class="f" d="M1347.27,2808.211s-6.017-7.185-7.778-1.883c0,0-1.011,3.143,2.826,3.246a11.922,11.922,0,0,0,5.215-1.035Z" transform="translate(-8304.034 -13150.869)"/><path class="f" d="M1361.673,2887.477s-4.352-8.3-7.2-3.493c0,0-1.656,2.856,2.071,3.772a11.918,11.918,0,0,0,5.316.1Z" transform="translate(-8317.547 -13222.495)"/><path class="f" d="M1449.018,2867.74s1.434-9.261,5.683-5.634c0,0,2.491,2.167-.74,4.239a11.918,11.918,0,0,1-5,1.812Z" transform="translate(-8404.527 -13203.035)"/><path class="i" d="M2008.05,2024.095c-1.439-2.327-2.838-4.658-5.191-5.963-2.32-1.287-5.118-1.3-7.773-1.559-2.158-.211-4.923-.667-6.456-2.349-.628-.689-.957-1.427-1.665-2.078-.67-.616-1.942-1.448-1.961-2.495-.36-1.615.962-3.152,2.374-4.052s3.065-1.534,4.091-2.856a4.54,4.54,0,0,0-1.846-6.735c-1.133-.43-2.566-.466-3.241-1.468-.909-1.348.373-3.145,1.746-4.06s3.083-1.758,3.436-3.36c.735-3.341-5.133-5.31-4.42-8.655.376-1.766,2.578-2.638,4.337-2.25a10.921,10.921,0,0,1,4.516,2.814,8.808,8.808,0,0,0,4.655,2.524c2.844.276,5.3-2.029,6.94-4.387.738-1.06,1.562-2.277,2.836-2.472a2.673,2.673,0,0,1,2.484,1.16,4.7,4.7,0,0,1,.756,2.733c.005,2.169-.886,4.236-1.606,6.294s-1.277,4.315-.6,6.369,3.023,3.665,5.041,2.824c1.2-.5,1.959-1.681,2.876-2.611s2.373-1.66,3.478-.995a3.172,3.172,0,0,1,1.138,2.742,15.71,15.71,0,0,1-3.921,10.749,35.437,35.437,0,0,0-2.982,3.327,4.717,4.717,0,0,0-.814,4.2c.551,1.451,2.081,2.323,2.73,3.732.768,1.664.139,3.622-.493,5.361-.68,1.867-2,4.168-1.87,6.155.1,1.459.028,3.042-1.976,3.218a4.658,4.658,0,0,1-3.51-1.624,22.559,22.559,0,0,1-3.1-4.228" transform="translate(-8896.103 -12390.014)"/><path class="c" d="M2079.643,2038.327a.4.4,0,0,0,.617-.408c-2.45-12.841-8.914-23.532-13.905-30.24a81.008,81.008,0,0,0-10.354-11.6.4.4,0,1,0-.527.6c.193.168,19.365,17.1,24,41.388a.4.4,0,0,0,.17.258" transform="translate(-8960.655 -12409.555)"/><path class="c" d="M2313.908,2214.272a.355.355,0,0,0,.05.029.4.4,0,0,0,.534-.187c2.486-5.158,6.013-15.045,6.048-15.144a.4.4,0,1,0-.755-.269c-.035.1-3.548,9.945-6.014,15.065a.4.4,0,0,0,.137.506" transform="translate(-9197.613 -12595.208)"/><path class="c" d="M2120.95,2394.982c1.856,1.246,11.625,7.43,17.518,3.742a.4.4,0,0,0,.127-.552.389.389,0,0,0-.537-.149c-5.942,3.72-16.8-3.866-16.911-3.941l-.007-.006a.425.425,0,0,0-.566.125.413.413,0,0,0,.09.569c.036.026.129.106.287.212" transform="translate(-9020.408 -12774.558)"/><path class="c" d="M2071.338,2191.564a.4.4,0,0,0,.263.066,25.264,25.264,0,0,1,14.238,3.606.4.4,0,1,0,.419-.683,25.608,25.608,0,0,0-14.739-3.722.4.4,0,0,0-.182.732" transform="translate(-8975.163 -12588.188)"/><path class="c" d="M2252.473,2049.975a.4.4,0,0,0,.622-.361c-.406-5.778,1.725-17.781,1.747-17.9a.4.4,0,0,0-.789-.141c-.088.5-2.171,12.221-1.757,18.1a.4.4,0,0,0,.177.305" transform="translate(-9141.224 -12441.889)"/><path class="j" d="M3984.48,2486.448c-.109.059-.22.119-.333.177,0,0-.041-.1-.118-.278-1.11-2.7-9.492-24.435,1.158-42.2.084-.143.169-.283.256-.423a35.918,35.918,0,0,1,5.089-6.428s2.755-2.947,8.674-4.286c.131-.031.265-.062.4-.088a29.982,29.982,0,0,1,10.034-.277c.075.008.155.018.233.03,0,0,.044.089.126.262a36.743,36.743,0,0,1,2.154,21.669c-.031.144-.061.291-.094.434-2.194,9.966-9.265,21.637-27.58,31.411" transform="translate(-10725.569 -12809.723)"/><path class="c" d="M4029.7,2489.933l-.193-.115-.194-.117.076-.161,25.613-53.7c.076.008.155.017.233.029,0,0,.044.09.126.262l-25.519,53.515Z" transform="translate(-10770.927 -12812.915)"/><path class="c" d="M4225.86,2700.156l-12.8-.063-.06-.435,12.954.064c-.029.144-.06.29-.093.435" transform="translate(-10939.372 -13054.839)"/><path class="c" d="M4053.57,2590.375l-.27.4-9.106-21.025c.083-.143.168-.283.255-.423Z" transform="translate(-10784.564 -12935.322)"/><path class="c" d="M4218.178,2451.019l-.392.109-4.676-11.869c.13-.031.264-.063.4-.089Z" transform="translate(-10939.469 -12815.967)"/><path class="j" d="M4083.966,2595.062c-.153-.03-.309-.059-.463-.093l.1-.363c1.065-3.495,10.2-31.222,34.624-39.99q.292-.109.584-.208a45,45,0,0,1,10.035-2.191s5.012-.669,11.813,2.731c.151.073.306.149.457.231a37.587,37.587,0,0,1,9.947,7.7c.065.067.135.14.2.213,0,0-.028.122-.086.354a46.024,46.024,0,0,1-15.112,22.714c-.144.117-.29.234-.436.347-10.038,7.919-26.157,13.62-51.669,8.557" transform="translate(-10820.675 -12919.591)"/><path class="c" d="M4082.546,2713.587l-.1-.265-.1-.269.2-.1,67.457-31.729c.068.067.137.14.2.212,0,0-.028.122-.086.354l-67.218,31.619Z" transform="translate(-10819.621 -13037.944)"/><path class="c" d="M4575.067,2847.791l-12.359-10.222.288-.47,12.508,10.344c-.144.117-.289.234-.436.348" transform="translate(-11260.105 -13180.875)"/><path class="c" d="M4407.8,2606.851l-.576.171,7.862-27.61c.195-.072.389-.141.583-.208Z" transform="translate(-11117.524 -12944.384)"/><path class="c" d="M4713.774,2601.136l-.467-.2,4.889-15.217c.151.073.306.149.457.231Z" transform="translate(-11398.206 -12950.353)"/><path class="j" d="M1540.659,2338.062c.153-.03.308-.06.464-.093l-.106-.363c-1.065-3.494-10.2-31.221-34.623-39.989-.195-.072-.389-.142-.584-.208a45.03,45.03,0,0,0-10.035-2.191s-5.011-.668-11.811,2.732c-.152.073-.306.149-.458.231a37.552,37.552,0,0,0-9.946,7.7c-.067.067-.136.14-.2.212,0,0,.029.122.086.355a46.033,46.033,0,0,0,15.113,22.714c.143.117.289.233.435.347,10.038,7.919,26.157,13.62,51.67,8.557" transform="translate(-8426.897 -12683.915)"/><path class="c" d="M1541.027,2456.587l.1-.265.095-.268-.2-.095-67.458-31.73c-.067.067-.136.14-.2.213,0,0,.029.122.086.354l67.218,31.618Z" transform="translate(-8426.897 -12802.27)"/><path class="c" d="M1656.921,2590.791l12.36-10.223-.287-.47-12.508,10.345c.143.116.289.233.435.347" transform="translate(-8594.878 -12945.201)"/><path class="c" d="M1872.249,2349.851l.577.171-7.862-27.609q-.291-.108-.583-.208Z" transform="translate(-8785.53 -12708.71)"/><path class="c" d="M1600.522,2344.136l.467-.205-4.888-15.217c-.151.073-.305.149-.457.231Z" transform="translate(-8539.035 -12714.678)"/><path class="j" d="M1130.923,2855.8c.13-.086.262-.173.393-.263l-.237-.3c-2.319-2.822-21.347-24.96-47.272-23.734q-.311.012-.619.031a44.97,44.97,0,0,0-10.112,1.808s-4.886,1.3-9.873,7.035c-.112.125-.226.254-.335.388a37.56,37.56,0,0,0-6.253,10.912c-.036.087-.072.182-.106.274,0,0,.073.1.215.294a46.03,46.03,0,0,0,22.643,15.221c.177.053.357.1.535.155,12.3,3.484,29.376,2.6,51.021-11.826" transform="translate(-8044.649 -13175.71)"/><path class="c" d="M1131.33,3079.258l-.013-.281-.014-.284-.223-.011-74.463-3.559c-.036.087-.072.182-.106.274,0,0,.073.1.215.294l74.2,3.548Z" transform="translate(-8044.65 -13399.154)"/><path class="c" d="M1332.452,3107.1l7.518-14.168-.445-.324-7.609,14.337c.177.053.357.105.535.155" transform="translate(-8297.198 -13415.187)"/><path class="c" d="M1395.776,2854.622l.6-.062-17.811-22.513q-.311.012-.619.031Z" transform="translate(-8339.405 -13176.243)"/><path class="c" d="M1143.442,2951.537l.353-.368-10.329-12.2c-.112.126-.225.255-.334.388Z" transform="translate(-8114.912 -13274.296)"/><path class="k" d="M1250.728,3050.376c0,11.87-78.737,21.492-175.864,21.492S899,3062.246,899,3050.376s78.737-21.492,175.864-21.492,175.864,9.622,175.864,21.492" transform="translate(-7900.212 -13356.754)"/><path class="l" d="M1527.961,2211.034v50.718c-6.98,9.317-19.249,13.059-30.77,15.457-1.452.3-4.408,1.04-4.474,1.04h-4.885c-4.191,0-8.432.192-12.616-.043-2.963-.166-5.829-1.28-8.8-1.173-4.527.163-9.163,1.877-13.594,2.771q-7.332,1.479-14.745,2.508-8.279,1.148-16.623,1.73c-13.29.927-27.5,1.476-40.72-.563-6.4-.987-12.969-1.324-19.46-1.846-6.616-.533-13.433-1.617-20.067-1.617a41.114,41.114,0,0,1-10.882-1.884,4.635,4.635,0,0,1-2.8-5.865,8.731,8.731,0,0,1,3.769-4.555c3.159-1.833,7-1.93,10.647-1.977,9.528-.124,18.9-.542,28.376.765a39.585,39.585,0,0,1-25.878-15.194c-3.349-4.441-5.549-11.17-1.729-15.21,2.568-2.713,6.761-2.949,10.491-2.7a70.07,70.07,0,0,1,30.3,9.238c-5.446-3.631-11.1-7.477-14.258-13.208s-2.886-13.932,2.378-17.823c5.574-4.118,13.547-1.654,19.464,1.956a61.793,61.793,0,0,1,23.48,26.1c-2.622-7.1-5.289-14.671-3.7-22.065s9.317-13.986,16.446-11.463c4.156,1.468,6.922,5.579,7.977,9.854.149.612.273,1.224.364,1.84a23.767,23.767,0,0,1,2.01-6.381c2.63-5.417,8.105-9.738,14.126-9.656,7.038.1,12.885,6.112,15.1,12.79s1.6,13.927.951,20.937c3.672-12.7,11.165-24.894,22.81-31.147a32.927,32.927,0,0,1,16.971-3.767l.649.037c7.179.488,13.956,3.37,18.579,8.862a13.359,13.359,0,0,1,1.108,1.539" transform="translate(-8292.934 -12597.177)"/><path class="l" d="M3892,2787.294v17.146a9.921,9.921,0,0,0,1.4,1.489,25.1,25.1,0,0,0,2.352,1.6,10.036,10.036,0,0,1,1.339,1.348,14.5,14.5,0,0,0,4.792,2.82,47.365,47.365,0,0,0,11.111,2.549,43.839,43.839,0,0,0,10.382.661c3.882-.371,7.622-1.773,11.515-2.01,8.316-.5,16.427,4.337,24.663,3.075a9.545,9.545,0,0,0,4.809-1.969,5.146,5.146,0,0,0,1.879-4.663c-.666-3.648-5.5-3.6-8.3-3.725a82.569,82.569,0,0,0-12.63.426,13.383,13.383,0,0,0,8.75-5.137c1.131-1.5,1.875-3.776.583-5.142a4.388,4.388,0,0,0-3.547-.914,23.687,23.687,0,0,0-10.244,3.123c1.841-1.227,3.752-2.527,4.82-4.465s.976-4.71-.8-6.025c-1.885-1.392-4.58-.56-6.581.661a20.89,20.89,0,0,0-7.937,8.823c.887-2.4,1.788-4.96,1.25-7.459s-3.15-4.728-5.559-3.875a4.6,4.6,0,0,0-2.7,3.332c-.05.207-.092.414-.122.622a8.06,8.06,0,0,0-.68-2.157,5.522,5.522,0,0,0-4.775-3.264c-2.379.034-4.356,2.066-5.106,4.324a17.4,17.4,0,0,0-.322,7.078c-1.241-4.292-3.774-8.416-7.711-10.529a11.133,11.133,0,0,0-5.737-1.274l-.219.013a8.866,8.866,0,0,0-6.286,3,2.6,2.6,0,0,0-.379.52" transform="translate(-10645.065 -13131.959)"/><path class="m" d="M2622.33,1332.248h-63.588a9.725,9.725,0,0,1-9.7-9.7V1170.4a9.725,9.725,0,0,1,9.7-9.695h63.588a9.724,9.724,0,0,1,9.7,9.695v152.155a9.725,9.725,0,0,1-9.7,9.7" transform="translate(-9413.442 -11643.587)"/><rect class="c" width="73.052" height="129.731" transform="translate(-6859.187 -10461.892)"/><path class="n" d="M2962.166,3061.867h-12.5a1.246,1.246,0,0,1-1.246-1.246v-3.854a1.246,1.246,0,0,1,1.246-1.246h12.5a1.246,1.246,0,0,1,1.245,1.246v3.854a1.246,1.246,0,0,1-1.245,1.246" transform="translate(-9779.666 -13381.174)"/><path class="n" d="M2962.905,1275.442h-14.372a.533.533,0,0,1-.533-.532v-.539a.533.533,0,0,1,.533-.533h14.372a.533.533,0,0,1,.533.533v.539a.533.533,0,0,1-.533.532" transform="translate(-9779.284 -11747.331)"/><path class="g" d="M3256.532,2688.326a3.754,3.754,0,0,0-2.816-1.016H3197.36a3.958,3.958,0,0,0-2.623,1.08,3.321,3.321,0,0,0-1.215,2.509v38.939a3.755,3.755,0,0,0,1.248,3.011,3.991,3.991,0,0,0,2.59.843h56.356a3.187,3.187,0,0,0,3.755-3.854V2690.9a3.593,3.593,0,0,0-.938-2.573" transform="translate(-10004.469 -13043.53)"/><path class="o" d="M3322.823,2728.7l-21.384,20.609c-1.871,1.8-3.25,2.718-4.142,2.718s-2.272-.927-4.141-2.728l-21.385-20.6Z" transform="translate(-10076.222 -13081.479)"/><path class="o" d="M3238.22,2807.585v-32.23l16.7,15.89Z" transform="translate(-10045.437 -13124.259)"/><path class="o" d="M3273.4,3021.361l16.772-16.181,2.74,2.594a8.7,8.7,0,0,0,11.759-.012l2.74-2.579,16.772,16.179Z" transform="translate(-10077.715 -13335.016)"/><path class="o" d="M3732.623,2807.585l-16.7-16.34,16.7-15.89Z" transform="translate(-10483.519 -13124.259)"/><path class="p" d="M3344.67,2848.8a23.584,23.584,0,0,0,.5,5.853l-4.405.009a1.1,1.1,0,0,1-.486-.073.74.74,0,0,1-.316-.716q-.1-4.9-.209-9.809a17.728,17.728,0,0,0,3.762.879,3.088,3.088,0,0,0,.827-.022c.254-.029.354,0,.409.237a7.735,7.735,0,0,1-.067,1.711c-.013.643-.012,1.287-.011,1.93" transform="translate(-10138.542 -13187.263)"/><path class="q" d="M3191.237,2896.657a.43.43,0,0,0-.682-.166c-.94.813-3.461,2.61-8.478,3.833a3.683,3.683,0,0,0-2.1,1.685l18.671-.14-.025-3.307a.425.425,0,0,0-.7-.317l-.714.625a1.92,1.92,0,0,1-1.232.475l-2.677.045a1.393,1.393,0,0,1-1.318-.878Z" transform="translate(-9992.02 -13235.241)"/><rect class="r" width="18.672" height="1.927" transform="translate(-6812.047 -10333.234) rotate(-0.432)"/><path class="p" d="M3766.744,2848.8a23.607,23.607,0,0,1-.5,5.853l4.405.009a1.1,1.1,0,0,0,.487-.073.74.74,0,0,0,.315-.716q.1-4.9.209-9.809a17.721,17.721,0,0,1-3.762.879,3.084,3.084,0,0,1-.826-.022c-.254-.029-.354,0-.409.237a7.75,7.75,0,0,0,.068,1.711c.013.643.012,1.287.011,1.93" transform="translate(-10529.666 -13187.263)"/><path class="q" d="M3773.724,2896.657a.431.431,0,0,1,.683-.166c.939.813,3.46,2.61,8.478,3.833a3.684,3.684,0,0,1,2.1,1.685l-18.671-.14.025-3.307a.425.425,0,0,1,.7-.317l.714.625a1.919,1.919,0,0,0,1.231.475l2.677.045a1.392,1.392,0,0,0,1.318-.878Z" transform="translate(-10529.738 -13235.241)"/><rect class="r" width="1.927" height="18.672" transform="translate(-6763.436 -10331.448) rotate(-89.568)"/><path class="p" d="M3335.029,2435.6l-2.668,9.136a1.82,1.82,0,0,0,1.414,2.3l7.688,1.432v-4.289l-1.989-.588a1.319,1.319,0,0,1-.882-1.671l1.712-5.286Z" transform="translate(-10131.698 -12812.689)"/><path class="p" d="M3711.96,2435.6l2.668,9.136a1.819,1.819,0,0,1-1.414,2.3l-7.687,1.432v-4.289l1.989-.588a1.318,1.318,0,0,0,.881-1.671l-1.711-5.286Z" transform="translate(-10473.984 -12812.689)"/><path class="s" d="M3304.646,2608.575a4.7,4.7,0,0,0-4.483,3.382c-.938,3.219-1.159,9.735,2.645,20.94h5.119l.563-12.444h28.41s.911,9.96,1.662,12.966l5.307,0s1.108-12.867,1.3-19.629a5.309,5.309,0,0,0-4.321-4.837s-34.052-.389-36.2-.372" transform="translate(-10101.725 -12971.316)"/><path class="t" d="M3531.424,2201.5h-1.8a2.434,2.434,0,0,1-2.427-2.427l-.624-2.809.713-1.988-.089-2.942a2.434,2.434,0,0,1,2.427-2.427h1.8a2.434,2.434,0,0,1,2.427,2.427l-.089,2.942,1.544,1.722-1.456,3.075a2.434,2.434,0,0,1-2.427,2.427" transform="translate(-10309.871 -12586.471)"/><path class="p" d="M3511.564,2043.854c0,4.973-2.779,9-6.209,9s-6.211-4.031-6.211-9,2.781-9,6.211-9,6.209,4.031,6.209,9" transform="translate(-10284.72 -12445.199)"/><path class="u" d="M3388.3,2267.3q-1.833-4.295-3.667-8.59a5,5,0,0,0-4.549-3.79l-6.025-1.326a5.137,5.137,0,0,1-1.765,6.3,2.593,2.593,0,0,1-2.939,0,5.128,5.128,0,0,1-1.773-6.3l-6.026,1.326a5,5,0,0,0-4.549,3.79l-3.667,8.59-.926,2.169a21.454,21.454,0,0,0,5.753,1.052,1.8,1.8,0,0,0,1.207-.175,1.736,1.736,0,0,0,.526-.782,1.629,1.629,0,0,1,.654-.9.6.6,0,0,1,.63.022c.266.2.234.549.188.851q-.172,1.124-.343,2.249c3.1-.084,6.667.125,9.772.041,3.108.085,6.7-.125,9.807-.041q-.171-1.124-.342-2.249c-.046-.3-.079-.654.188-.851a.6.6,0,0,1,.63-.022,1.632,1.632,0,0,1,.655.9,1.732,1.732,0,0,0,.526.782,1.8,1.8,0,0,0,1.207.175,21.451,21.451,0,0,0,5.753-1.052l-.926-2.169" transform="translate(-10150.174 -12645.795)"/><path class="v" d="M3428.791,2449.365h-29.03V2431.6a1.538,1.538,0,0,1,1.539-1.538h25.953a1.538,1.538,0,0,1,1.538,1.538Z" transform="translate(-10193.587 -12807.618)"/><path class="w" d="M3558.85,2528.969a1.573,1.573,0,1,1-1.572-1.572,1.573,1.573,0,0,1,1.572,1.572" transform="translate(-10336.584 -12896.871)"/><path class="w" d="M3418.333,2662.61h-29.9a.51.51,0,0,0-.508.508v.413a.51.51,0,0,0,.508.509h29.9a.511.511,0,0,0,.509-.509v-.413a.51.51,0,0,0-.509-.508" transform="translate(-10182.731 -13020.865)"/><path class="x" d="M3478.393,2024.131c-.049-.162-.1-.324-.161-.484a10.353,10.353,0,0,1-1.039-3.263,5.876,5.876,0,0,1,.9-2.847,6.635,6.635,0,0,0,.316-1.057,11.243,11.243,0,0,1,.652-1.459,1.51,1.51,0,0,1,.7-.79c.445-.172.933.088,1.41.109.837.038,1.521-.646,2.324-.884a3.685,3.685,0,0,1,2.137.155,14.8,14.8,0,0,0,2.078.634,16.265,16.265,0,0,1,2.313.269,2.853,2.853,0,0,1,1.9,2.2,33.982,33.982,0,0,1,.735,3.952,6.3,6.3,0,0,1-.723,3.532c-.211.363-.593.739-.988.6-.336-.117-.447-.525-.653-.814a1.774,1.774,0,0,0-1.113-.637c-.429-.088-.871-.088-1.3-.147a4.882,4.882,0,0,1-3.283-1.994,2.492,2.492,0,0,0-.542-.645.635.635,0,0,0-.782-.01,8.82,8.82,0,0,0-.866,1.175l-.92,1.257a3.094,3.094,0,0,1-.845.881,7.188,7.188,0,0,0-.981.5,1.663,1.663,0,0,0-.5,1.063c-.029.185.042.644-.184.5-.184-.121-.277-.674-.33-.871-.082-.309-.158-.617-.248-.922" transform="translate(-10264.589 -12425.486)"/><path class="m" d="M1762,1331.718a6.717,6.717,0,0,1,6.671-6.718H1809.1a6.722,6.722,0,0,1,6.678,6.718v25.1a6.535,6.535,0,0,1-6.5,6.529h-.415a2.255,2.255,0,0,0-2.259,2.342l.045,1.163.2,5.1a2.261,2.261,0,0,1-3.927,1.612l-6.169-6.738-2.6-2.767a2.255,2.255,0,0,0-1.649-.708H1768.64a6.681,6.681,0,0,1-6.634-6.176c-.013-.172-.01-.352-.01-.528Z" transform="translate(-8691.646 -11794.247)"/><path class="c" d="M2191.379,1525.334a3.9,3.9,0,1,0,3.9-3.9,3.9,3.9,0,0,0-3.9,3.9" transform="translate(-9085.409 -11974.375)"/><path class="c" d="M2038.938,1525.334a3.9,3.9,0,1,0,3.9-3.9,3.9,3.9,0,0,0-3.9,3.9" transform="translate(-8945.61 -11974.375)"/><path class="c" d="M1886.5,1525.334a3.9,3.9,0,1,0,3.9-3.9,3.9,3.9,0,0,0-3.9,3.9" transform="translate(-8805.814 -11974.375)"/><path class="n" d="M2684,1597.211a3.227,3.227,0,0,1,3.2-3.21H2737.4a3.233,3.233,0,0,1,3.2,3.21v11.943a3.131,3.131,0,0,1-3.12,3.106h-.2c-.61,0-1.1.268-1.075.878l.021.554.093,2.425a1.076,1.076,0,0,1-1.868.768l-2.936-3.206-1.238-1.081a1.075,1.075,0,0,0-.785-.337h-42.316a3.188,3.188,0,0,1-3.167-2.939c-.006-.082-.016-.167-.016-.251Z" transform="translate(-9537.195 -12040.929)"/><path class="i" d="M2745.17,1640.4h-19.51a.475.475,0,0,1-.474-.474v-.282a.475.475,0,0,1,.474-.474h19.51a.475.475,0,0,1,.474.474v.282a.475.475,0,0,1-.474.474" transform="translate(-9574.949 -12082.349)"/><path class="c" d="M2756.685,1689.079H2725.6a.412.412,0,0,1-.412-.412v-.4a.412.412,0,0,1,.412-.413h31.087a.413.413,0,0,1,.413.413v.4a.413.413,0,0,1-.413.412" transform="translate(-9574.953 -12126.989)"/><path class="i" d="M2756.685,1724.61H2725.6a.412.412,0,0,1-.412-.412v-.4a.412.412,0,0,1,.412-.412h31.087a.413.413,0,0,1,.413.412v.4a.413.413,0,0,1-.413.412" transform="translate(-9574.953 -12159.573)"/><path class="n" d="M2684,2364.211a3.227,3.227,0,0,1,3.2-3.211H2737.4a3.233,3.233,0,0,1,3.2,3.211v11.943a3.13,3.13,0,0,1-3.12,3.106h-.2c-.61,0-1.1.268-1.075.878l.021.554.093,2.426a1.076,1.076,0,0,1-1.868.767l-2.936-3.207-1.238-1.08a1.076,1.076,0,0,0-.785-.337h-42.316a3.188,3.188,0,0,1-3.167-2.938c-.006-.082-.016-.167-.016-.25Z" transform="translate(-9537.195 -12744.284)"/><path class="i" d="M2745.17,2407.4h-19.51a.475.475,0,0,1-.474-.474v-.282a.475.475,0,0,1,.474-.474h19.51a.475.475,0,0,1,.474.474v.282a.475.475,0,0,1-.474.474" transform="translate(-9574.949 -12785.703)"/><path class="c" d="M2756.685,2456.078H2725.6a.412.412,0,0,1-.412-.412v-.4a.413.413,0,0,1,.412-.413h31.087a.413.413,0,0,1,.413.413v.4a.413.413,0,0,1-.413.412" transform="translate(-9574.953 -12830.343)"/><path class="c" d="M2756.685,2491.61H2725.6a.413.413,0,0,1-.412-.413v-.4a.412.412,0,0,1,.412-.412h31.087a.413.413,0,0,1,.413.412v.4a.413.413,0,0,1-.413.413" transform="translate(-9574.953 -12862.927)"/><path class="n" d="M2792.6,1981.169a3.2,3.2,0,0,0-3.2-3.169H2739.2a3.191,3.191,0,0,0-3.2,3.169v11.943a3.089,3.089,0,0,0,3.112,3.064h.2c.61,0,1.1.289,1.074.9l-.021.564-.093,2.431a1.076,1.076,0,0,0,1.868.77l2.936-3.205,1.238-1.1a1.094,1.094,0,0,1,.784-.357h42.317a3.174,3.174,0,0,0,3.171-2.918c.006-.082.019-.146.019-.229Z" transform="translate(-9584.882 -12393.066)"/><path class="i" d="M3130.71,2023.9h19.511a.475.475,0,0,0,.474-.474v-.281a.476.476,0,0,0-.474-.474H3130.71a.476.476,0,0,0-.474.474v.281a.475.475,0,0,0,.474.474" transform="translate(-9946.409 -12434.025)"/><path class="c" d="M2992.649,2072.578h31.087a.413.413,0,0,0,.413-.413v-.4a.412.412,0,0,0-.413-.412h-31.087a.412.412,0,0,0-.413.412v.4a.413.413,0,0,0,.413.413" transform="translate(-9819.859 -12478.666)"/><path class="i" d="M2992.649,2108.109h31.087a.413.413,0,0,0,.413-.413v-.4a.413.413,0,0,0-.413-.413h-31.087a.413.413,0,0,0-.413.413v.4a.413.413,0,0,0,.413.413" transform="translate(-9819.859 -12511.248)"/><path class="b" d="M2689.039,2586.918a36.9,36.9,0,0,1,.159,3.805,33.919,33.919,0,0,1-.557,4.483q-.475,3.075-.951,6.152a15.063,15.063,0,0,1-1.483,5.254c-2.411,1.483-4.947,3.01-7.772,3.2-.288.02-.576.025-.864.019a22.485,22.485,0,0,1-3.147-.361l-5.011-.816a8.417,8.417,0,0,0,.769-3.854c2.8.177,5.55.2,8.354.19a3.533,3.533,0,0,0,1.833-.343,3.083,3.083,0,0,0,1.194-2.027c.957-4.066-.478-8.507.949-12.434,1.38-3.793.032-7.606.012-11.641.377.2.727.477,1.114.638a9.123,9.123,0,0,1,1.284.721,7.615,7.615,0,0,1,2.122,1.965,11.036,11.036,0,0,1,1.836,4.235q.089.4.158.811" transform="translate(-9523.803 -12943.782)"/><path class="t" d="M2129.135,3113.583a26.849,26.849,0,0,0,.431,6.684l-5.023-.09a1.263,1.263,0,0,1-.552-.094.845.845,0,0,1-.343-.824q-.007-5.594-.012-11.187a20.272,20.272,0,0,0,4.269,1.089,3.5,3.5,0,0,0,.943-.006c.29-.027.4.011.46.28a8.776,8.776,0,0,1-.117,1.949c-.029.733-.043,1.466-.057,2.2" transform="translate(-9023.283 -13429.368)"/><path class="q" d="M1951.67,3167.372a.492.492,0,0,0-.774-.2c-1.09.906-4.005,2.9-9.753,4.175a4.2,4.2,0,0,0-2.438,1.872l21.29.271.048-3.771a.485.485,0,0,0-.8-.378l-.829.7a2.188,2.188,0,0,1-1.415.513l-3.052-.01a1.589,1.589,0,0,1-1.483-1.033Z" transform="translate(-8853.692 -13483.455)"/><rect class="r" width="2.197" height="21.292" transform="translate(-6915.016 -10308.044) rotate(-89.274)"/><path class="t" d="M2697.9,2492.273c.61.536.472,1.8.527,2.532a28.8,28.8,0,0,0,1.5,7.234,76.7,76.7,0,0,1-11-.971.318.318,0,0,1-.281-.52l1.5-3.764a11.745,11.745,0,0,0,.6-1.792c.112-.507.156-1.027.28-1.531a17.02,17.02,0,0,0,.528-1.932,8.285,8.285,0,0,0-.064-1.387l3.69,1.2c.8.259,1.635.466,2.421.754a.947.947,0,0,1,.3.178" transform="translate(-9541.382 -12862.71)"/><path class="p" d="M2660.718,2375.379q.1-1.411.08-2.828c-.013-.743-.1-1.491-.177-2.24a11.2,11.2,0,0,1-.194-2.191l.034.061a8.013,8.013,0,0,1,.172-1.878,5.119,5.119,0,0,1,2.747-3.734c3-1.3,7.014,1.306,8.963,5.814s1.094,9.215-1.908,10.512c-2.128.92-4.764-.122-6.813-2.413a8.971,8.971,0,0,1-2.171-.09.951.951,0,0,1-.641-.346,1.077,1.077,0,0,1-.092-.667" transform="translate(-9515.559 -12745.417)"/><path class="y" d="M2600.315,2321.192a3.041,3.041,0,0,1-2.215-2.042,2.291,2.291,0,0,1,1.173-2.649c.731-.317,1.63-.182,2.288-.632a3.707,3.707,0,0,0,.892-1.091,7.94,7.94,0,0,1,13.146-.112,10.675,10.675,0,0,1,1.661,6.2,31.794,31.794,0,0,1-.962,6.434l-3.694-6.033a2.9,2.9,0,0,0-1.013-1.137,1,1,0,0,0-1.346.307,1.8,1.8,0,0,0-.033.979.937.937,0,0,1-.277.9c-.31.206-.723.034-1.039-.159a9.138,9.138,0,0,1-1.818-1.49,3.437,3.437,0,0,0-1.181-.985c-.536-.187-.944.1-1.367.4a6.775,6.775,0,0,1-1.937,1.008,4.285,4.285,0,0,1-2.277.1" transform="translate(-9458.333 -12698.651)"/><path class="b" d="M2533.191,2564.729c-.285-.621-3.151-2.293-3.557-2.4a1.249,1.249,0,0,0-.42-.062,1.38,1.38,0,0,0-.72.411,6.876,6.876,0,0,1-4.334,1.633,3.942,3.942,0,0,1-2.446-.628,2.008,2.008,0,0,1-.778-2.258,20.454,20.454,0,0,0-5.552,1.83,4.854,4.854,0,0,0-1.54,1.07,5.423,5.423,0,0,0-.911,1.813c-.24.677-.525,1.332-.766,2.008l-1.706,4.8a20.805,20.805,0,0,1-2.19,4.815c-2.61,5.87-3.269,7.881-3.008,8.02a1.459,1.459,0,0,0,.677.115c1.841.015.723,1.878,1.252,2.712-.064.081-.131.161-.2.241-.3.359-3.223,2.412-3.223,2.412s2.009,1,2.515,1.217c4.374,1.922,10.746,2.757,15.12,4.679-.5-1.91-1.731-4.043-2.231-5.953a3.87,3.87,0,0,1-.051-2.666c.39-.792,4.778-.9,5.527-1.364,2.118-1.322-.085-3.806.811-6.136.525-1.366,2.362-.487,3.39-1.529s1.343-2.186,2.36-3.239c.373-.386.649-2.641.865-3.132a9.517,9.517,0,0,0,.4-1.561c.252-1.01.783-1.932,1.048-2.938a5.877,5.877,0,0,0-.337-3.9" transform="translate(-9371.903 -12928.079)"/><path class="z" d="M2513.181,2662.385a6.616,6.616,0,0,1-.969,2.138,5.187,5.187,0,0,0-.793,1.476,9.258,9.258,0,0,1-.545,1.563,41.656,41.656,0,0,1-3.465,7.235.583.583,0,0,1-.052-.591,1.968,1.968,0,0,0,.183-.593c0-.208-.154-.442-.361-.414-.132.018-.228.133-.348.193a.662.662,0,0,1-.745-.23c-.185-.21-.29-.477-.455-.7a1.659,1.659,0,0,0-1.673-.623,2.068,2.068,0,0,0,.144,1.975,11.755,11.755,0,0,1,.913,2.6,1.643,1.643,0,0,0,.679,1.007c.407.2.892.035,1.345.056.577.028,1.166.365,1.7.149a1.8,1.8,0,0,0,.823-1c.138-.292.276-.584.411-.876a27.673,27.673,0,0,0,1.09-2.633,8.288,8.288,0,0,0,.622-2.7c-.007-.3-.117-.563-.1-.863a11.332,11.332,0,0,1,.2-1.437,18.094,18.094,0,0,1,.723-2.755,7.3,7.3,0,0,0,.675-2.982" transform="translate(-9371.896 -13020.662)"/><path class="z" d="M2624.275,2732.077a6.048,6.048,0,0,0,2.072-.564c1.195-.72,1.566-2.3,1.78-3.574a24.713,24.713,0,0,0,.326-5,11.106,11.106,0,0,1,1.361,2.163,33.251,33.251,0,0,0-.122-5.1l1.58,2.687a.3.3,0,0,0,.108.122c.114.058.24-.048.326-.144a12.469,12.469,0,0,1,2.745-2.3,16.333,16.333,0,0,1-.336,2.942,11.464,11.464,0,0,0-.021,2.343,41.654,41.654,0,0,1-.491,5.886q-.09.6-.193,1.2a4.467,4.467,0,0,1-.985,1.689,2.316,2.316,0,0,1-1.646.528c-1.447.042-2.891-.157-4.337-.155a7.519,7.519,0,0,0-4.155,1.021l5.563,2.109c.568.215,2.406-.542,2.482.06.09.706-1.936,2.4-2.452,2.887-.944.9-3.308,2.893-3.308,2.893a19.978,19.978,0,0,0-2.391-1.5c-1.24-.318-2.015-.615-3.325-1.039a18.565,18.565,0,0,1-2.065-.891c-.476-.237-.055-1.37.1-1.825a9.934,9.934,0,0,1,3.984-5.07,9.4,9.4,0,0,1,3.4-1.379" transform="translate(-9475.34 -13073.507)"/><path class="x" d="M2135.567,2830.61a11.684,11.684,0,0,1-6.767,2.8,16.731,16.731,0,0,1-6.337-.655c-4.431-1.33-8.259-4.113-11.99-6.847l-7-5.125c.284,7.111-2.993,13.823-6.189,20.183-.06.12-.124.244-.193.364a1.822,1.822,0,0,1-1.065.978c-.463.112-.909-.174-1.375-.276a40.149,40.149,0,0,1-8.679-2.472,86.068,86.068,0,0,0,4.783-8.73,123.59,123.59,0,0,1,6.065-15.145,7.74,7.74,0,0,1,3.077-3.758c1.869-.935,4.109-.3,6.086.376,6.97,2.39,19.846,7.711,19.846,7.711,2.814,1.758,12.256,4.948,12.453,6.418.175,1.3-1.74,3.305-2.719,4.183" transform="translate(-8988.759 -13157.359)"/><path class="w" d="M2565.3,2890.167l-13.888,1.6-1.833-6.7,7.337-.224Z" transform="translate(-9413.908 -13224.661)"/><path class="p" d="M2532.825,2892.025a3.548,3.548,0,0,0-1.292.132c-.527.19-.947.621-1.485.773-.313.088-.706.112-.771.506a.656.656,0,0,0,.043.344c.134.342.271.787.627.948a1.265,1.265,0,0,0,.734.021q1.482-.262,2.937-.65a.428.428,0,0,1,.463.157c.181.263-.089.526-.348.615a.7.7,0,0,0-.24.279.612.612,0,0,0,.6.928,31.385,31.385,0,0,1,9.54.161l.792-2.952c.037-.137.22-.542.12-.649s-.587-.058-.722-.068q-.743-.058-1.487-.109-3.038-.211-6.082-.33-1.716-.068-3.433-.105" transform="translate(-9395.281 -13231.239)"/><path class="z" d="M2778.768,2779.268q-.475,3.076-.951,6.152a15.045,15.045,0,0,1-1.482,5.254c-2.411,1.484-4.947,3.01-7.772,3.2-.288.02-.576.025-.864.019a8.407,8.407,0,0,1,1.937-1.26c1.742-.876,3.652-1.688,4.73-3.311.87-1.31,1.053-2.941,1.5-4.449a15.121,15.121,0,0,1,1.14-2.752,24.462,24.462,0,0,1,1.4-2.3,4.233,4.233,0,0,1,.366-.554" transform="translate(-9613.935 -13127.844)"/><path class="t" d="M2176.142,2731.669a26.922,26.922,0,0,0-5.551,3.748l-2.458-4.381a1.252,1.252,0,0,1-.2-.523c-.018-.348.275-.559.537-.713l9.651-5.66a20.2,20.2,0,0,0,1.216,4.235,3.517,3.517,0,0,0,.482.811c.169.237.194.354-.01.538a8.784,8.784,0,0,1-1.741.884c-.648.344-1.288.7-1.928,1.061" transform="translate(-9063.909 -13077.289)"/><path class="aa" d="M2250.027,2688.91s-5.589-2.537-11.787-4.928l-2.382-7.194a14.346,14.346,0,0,1-8.1,3.419,7.829,7.829,0,0,0-5.513-6.25,50.851,50.851,0,0,1,12.255-4.979,6.866,6.866,0,0,1,3.61-.234,6.742,6.742,0,0,1,3.025,2.3,52.992,52.992,0,0,1,8.371,13.965c.69,1.62.9,4.137.52,3.9" transform="translate(-9113.722 -13026.346)"/><path class="q" d="M2098.5,2644.624a.49.49,0,0,0-.214-.771c-1.332-.484-4.521-2-8.528-6.311a4.2,4.2,0,0,0-2.847-1.159l10.519,18.512,3.279-1.864a.485.485,0,0,0-.076-.878l-1.019-.364a2.194,2.194,0,0,1-1.157-.963l-1.532-2.64a1.587,1.587,0,0,1,.142-1.8Z" transform="translate(-8989.608 -12996.816)"/><rect class="r" width="2.197" height="21.292" transform="matrix(0.869, -0.494, 0.494, 0.869, -6904.604, -10359.349)"/><path class="v" d="M2417.161,2704.278l2.678,14.306,10.145,7.6-1.971-15.234Z" transform="translate(-9292.469 -13059.078)"/><path class="w" d="M2486.456,2826.6c.216.594.212,1.142-.011,1.223s-.577-.336-.793-.93-.212-1.142.01-1.223.577.335.794.93" transform="translate(-9355.128 -13170.381)"/><g class="ab" transform="translate(-6891.668 -10339.244)"><g class="ac"><path class="ad" d="M2251.643,2907.042a16.717,16.717,0,0,1-6.336-.656c-4.432-1.329-8.259-4.112-11.99-6.846l-7-5.125c.284,7.111-2.992,13.823-6.188,20.182-.061.12-.125.244-.193.364.23-1.225.355-2.47.629-3.687.614-2.724,1.973-5.208,3.084-7.77a10.659,10.659,0,0,0,1.144-4.775,4.3,4.3,0,0,0-2.594-3.885,4.167,4.167,0,0,0,4.035-3.092,6.839,6.839,0,0,0,6.608,4.271,3.789,3.789,0,0,0,1.215,2.88,11.232,11.232,0,0,0,2.658,1.806l5.032,2.756a24.3,24.3,0,0,0,4.027,1.893c1.531.5,3.146.693,4.7,1.128a3.634,3.634,0,0,1,1.171.557" transform="translate(-2219.938 -2891.752)"/></g></g></g></svg>