<svg xmlns="http://www.w3.org/2000/svg" xmlns:xlink="http://www.w3.org/1999/xlink" width="176.64" height="117.826" viewBox="0 0 176.64 117.826"><defs><style>.a{fill:url(#a);}.b{fill:url(#b);}</style><linearGradient id="a" x1="0.33" y1="0.261" x2="0.991" y2="1.063" gradientUnits="objectBoundingBox"><stop offset="0" stop-color="#6966e9"/><stop offset="1" stop-color="#69b1e3"/></linearGradient><linearGradient id="b" x1="0.5" y1="-1.103" x2="1.498" y2="1" xlink:href="#a"/></defs><g transform="translate(-252.904 -25.398)"><path class="a" d="M8.992-22.816A11.035,11.035,0,0,1,16-20.64a10.291,10.291,0,0,1,3.68,5.92H14.944a6.2,6.2,0,0,0-2.288-2.88,6.467,6.467,0,0,0-3.728-1.056,5.993,5.993,0,0,0-3.232.9,5.98,5.98,0,0,0-2.24,2.56,8.92,8.92,0,0,0-.8,3.9,8.841,8.841,0,0,0,.8,3.872A5.98,5.98,0,0,0,5.7-4.864a5.993,5.993,0,0,0,3.232.9,6.467,6.467,0,0,0,3.728-1.056A6.2,6.2,0,0,0,14.944-7.9H19.68A10.291,10.291,0,0,1,16-1.984,11.035,11.035,0,0,1,8.992.192,11.071,11.071,0,0,1,3.28-1.264,9.914,9.914,0,0,1-.56-5.344,12.744,12.744,0,0,1-1.92-11.3,12.815,12.815,0,0,1-.56-17.28a9.946,9.946,0,0,1,3.824-4.08A11.048,11.048,0,0,1,8.992-22.816Zm34.4.224V0H38.848V-9.824H29.184V0H24.672V-22.592h4.512v9.152h9.664v-9.152ZM62.848-4.544H53.792L52.192,0H47.424l8.32-22.336H60.9L69.184,0H64.416ZM61.632-7.968,58.3-17.5,54.976-7.968ZM88.576-22.592v3.584h-6.24V0H77.824V-19.008H71.616v-3.584Zm23.968,11.264a12.086,12.086,0,0,1-1.408,5.92,9.8,9.8,0,0,1-4.08,3.984A13.327,13.327,0,0,1,100.7,0H92.672V-22.592H100.7a13.58,13.58,0,0,1,6.352,1.392,9.628,9.628,0,0,1,4.08,3.936A12.062,12.062,0,0,1,112.544-11.328Zm-12.224,7.3a7.827,7.827,0,0,0,5.648-1.92,7.1,7.1,0,0,0,2-5.376,7.144,7.144,0,0,0-2-5.408,7.827,7.827,0,0,0-5.648-1.92H97.184V-4.032Zm21.728-14.976v5.856h8V-9.7h-8v6.08h8.96V0H117.536V-22.592h13.472v3.584ZM151.456-6.176a6.126,6.126,0,0,1-.864,3.184,6.206,6.206,0,0,1-2.56,2.336,8.876,8.876,0,0,1-4.128.88,10.712,10.712,0,0,1-4.288-.816,7.25,7.25,0,0,1-3.024-2.352,6.785,6.785,0,0,1-1.3-3.584h4.8a3.668,3.668,0,0,0,1.1,2.288,3.462,3.462,0,0,0,2.512.912,2.923,2.923,0,0,0,2.16-.752,2.62,2.62,0,0,0,.752-1.936,2.536,2.536,0,0,0-.608-1.744,4.437,4.437,0,0,0-1.536-1.1q-.928-.416-2.56-.96a25.306,25.306,0,0,1-3.456-1.392,6.388,6.388,0,0,1-2.288-2,5.73,5.73,0,0,1-.944-3.424,5.567,5.567,0,0,1,2.1-4.592,8.615,8.615,0,0,1,5.552-1.68,8.793,8.793,0,0,1,5.712,1.728,6.522,6.522,0,0,1,2.416,4.608h-4.864a3.388,3.388,0,0,0-1.024-2,3.179,3.179,0,0,0-2.272-.784,3,3,0,0,0-2.016.656,2.366,2.366,0,0,0-.768,1.9,2.367,2.367,0,0,0,.592,1.648,4.518,4.518,0,0,0,1.5,1.072,24.686,24.686,0,0,0,2.48.928,32.972,32.972,0,0,1,3.536,1.44A6.231,6.231,0,0,1,150.5-9.7,5.924,5.924,0,0,1,151.456-6.176Zm13.7-5.312L174.72,0h-5.472L160.9-10.336V0h-4.512V-22.592H160.9v10.144l8.384-10.144h5.44Z" transform="translate(254.824 143)"/><g transform="translate(304 25.398)"><circle class="b" cx="2.412" cy="2.412" r="2.412" transform="translate(26.336 35.369)"/><circle class="b" cx="2.412" cy="2.412" r="2.412" transform="translate(36.211 35.369)"/><circle class="b" cx="2.412" cy="2.412" r="2.412" transform="translate(46.087 35.369)"/><path class="b" d="M169.662,73.953a39.122,39.122,0,0,1-18.991-4.926l-14.1,4a1.72,1.72,0,0,1-1.593-.361,1.575,1.575,0,0,1-.507-1.506l3.006-14.232a35.917,35.917,0,0,1-6.05-19.957C131.43,16.587,148.581,0,169.662,0a37.988,37.988,0,0,1,35.607,23.581,1.563,1.563,0,0,1-.026,1.231,1.641,1.641,0,0,1-.922.851l-13.588,5.111a1.688,1.688,0,0,1-2.151-.915,20.18,20.18,0,0,0-18.92-12.535c-11.2,0-20.317,8.815-20.317,19.649s9.116,19.648,20.317,19.648a20.971,20.971,0,0,0,4.652-.518,1.7,1.7,0,0,1,1.142.137l7.074,3.54c-.857-6.906-.364-7.418.117-7.914,1.441-1.491,4.913-5.233,5.935-7.779a1.688,1.688,0,0,1,2.151-.915l13.588,5.11a1.641,1.641,0,0,1,.922.851,1.549,1.549,0,0,1,.026,1.228A37.981,37.981,0,0,1,169.662,73.953Zm-18.768-8.272a1.687,1.687,0,0,1,.853.229,35.737,35.737,0,0,0,17.915,4.825,34.732,34.732,0,0,0,31.87-20.052L190.961,46.71a41.129,41.129,0,0,1-5.584,7.039,75.74,75.74,0,0,0,.853,8.654,1.573,1.573,0,0,1-.689,1.532,1.688,1.688,0,0,1-1.723.115l-9.355-4.686a24.4,24.4,0,0,1-4.8.473c-13.037,0-23.642-10.257-23.642-22.862s10.6-22.866,23.642-22.866a23.537,23.537,0,0,1,21.361,13.1l10.51-3.953A34.733,34.733,0,0,0,169.662,3.215c-19.248,0-34.908,15.145-34.908,33.761a32.8,32.8,0,0,0,5.875,18.733,1.57,1.57,0,0,1,.246,1.218l-2.591,12.268,12.14-3.447A1.7,1.7,0,0,1,150.894,65.682Z" transform="translate(-131.43)"/></g></g></svg>