<svg xmlns="http://www.w3.org/2000/svg" xmlns:xlink="http://www.w3.org/1999/xlink" width="24" height="24" viewBox="0 0 24 24"><defs><style>.a{fill:#fff;}.b{fill:none;}.c{clip-path:url(#a);}</style><clipPath id="a"><rect class="a" width="20.554" height="20.447"/></clipPath></defs><g transform="translate(5284 14489)"><rect class="b" width="24" height="24" transform="translate(-5284 -14489)"/><g transform="translate(-5282.909 -14486.817)"><path class="a" d="M38.433,426.29a2.037,2.037,0,0,1-2.494,0l-1.769-1.37-6.45,7.1H46.651l-6.45-7.1Zm0,0" transform="translate(-26.822 -411.293)"/><path class="a" d="M.48,252.45v11.918l6.414-7Zm0,0" transform="translate(-0.48 -244.507)"/><path class="a" d="M446.464,264.368V252.45l-6.414,4.922Zm0,0" transform="translate(-425.737 -244.507)"/><g transform="translate(0.084 0)"><g class="c"><path class="a" d="M165.392,233.61H154.75v2.911l4.826,3.684a.818.818,0,0,0,.99,0l4.826-3.684V233.61Zm-3.967,4.819h-2.71a.615.615,0,1,1,0-1.23h2.71a.615.615,0,1,1,0,1.23Zm1.082-2.366h-4.874a.615.615,0,1,1,0-1.23h4.874a.615.615,0,1,1,0,1.23Zm0,0" transform="translate(-149.792 -226.11)"/></g><g class="c"><path class="a" d="M22.364,7.931a.617.617,0,0,1,.618-.615H34.861a.617.617,0,0,1,.618.615v2.581l3.195-2.438L29.292,1.1a.621.621,0,0,0-.74,0L19.17,8.074l3.194,2.438Zm0,0" transform="translate(-18.643 -1.046)"/></g></g></g></g></svg>