<svg xmlns="http://www.w3.org/2000/svg" width="24" height="24" viewBox="0 0 24 24">
  <g id="Group_21137" data-name="Group 21137" transform="translate(7070 14118)">
    <rect id="Rectangle_15182" data-name="Rectangle 15182" width="24" height="24" transform="translate(-7070 -14118)" fill="none"/>
    <path id="Menu" d="M17.619,20A2.381,2.381,0,1,1,20,17.62,2.383,2.383,0,0,1,17.619,20ZM10,20a2.381,2.381,0,1,1,2.381-2.38A2.383,2.383,0,0,1,10,20ZM2.38,20a2.381,2.381,0,1,1,2.382-2.38A2.383,2.383,0,0,1,2.38,20Zm15.239-7.619A2.381,2.381,0,1,1,20,10,2.383,2.383,0,0,1,17.619,12.381Zm-7.619,0A2.381,2.381,0,1,1,12.381,10,2.383,2.383,0,0,1,10,12.381Zm-7.619,0A2.381,2.381,0,1,1,4.762,10,2.383,2.383,0,0,1,2.38,12.381ZM17.619,4.762A2.381,2.381,0,1,1,20,2.381,2.383,2.383,0,0,1,17.619,4.762ZM10,4.762a2.381,2.381,0,1,1,2.381-2.381A2.383,2.383,0,0,1,10,4.762Zm-7.619,0A2.381,2.381,0,1,1,4.762,2.381,2.383,2.383,0,0,1,2.38,4.762Z" transform="translate(-7068 -14116)" fill="#696de9"/>
  </g>
</svg>
