<svg xmlns="http://www.w3.org/2000/svg" xmlns:xlink="http://www.w3.org/1999/xlink" width="327.695" height="289.253" viewBox="0 0 327.695 289.253"><defs><style>.a,.e{fill:#ebebeb;}.a{clip-rule:evenodd;}.b,.c,.d,.f,.h,.i,.j,.k,.l{fill:none;stroke-miterlimit:10;}.b,.c,.k{stroke:#ececec;}.b,.c{stroke-width:4px;}.b{stroke-dasharray:5 10;}.c{stroke-dasharray:6;}.d,.f,.h,.i,.j,.l{stroke:#ebebeb;}.d,.f,.h,.i,.j,.k,.l{stroke-width:1.165px;}.d{stroke-dasharray:2.365 2.365;}.f{stroke-dasharray:2.365 2.365;}.g{fill:#eaeaea;}.h{stroke-dasharray:2.365 2.365;}.i{stroke-dasharray:2.365 2.365;}.j,.k{stroke-dasharray:2.365 2.365;}.l{stroke-dasharray:2.365 2.365;}.m{fill:#ededed;}.n{fill:#ececec;}.o{clip-path:url(#a);}.p{clip-path:url(#b);}</style><clipPath id="a"><path class="a" d="M379.914,754.147a23.65,23.65,0,0,1,5.85,15.249c0,16.011-17.526,28.989-39.147,28.989q-2.282,0-4.5-.192l-13.395,12.233-1.666-15.914C315.35,789.5,307.47,780.13,307.47,769.4a23.649,23.649,0,0,1,5.85-15.249V754.1c0-16.01,14.908-28.989,33.3-28.989s33.3,12.979,33.3,28.989v.045Zm-33.3-24.412c-15.458,0-27.989,10.909-27.989,24.367s12.531,24.367,27.989,24.367c.576,0,1.148-.017,1.716-.047l9.838,9.292L359.5,775.74c8.976-4.058,15.108-12.224,15.108-21.638C374.605,740.644,362.075,729.735,346.617,729.735Z" transform="translate(-307.47 -725.113)"/></clipPath><clipPath id="b"><path class="a" d="M355.361,866.173a52.556,52.556,0,0,1-8.394.67c-1.521,0-3.021-.067-4.5-.192l-3.228,2.949a32.627,32.627,0,0,1-11.409-2.584l-.424-4.046c-9.523-4.075-16.512-11.035-18.79-19.266a32.914,32.914,0,0,1-.721-6.861c0-.335.007-.668.017-1a24.069,24.069,0,0,1,5.757-13.238v-.044a25.5,25.5,0,0,1,.495-5,32.966,32.966,0,0,1,9.866-8.968,22.167,22.167,0,0,0-5.052,13.966c0,13.458,12.531,24.367,27.989,24.367.576,0,1.148-.017,1.715-.047l9.839,9.292,1.326-11.974a26.01,26.01,0,0,0,13.186-12.749,32.819,32.819,0,0,1-17.673,34.724Z" transform="translate(-307.897 -808.595)"/></clipPath></defs><g transform="translate(5734.983 14884.064)"><circle class="b" cx="123.665" cy="123.665" r="123.665" transform="translate(-5705.685 -14631.959) rotate(-84.567)"/><circle class="c" cx="76.532" cy="76.532" r="76.532" transform="matrix(0.912, -0.411, 0.411, 0.912, -5672.143, -14781.68)"/><g transform="translate(-5440.791 -14750.628)"><g transform="translate(0 0)"><path class="d" d="M406.186,220.079a16.46,16.46,0,1,1-16.46-16.459A16.459,16.459,0,0,1,406.186,220.079Z" transform="translate(-373.267 -203.62)"/></g><g transform="translate(2.209 8.366)"><g transform="translate(6.304)"><path class="e" d="M399.067,227.877a2.241,2.241,0,0,0-1.741-1.46l-3.034-.87-.019.033-1.037-.964,0,0v-.758a2.563,2.563,0,0,0,1.258-1.473c.028-.113.057-.22.083-.324h0s.095-.338.2-.8c.689.1.713-1.618.713-1.618a.333.333,0,0,0-.381-.228c0-.049,0-.1,0-.141,0,0,1.319-5.5-3.676-5.323,0,0-1.818.262-1.994,1.27a1.421,1.421,0,0,0-1,1.074,14.913,14.913,0,0,0-.111,3.14.352.352,0,0,0-.474.208s.076,1.726.776,1.617c.055.2.114.394.186.584.043.166.087.344.138.538a2.553,2.553,0,0,0,1.259,1.473v.708l-.008,0-1.176,1.094-2.9.758a2.242,2.242,0,0,0-1.744,1.46l-.607,2.262h15.893Z" transform="translate(-383.783 -213.954)"/></g><g transform="translate(0 1.733)"><path class="e" d="M384.6,226.6l2.259-.589c-.074-.019-.122-.027-.122-.027l-2.405-.691-.015.027-.824-.765,0,0v-.6a2.031,2.031,0,0,0,1-1.169c.022-.09.044-.175.065-.257h0s.074-.27.161-.631c.549.078.566-1.284.566-1.284a.262.262,0,0,0-.3-.181c0-.04,0-.077,0-.111,0,0,1.047-4.364-2.914-4.224,0,0-1.444.208-1.584,1.008a1.127,1.127,0,0,0-.793.852,11.755,11.755,0,0,0-.085,2.492.278.278,0,0,0-.378.164s.058,1.368.614,1.283c.045.156.092.311.149.461.033.133.07.274.108.427a2.03,2.03,0,0,0,1,1.169v.562l-.006,0-.933.868-2.3.6a1.774,1.774,0,0,0-1.38,1.158L376,228.935h6.5l.191-.709A2.446,2.446,0,0,1,384.6,226.6Z" transform="translate(-375.996 -216.094)"/></g><g transform="translate(17.752 1.733)"><path class="e" d="M402.339,228.935h6.332l-.481-1.795a1.779,1.779,0,0,0-1.384-1.158l-2.407-.691-.014.027-.824-.765,0,0v-.6a2.025,2.025,0,0,0,1-1.169c.023-.09.045-.175.066-.257h0s.074-.27.163-.631c.546.078.564-1.284.564-1.284a.264.264,0,0,0-.3-.181c0-.04,0-.077,0-.111,0,0,1.047-4.364-2.916-4.224,0,0-1.443.208-1.583,1.008a1.126,1.126,0,0,0-.792.852,11.782,11.782,0,0,0-.087,2.492.28.28,0,0,0-.379.164s.062,1.368.619,1.283a4.78,4.78,0,0,0,.147.461c.033.133.068.274.108.427a2.03,2.03,0,0,0,1,1.169v.562l-.006,0-.931.868-2.3.6h0l2.146.615a2.444,2.444,0,0,1,1.915,1.623l.189.713h.166Z" transform="translate(-397.923 -216.094)"/></g></g></g><g transform="translate(-5647.398 -14678.926)"><g transform="translate(0 0)"><path class="d" d="M150.983,308.644a16.46,16.46,0,1,1-16.46-16.457A16.462,16.462,0,0,1,150.983,308.644Z" transform="translate(-118.064 -292.187)"/></g><path class="e" d="M144.691,302.732H127.819a.657.657,0,0,0-.657.657v10.954a.658.658,0,0,0,.657.658h10.536c.6.644,1.673,2.089.8,3.572,0,0,3.254-1.231,3.829-3.572h1.7a.658.658,0,0,0,.657-.658V303.389A.657.657,0,0,0,144.691,302.732Zm-1.619,8.821H129.439a.312.312,0,0,1,0-.623h13.633a.312.312,0,1,1,0,.623Zm0-2.375H129.439a.311.311,0,1,1,0-.623h13.633a.311.311,0,1,1,0,.623Zm0-2.376H129.439a.312.312,0,0,1,0-.623h13.633a.312.312,0,1,1,0,.623Z" transform="translate(-119.796 -294.195)"/></g><g transform="translate(-5734.4 -14747.945)"><g transform="translate(0 0)"><path class="f" d="M43.517,223.394a16.459,16.459,0,1,1-16.459-16.46A16.458,16.458,0,0,1,43.517,223.394Z" transform="translate(-10.599 -206.934)"/></g><g transform="translate(6.409 9.458)"><path class="g" d="M31.7,228.086l-2.914,2.548-2.9-2.668L19.742,234.4H37.954a.872.872,0,0,0,.3-.053Z" transform="translate(-18.749 -220.396)"/><path class="g" d="M35.765,225.759l6.134,5.86V220.4Z" transform="translate(-21.8 -218.955)"/><path class="g" d="M28.738,227.252l9.677-8.46a.889.889,0,0,0-.531-.176H19.572a.893.893,0,0,0-.2.023Z" transform="translate(-18.679 -218.616)"/><path class="g" d="M18.515,219.855v12.1l6.153-6.439Z" transform="translate(-18.515 -218.852)"/></g></g><g transform="translate(-5489.734 -14754.946)"><g transform="translate(0 0)"><path class="h" d="M345.731,214.744a16.46,16.46,0,1,1-16.459-16.458A16.46,16.46,0,0,1,345.731,214.744Z" transform="translate(-312.812 -198.286)"/></g><g transform="translate(5.444 7.655)"><path class="e" d="M341.2,214.154a1.167,1.167,0,0,1-1.651-.053,12.781,12.781,0,0,0-18.045-.572,1.168,1.168,0,0,1-1.6-1.7,15.119,15.119,0,0,1,21.348.678A1.168,1.168,0,0,1,341.2,214.154Z" transform="translate(-319.536 -207.741)"/><g transform="translate(2.371 3.911)"><path class="e" d="M339.231,217.892a1.168,1.168,0,0,1-1.651-.053,9.312,9.312,0,0,0-13.148-.417,1.169,1.169,0,0,1-1.6-1.7,11.655,11.655,0,0,1,16.453.522A1.168,1.168,0,0,1,339.231,217.892Z" transform="translate(-322.464 -212.572)"/></g><g transform="translate(4.608 8.073)"><path class="e" d="M337.375,222a1.168,1.168,0,0,1-1.652-.053,6.04,6.04,0,0,0-8.527-.27,1.168,1.168,0,0,1-1.6-1.7,8.377,8.377,0,0,1,11.829.376A1.167,1.167,0,0,1,337.375,222Z" transform="translate(-325.228 -217.712)"/></g><path class="e" d="M334.248,223.853a2.615,2.615,0,1,1-3.7-.118A2.614,2.614,0,0,1,334.248,223.853Z" transform="translate(-321.477 -210.652)"/></g></g><g transform="translate(-5669.692 -14630.822)"><g transform="translate(0 0)"><circle class="i" cx="16.459" cy="16.459" r="16.459"/></g><g transform="translate(6.134 6.135)"><g transform="translate(0 7.814)"><path class="e" d="M108.428,373.854c-3.572,0-10.325-.525-10.325-2.509s6.754-2.51,10.325-2.51,10.324.524,10.324,2.51S112,373.854,108.428,373.854Zm0-4.189a35.059,35.059,0,0,0-6.921.6c-2.136.452-2.573.963-2.573,1.075s.436.623,2.573,1.073a39.843,39.843,0,0,0,13.841,0c2.136-.451,2.572-.962,2.572-1.073s-.436-.623-2.572-1.075A35.06,35.06,0,0,0,108.428,369.665Z" transform="translate(-98.103 -368.835)"/></g><g transform="translate(0 3.552)"><path class="e" d="M108.428,377.113c-5.692,0-10.325-3.038-10.325-6.771s4.633-6.771,10.325-6.771,10.324,3.038,10.324,6.771S114.119,377.113,108.428,377.113Zm0-12.711c-5.236,0-9.494,2.664-9.494,5.941s4.258,5.941,9.494,5.941,9.492-2.666,9.492-5.941S113.662,364.4,108.428,364.4Z" transform="translate(-98.103 -363.571)"/></g><g transform="translate(7.659)"><path class="e" d="M110.23,379.831c-2.108,0-2.666-6.754-2.666-10.324s.558-10.324,2.666-10.324,2.664,6.753,2.664,10.324S112.337,379.831,110.23,379.831Zm0-19.818c-.623,0-1.836,3.351-1.836,9.494S109.607,379,110.23,379s1.834-3.35,1.834-9.493S110.851,360.013,110.23,360.013Z" transform="translate(-107.564 -359.183)"/></g><g transform="translate(3.553)"><path class="e" d="M109.264,379.831c-3.733,0-6.772-4.632-6.772-10.324s3.039-10.324,6.772-10.324,6.767,4.631,6.767,10.324S113,379.831,109.264,379.831Zm0-19.818c-3.276,0-5.942,4.26-5.942,9.494S105.988,379,109.264,379s5.939-4.26,5.939-9.493S112.537,360.013,109.264,360.013Z" transform="translate(-102.492 -359.183)"/></g><path class="e" d="M108.428,379.831a10.324,10.324,0,1,1,10.324-10.324A10.337,10.337,0,0,1,108.428,379.831Zm0-19.818a9.494,9.494,0,1,0,9.492,9.494A9.505,9.505,0,0,0,108.428,360.013Z" transform="translate(-98.103 -359.183)"/></g></g><g transform="translate(-5502.741 -14883.482)"><g transform="translate(0 0)"><path class="j" d="M329.664,55.977a16.459,16.459,0,1,1-16.457-16.459A16.459,16.459,0,0,1,329.664,55.977Z" transform="translate(-296.746 -39.518)"/></g><path class="e" d="M320.554,48.07H310.8a1.066,1.066,0,0,0-1.065,1.066V66.074A1.066,1.066,0,0,0,310.8,67.14h9.755a1.065,1.065,0,0,0,1.066-1.065V49.136A1.065,1.065,0,0,0,320.554,48.07Zm-3.463,18.215h-2.825a.346.346,0,1,1,0-.692h2.825a.346.346,0,0,1,0,.692Zm2.545-2.393H311.72V49.811h7.917Zm.763.8h-9.443V49.127H320.4Z" transform="translate(-299.219 -41.146)"/></g><g transform="translate(-5513.163 -14628.313)"><g transform="translate(0 0)"><circle class="k" cx="16.459" cy="16.459" r="16.459"/></g><g transform="translate(7.854 6.792)"><path class="e" d="M308.009,378.349h2.774l-.257.322a9.811,9.811,0,0,1-3.569,2.787,10.4,10.4,0,0,1-4.416.97,8.679,8.679,0,0,1-6.4-2.573,9.191,9.191,0,0,1-2.57-6.8,10.7,10.7,0,0,1,2.4-7.082,8.2,8.2,0,0,1,6.664-2.881,7.88,7.88,0,0,1,4.174.984,7.756,7.756,0,0,1,3.782,7.109,8.565,8.565,0,0,1-1.508,4.927,5.069,5.069,0,0,1-4.307,2.5,1.735,1.735,0,0,1-1.8-1.116,5.207,5.207,0,0,1-1.118.82,3.052,3.052,0,0,1-1.387.3,3.308,3.308,0,0,1-2.922-1.536,5.823,5.823,0,0,1-.889-3.325,9.475,9.475,0,0,1,1.184-4.658,4.208,4.208,0,0,1,3.736-2.558,2.923,2.923,0,0,1,2.42,1.25l.142-.9h2.549l-1.468,9.277c0,.154.068.229.2.229a2.273,2.273,0,0,0,1.589-.847,5.841,5.841,0,0,0,1.022-1.536,6.621,6.621,0,0,0,.554-2.827,6.06,6.06,0,0,0-1.61-4.383,5.681,5.681,0,0,0-4.3-1.676,6.693,6.693,0,0,0-5.095,2.12,7.971,7.971,0,0,0-2,5.7,7.707,7.707,0,0,0,1.818,5.319,6.516,6.516,0,0,0,5.13,2.141,8.4,8.4,0,0,0,5.428-2.007Zm-5.185-4.416a12.766,12.766,0,0,0,.457-3.272,2.84,2.84,0,0,0-.282-1.333,1.141,1.141,0,0,0-1.077-.687q-1.373,0-2.087,2.315a11.417,11.417,0,0,0-.512,3.42,3.3,3.3,0,0,0,.3,1.453,1.225,1.225,0,0,0,1.131.808,1.633,1.633,0,0,0,1.439-.954A7.8,7.8,0,0,0,302.823,373.933Z" transform="translate(-293.574 -363.093)"/></g></g><g transform="translate(-5647.398 -14840.876)"><g transform="translate(0 0)"><path class="l" d="M150.983,108.6a16.46,16.46,0,1,1-16.46-16.46A16.461,16.461,0,0,1,150.983,108.6Z" transform="translate(-118.064 -92.145)"/></g><g transform="translate(3.774 7.342)"><path class="m" d="M144.833,101.214h-17.9a.8.8,0,0,0-.806.8v12.5a.806.806,0,0,0,.806.806h17.9a.805.805,0,0,0,.8-.806v-12.5A.8.8,0,0,0,144.833,101.214Zm-.634,12.634h-16.63V102.419H144.2Z" transform="translate(-123.374 -101.214)"/><rect class="m" width="15.216" height="10.234" transform="translate(4.9 1.803)"/><rect class="m" width="25.369" height="0.597" transform="translate(0 17.638)"/><path class="m" d="M144.99,119.348H125.48l-2.754,2.472H148.1Zm-19.271.342H144.94l1.1.9H124.785Zm6.458,1.8.538-.709h5.344l.587.709Z" transform="translate(-122.726 -104.667)"/></g></g><g transform="translate(-5691.7 -14883.482)"><g transform="translate(0 0)"><path class="j" d="M96.261,55.978A16.459,16.459,0,1,1,79.8,39.518,16.459,16.459,0,0,1,96.261,55.978Z" transform="translate(-63.343 -39.518)"/></g><g transform="translate(6.298 7.341)"><path class="n" d="M82.544,55.628a4.8,4.8,0,1,0,4.8,4.8A4.8,4.8,0,0,0,82.544,55.628Zm2.094,7.636a3.6,3.6,0,0,0-4.767-5.333,3.6,3.6,0,1,1,4.767,5.333Z" transform="translate(-72.383 -49.927)"/><path class="n" d="M90.57,52H71.994a.872.872,0,0,0-.872.871V66.6a.872.872,0,0,0,.872.871H90.57a.872.872,0,0,0,.873-.871V52.875A.871.871,0,0,0,90.57,52ZM81.283,66.136a6.4,6.4,0,1,1,6.4-6.4A6.4,6.4,0,0,1,81.283,66.136Zm9.149-11.648h-4.35V53.18h4.35Z" transform="translate(-71.122 -49.237)"/><path class="n" d="M86.339,48.586H78.458l-2.5,2.4H88.448Zm-.171.654H78.587v-.305h7.581Z" transform="translate(-72.042 -48.586)"/></g></g><g transform="translate(-5610.21 -14786.119)"><g transform="translate(20.212 15.962)"><g transform="translate(8.484 0)"><path class="e" d="M404.351,232.691a3.016,3.016,0,0,0-2.343-1.964l-4.083-1.171-.025.045-1.4-1.3-.007,0v-1.02a3.45,3.45,0,0,0,1.693-1.983c.038-.151.077-.3.111-.436h0s.127-.455.275-1.071c.927.132.96-2.178.96-2.178a.448.448,0,0,0-.513-.307c0-.065.007-.13.007-.19,0,0,1.775-7.4-4.947-7.163,0,0-2.447.353-2.683,1.709a1.912,1.912,0,0,0-1.344,1.446,20.067,20.067,0,0,0-.149,4.225.473.473,0,0,0-.638.28s.1,2.323,1.045,2.176c.074.267.154.531.251.785.058.223.118.463.185.723a3.436,3.436,0,0,0,1.694,1.983v.953l-.011-.005-1.583,1.472-3.9,1.02a3.018,3.018,0,0,0-2.347,1.964l-.817,3.044H405.17Z" transform="translate(-383.783 -213.954)"/></g><g transform="translate(0 2.332)"><path class="e" d="M387.577,230.229l3.04-.792c-.1-.026-.164-.036-.164-.036l-3.237-.93-.021.036-1.109-1.03,0,0v-.808a2.733,2.733,0,0,0,1.346-1.573c.029-.121.059-.235.087-.346h0s.1-.363.217-.849c.739.1.762-1.728.762-1.728a.353.353,0,0,0-.406-.244c0-.053,0-.1,0-.149,0,0,1.409-5.872-3.921-5.684,0,0-1.944.28-2.131,1.356a1.516,1.516,0,0,0-1.068,1.146,15.818,15.818,0,0,0-.114,3.353.375.375,0,0,0-.509.221s.078,1.841.827,1.727c.06.21.124.418.2.621.045.179.094.368.145.575a2.731,2.731,0,0,0,1.347,1.573v.756l-.009,0-1.255,1.168-3.1.809a2.388,2.388,0,0,0-1.858,1.558l-.65,2.415h8.743l.257-.954A3.292,3.292,0,0,1,387.577,230.229Z" transform="translate(-375.996 -216.094)"/></g><g transform="translate(23.889 2.332)"><path class="e" d="M403.866,233.374h8.521l-.647-2.415a2.4,2.4,0,0,0-1.862-1.558l-3.239-.93-.019.036-1.109-1.03-.007,0v-.808a2.726,2.726,0,0,0,1.346-1.573c.032-.121.061-.235.089-.346h0s.1-.363.219-.849c.734.1.759-1.728.759-1.728a.355.355,0,0,0-.406-.244c0-.053,0-.1,0-.149,0,0,1.409-5.872-3.924-5.684,0,0-1.943.28-2.13,1.356A1.515,1.515,0,0,0,400.4,218.6a15.858,15.858,0,0,0-.118,3.353.377.377,0,0,0-.51.221s.083,1.841.833,1.727a6.451,6.451,0,0,0,.2.621c.045.179.092.368.145.575a2.732,2.732,0,0,0,1.344,1.573v.756l-.009,0-1.253,1.168-3.1.809h-.007l2.888.828a3.289,3.289,0,0,1,2.577,2.184l.255.96h.223Z" transform="translate(-397.923 -216.094)"/></g></g><g transform="translate(0 0)"><g transform="translate(0 0)"><g class="o"><rect class="e" width="1.496" height="85.431" transform="matrix(0.673, -0.74, 0.74, 0.673, -23.183, 44.915)"/><rect class="e" width="0.538" height="85.431" transform="translate(-22.303 43.946) rotate(-47.737)"/><rect class="e" width="0.538" height="85.431" transform="matrix(0.673, -0.74, 0.74, 0.673, -22.054, 43.674)"/><rect class="e" width="0.538" height="85.431" transform="matrix(0.673, -0.74, 0.74, 0.673, -21.815, 43.41)"/><rect class="e" width="0.538" height="85.431" transform="translate(-21.568 43.139) rotate(-47.716)"/><rect class="e" width="0.538" height="85.431" transform="translate(-21.321 42.867) rotate(-47.705)"/><rect class="e" width="0.538" height="85.431" transform="matrix(0.673, -0.74, 0.74, 0.673, -21.088, 42.611)"/><rect class="e" width="0.538" height="85.431" transform="matrix(0.673, -0.74, 0.74, 0.673, -20.85, 42.349)"/><rect class="e" width="0.538" height="85.431" transform="translate(-20.605 42.079) rotate(-47.721)"/><rect class="e" width="0.538" height="85.431" transform="matrix(0.673, -0.74, 0.74, 0.673, -20.373, 41.823)"/><rect class="e" width="0.538" height="85.431" transform="translate(-20.132 41.559) rotate(-47.74)"/><rect class="e" width="0.538" height="85.431" transform="matrix(0.673, -0.74, 0.74, 0.673, -19.89, 41.293)"/><rect class="e" width="0.538" height="85.431" transform="translate(-19.647 41.025) rotate(-47.735)"/><rect class="e" width="0.538" height="85.431" transform="matrix(0.673, -0.74, 0.74, 0.673, -19.393, 40.746)"/><rect class="e" width="0.538" height="85.431" transform="matrix(0.673, -0.74, 0.74, 0.673, -19.158, 40.487)"/><rect class="e" width="0.538" height="85.431" transform="matrix(0.673, -0.74, 0.74, 0.673, -18.92, 40.225)"/><rect class="e" width="0.538" height="85.431" transform="translate(-18.672 39.953) rotate(-47.716)"/><rect class="e" width="0.538" height="85.431" transform="matrix(0.673, -0.74, 0.74, 0.673, -18.432, 39.688)"/><rect class="e" width="0.538" height="85.431" transform="matrix(0.673, -0.74, 0.74, 0.673, -18.193, 39.426)"/><rect class="e" width="0.538" height="85.431" transform="matrix(0.673, -0.74, 0.74, 0.673, -17.952, 39.161)"/><rect class="e" width="0.538" height="85.431" transform="translate(-17.708 38.892) rotate(-47.718)"/><rect class="e" width="0.538" height="85.431" transform="matrix(0.673, -0.74, 0.74, 0.673, -17.476, 38.638)"/><rect class="e" width="0.538" height="85.431" transform="matrix(0.673, -0.74, 0.74, 0.673, -17.236, 38.373)"/><rect class="e" width="0.538" height="85.431" transform="matrix(0.673, -0.74, 0.74, 0.673, -16.994, 38.107)"/><rect class="e" width="0.538" height="85.431" transform="matrix(0.673, -0.74, 0.74, 0.673, -16.75, 37.839)"/><rect class="e" width="0.538" height="85.431" transform="matrix(0.673, -0.74, 0.74, 0.673, -16.504, 37.568)"/><rect class="e" width="0.538" height="85.431" transform="matrix(0.673, -0.74, 0.74, 0.673, -16.262, 37.302)"/><rect class="e" width="0.538" height="85.431" transform="matrix(0.673, -0.74, 0.74, 0.673, -16.021, 37.037)"/><rect class="e" width="0.538" height="85.431" transform="translate(-15.776 36.768) rotate(-47.716)"/><rect class="e" width="0.538" height="85.431" transform="matrix(0.673, -0.74, 0.74, 0.673, -15.538, 36.505)"/><rect class="e" width="0.538" height="85.431" transform="matrix(0.673, -0.74, 0.74, 0.673, -15.3, 36.243)"/><rect class="e" width="0.538" height="85.431" transform="translate(-15.052 35.971) rotate(-47.716)"/><rect class="e" width="0.538" height="85.431" transform="matrix(0.673, -0.74, 0.74, 0.673, -14.82, 35.715)"/><rect class="e" width="0.538" height="85.431" transform="matrix(0.673, -0.74, 0.74, 0.673, -14.58, 35.452)"/><rect class="e" width="0.538" height="85.431" transform="matrix(0.673, -0.74, 0.74, 0.673, -14.34, 35.187)"/><rect class="e" width="0.538" height="85.431" transform="translate(-14.095 34.919) rotate(-47.733)"/><rect class="e" width="0.538" height="85.431" transform="translate(-13.848 34.647) rotate(-47.722)"/><rect class="e" width="0.538" height="85.431" transform="matrix(0.673, -0.74, 0.74, 0.673, -13.607, 34.382)"/><rect class="e" width="0.538" height="85.431" transform="matrix(0.673, -0.74, 0.74, 0.673, -13.369, 34.119)"/><rect class="e" width="0.538" height="85.431" transform="translate(-13.121 33.847) rotate(-47.715)"/><rect class="e" width="0.538" height="85.431" transform="matrix(0.673, -0.74, 0.74, 0.673, -12.877, 33.579)"/><rect class="e" width="0.538" height="85.431" transform="matrix(0.673, -0.74, 0.74, 0.673, -12.642, 33.32)"/><rect class="e" width="0.538" height="85.431" transform="matrix(0.673, -0.74, 0.74, 0.673, -12.404, 33.058)"/><rect class="e" width="0.538" height="85.431" transform="matrix(0.673, -0.74, 0.74, 0.673, -12.164, 32.794)"/><rect class="e" width="0.538" height="85.431" transform="translate(-11.929 32.536) rotate(-47.744)"/><rect class="e" width="0.538" height="85.431" transform="matrix(0.673, -0.74, 0.74, 0.673, -11.685, 32.267)"/><rect class="e" width="0.538" height="85.431" transform="matrix(0.672, -0.74, 0.74, 0.672, -11.446, 32.004)"/><rect class="e" width="0.538" height="85.431" transform="matrix(0.673, -0.74, 0.74, 0.673, -11.192, 31.725)"/><rect class="e" width="0.538" height="85.431" transform="matrix(0.673, -0.74, 0.74, 0.673, -10.956, 31.465)"/><rect class="e" width="0.538" height="85.431" transform="matrix(0.673, -0.74, 0.74, 0.673, -10.712, 31.197)"/><rect class="e" width="0.538" height="85.431" transform="translate(-10.471 30.931) rotate(-47.723)"/><rect class="e" width="0.538" height="85.431" transform="translate(-10.226 30.662) rotate(-47.716)"/><rect class="e" width="0.538" height="85.431" transform="matrix(0.673, -0.74, 0.74, 0.673, -9.991, 30.403)"/><rect class="e" width="0.538" height="85.431" transform="matrix(0.673, -0.74, 0.74, 0.673, -9.747, 30.135)"/><rect class="e" width="0.538" height="85.431" transform="matrix(0.673, -0.74, 0.74, 0.673, -9.51, 29.875)"/><rect class="e" width="0.538" height="85.431" transform="matrix(0.673, -0.74, 0.74, 0.673, -9.269, 29.61)"/><rect class="e" width="0.538" height="85.431" transform="matrix(0.673, -0.74, 0.74, 0.673, -9.03, 29.347)"/><rect class="e" width="0.538" height="85.431" transform="translate(-8.79 29.083) rotate(-47.74)"/><rect class="e" width="0.538" height="85.431" transform="translate(-8.545 28.813) rotate(-47.733)"/><rect class="e" width="0.538" height="85.431" transform="matrix(0.673, -0.74, 0.74, 0.673, -8.296, 28.539)"/><rect class="e" width="0.538" height="85.431" transform="matrix(0.673, -0.74, 0.74, 0.673, -8.058, 28.277)"/><rect class="e" width="0.538" height="85.431" transform="matrix(0.673, -0.74, 0.74, 0.673, -7.815, 28.01)"/><rect class="e" width="0.538" height="85.431" transform="translate(-7.571 27.742) rotate(-47.717)"/><rect class="e" width="0.538" height="85.431" transform="matrix(0.673, -0.74, 0.74, 0.673, -7.333, 27.48)"/><rect class="e" width="0.538" height="85.431" transform="matrix(0.673, -0.74, 0.74, 0.673, -7.092, 27.214)"/><rect class="e" width="0.538" height="85.431" transform="matrix(0.673, -0.74, 0.74, 0.673, -6.851, 26.95)"/><rect class="e" width="0.538" height="85.431" transform="translate(-6.614 26.69) rotate(-47.733)"/><rect class="e" width="0.538" height="85.431" transform="translate(-6.367 26.417) rotate(-47.721)"/><rect class="e" width="0.538" height="85.431" transform="matrix(0.673, -0.74, 0.74, 0.673, -6.134, 26.161)"/><rect class="e" width="0.538" height="85.431" transform="matrix(0.673, -0.74, 0.74, 0.673, -5.89, 25.892)"/><rect class="e" width="0.538" height="85.431" transform="matrix(0.673, -0.74, 0.74, 0.673, -5.641, 25.619)"/><rect class="e" width="0.538" height="85.431" transform="matrix(0.673, -0.74, 0.74, 0.673, -5.402, 25.356)"/><rect class="e" width="0.538" height="85.431" transform="matrix(0.673, -0.74, 0.74, 0.673, -5.161, 25.091)"/><rect class="e" width="0.538" height="85.431" transform="matrix(0.673, -0.74, 0.74, 0.673, -4.922, 24.828)"/><rect class="e" width="0.538" height="85.431" transform="translate(-4.675 24.556) rotate(-47.716)"/><rect class="e" width="0.538" height="85.431" transform="matrix(0.673, -0.74, 0.74, 0.673, -4.431, 24.288)"/><rect class="e" width="0.538" height="85.431" transform="matrix(0.673, -0.74, 0.74, 0.673, -4.196, 24.029)"/><rect class="e" width="0.538" height="85.431" transform="matrix(0.673, -0.74, 0.74, 0.673, -3.959, 23.769)"/><rect class="e" width="0.538" height="85.431" transform="matrix(0.673, -0.74, 0.74, 0.673, -3.718, 23.503)"/><rect class="e" width="0.538" height="85.431" transform="matrix(0.672, -0.74, 0.74, 0.672, -3.483, 23.245)"/><rect class="e" width="0.538" height="85.431" transform="translate(-3.24 22.977) rotate(-47.74)"/><rect class="e" width="0.538" height="85.431" transform="translate(-2.989 22.701) rotate(-47.722)"/><rect class="e" width="0.538" height="85.431" transform="matrix(0.673, -0.74, 0.74, 0.673, -2.746, 22.434)"/><rect class="e" width="0.538" height="85.431" transform="matrix(0.673, -0.74, 0.74, 0.673, -2.51, 22.174)"/><rect class="e" width="0.538" height="85.431" transform="translate(-2.265 21.905) rotate(-47.722)"/><rect class="e" width="0.538" height="85.431" transform="translate(-2.024 21.64) rotate(-47.723)"/><rect class="e" width="0.538" height="85.431" transform="translate(-1.78 21.371) rotate(-47.716)"/><rect class="e" width="0.538" height="85.431" transform="matrix(0.673, -0.74, 0.74, 0.673, -1.544, 21.112)"/><rect class="e" width="0.538" height="85.431" transform="translate(-1.309 20.853) rotate(-47.74)"/><rect class="e" width="0.538" height="85.431" transform="translate(-1.065 20.585) rotate(-47.735)"/><rect class="e" width="0.538" height="85.431" transform="matrix(0.673, -0.74, 0.74, 0.673, -0.826, 20.322)"/><rect class="e" width="0.538" height="85.431" transform="translate(-0.584 20.056) rotate(-47.738)"/><rect class="e" width="0.538" height="85.431" transform="matrix(0.673, -0.74, 0.74, 0.673, -0.335, 19.782)"/><rect class="e" width="0.538" height="85.431" transform="translate(-0.093 19.516) rotate(-47.722)"/><rect class="e" width="0.538" height="85.431" transform="matrix(0.673, -0.74, 0.74, 0.673, 0.157, 19.241)"/><rect class="e" width="0.538" height="85.431" transform="matrix(0.673, -0.74, 0.74, 0.673, 0.389, 18.986)"/><rect class="e" width="0.538" height="85.431" transform="translate(0.634 18.716) rotate(-47.716)"/><rect class="e" width="0.538" height="85.431" transform="matrix(0.673, -0.74, 0.74, 0.673, 0.874, 18.452)"/><rect class="e" width="0.538" height="85.431" transform="matrix(0.673, -0.74, 0.74, 0.673, 1.114, 18.189)"/><rect class="e" width="0.538" height="85.431" transform="matrix(0.673, -0.74, 0.74, 0.673, 1.355, 17.923)"/><rect class="e" width="0.538" height="85.431" transform="matrix(0.673, -0.74, 0.74, 0.673, 1.591, 17.663)"/><rect class="e" width="0.538" height="85.431" transform="translate(1.832 17.398) rotate(-47.732)"/><rect class="e" width="0.538" height="85.431" transform="translate(2.079 17.126) rotate(-47.721)"/><rect class="e" width="0.538" height="85.431" transform="matrix(0.673, -0.74, 0.74, 0.673, 2.312, 16.87)"/><rect class="e" width="0.538" height="85.431" transform="translate(2.564 16.593) rotate(-47.716)"/><rect class="e" width="0.538" height="85.431" transform="translate(2.806 16.327) rotate(-47.716)"/><rect class="e" width="0.538" height="85.431" transform="matrix(0.673, -0.74, 0.74, 0.673, 3.044, 16.065)"/><rect class="e" width="0.538" height="85.431" transform="matrix(0.673, -0.74, 0.74, 0.673, 3.285, 15.8)"/><rect class="e" width="0.538" height="85.431" transform="translate(3.53 15.53) rotate(-47.715)"/><rect class="e" width="0.538" height="85.431" transform="matrix(0.673, -0.74, 0.74, 0.673, 3.769, 15.268)"/><rect class="e" width="0.538" height="85.431" transform="matrix(0.673, -0.74, 0.74, 0.673, 4.006, 15.007)"/><rect class="e" width="0.538" height="85.431" transform="matrix(0.673, -0.74, 0.74, 0.673, 4.242, 14.747)"/><rect class="e" width="0.538" height="85.431" transform="translate(4.486 14.478) rotate(-47.733)"/><rect class="e" width="0.538" height="85.431" transform="matrix(0.673, -0.74, 0.74, 0.673, 4.725, 14.216)"/><rect class="e" width="0.538" height="85.431" transform="matrix(0.673, -0.74, 0.74, 0.673, 4.967, 13.95)"/><rect class="e" width="0.538" height="85.431" transform="matrix(0.673, -0.74, 0.74, 0.673, 5.218, 13.674)"/><rect class="e" width="0.538" height="85.431" transform="translate(5.458 13.41) rotate(-47.722)"/><rect class="e" width="0.538" height="85.431" transform="matrix(0.673, -0.74, 0.74, 0.673, 5.698, 13.146)"/><rect class="e" width="0.538" height="85.431" transform="matrix(0.673, -0.74, 0.74, 0.673, 5.937, 12.883)"/><rect class="e" width="0.538" height="85.431" transform="matrix(0.673, -0.74, 0.74, 0.673, 6.184, 12.611)"/><rect class="e" width="0.538" height="85.431" transform="translate(6.422 12.349) rotate(-47.723)"/><rect class="e" width="0.538" height="85.431" transform="matrix(0.673, -0.74, 0.74, 0.673, 6.664, 12.083)"/><rect class="e" width="0.538" height="85.431" transform="translate(6.894 11.83) rotate(-47.744)"/><rect class="e" width="0.538" height="85.431" transform="matrix(0.673, -0.74, 0.74, 0.673, 7.141, 11.559)"/><rect class="e" width="0.538" height="85.431" transform="matrix(0.673, -0.74, 0.74, 0.673, 7.381, 11.295)"/><rect class="e" width="0.538" height="85.431" transform="matrix(0.673, -0.74, 0.74, 0.673, 7.621, 11.031)"/><rect class="e" width="0.538" height="85.431" transform="matrix(0.673, -0.74, 0.74, 0.673, 7.868, 10.759)"/><rect class="e" width="0.538" height="85.431" transform="matrix(0.673, -0.74, 0.74, 0.673, 8.114, 10.488)"/><rect class="e" width="0.538" height="85.431" transform="matrix(0.673, -0.74, 0.74, 0.673, 8.351, 10.228)"/><rect class="e" width="0.538" height="85.431" transform="translate(8.603 9.95) rotate(-47.705)"/><rect class="e" width="0.538" height="85.431" transform="matrix(0.673, -0.74, 0.74, 0.673, 8.833, 9.698)"/><rect class="e" width="0.538" height="85.431" transform="translate(9.081 9.425) rotate(-47.715)"/><rect class="e" width="0.538" height="85.431" transform="translate(9.321 9.16) rotate(-47.717)"/><rect class="e" width="0.538" height="85.431" transform="matrix(0.673, -0.74, 0.74, 0.673, 9.552, 8.907)"/><rect class="e" width="0.538" height="85.431" transform="translate(9.796 8.638) rotate(-47.733)"/><rect class="e" width="0.538" height="85.431" transform="translate(10.037 8.373) rotate(-47.733)"/><rect class="e" width="0.538" height="85.431" transform="matrix(0.673, -0.74, 0.74, 0.673, 10.275, 8.111)"/><rect class="e" width="0.538" height="85.431" transform="matrix(0.673, -0.74, 0.74, 0.673, 10.517, 7.844)"/><rect class="e" width="0.538" height="85.431" transform="matrix(0.673, -0.74, 0.74, 0.673, 10.767, 7.57)"/><rect class="e" width="0.538" height="85.431" transform="translate(11.011 7.302) rotate(-47.716)"/><rect class="e" width="0.538" height="85.431" transform="matrix(0.673, -0.74, 0.74, 0.673, 11.249, 7.039)"/><rect class="e" width="0.538" height="85.431" transform="matrix(0.673, -0.74, 0.74, 0.673, 11.49, 6.774)"/><rect class="e" width="0.538" height="85.431" transform="translate(11.735 6.505) rotate(-47.716)"/><rect class="e" width="0.538" height="85.431" transform="translate(11.976 6.24) rotate(-47.716)"/><rect class="e" width="0.538" height="85.431" transform="matrix(0.673, -0.74, 0.74, 0.673, 12.214, 5.978)"/><rect class="e" width="0.538" height="85.431" transform="matrix(0.673, -0.74, 0.74, 0.673, 12.447, 5.722)"/><rect class="e" width="0.538" height="85.431" transform="matrix(0.673, -0.74, 0.74, 0.673, 12.692, 5.452)"/><rect class="e" width="0.538" height="85.431" transform="matrix(0.673, -0.74, 0.74, 0.673, 12.93, 5.191)"/><rect class="e" width="0.538" height="85.431" transform="matrix(0.673, -0.74, 0.74, 0.673, 13.172, 4.924)"/><rect class="e" width="0.538" height="85.431" transform="matrix(0.673, -0.74, 0.74, 0.673, 13.421, 4.65)"/><rect class="e" width="0.538" height="85.431" transform="matrix(0.673, -0.74, 0.74, 0.673, 13.665, 4.382)"/><rect class="e" width="0.538" height="85.431" transform="translate(13.904 4.119) rotate(-47.722)"/><rect class="e" width="0.538" height="85.431" transform="matrix(0.673, -0.74, 0.74, 0.673, 14.144, 3.855)"/><rect class="e" width="0.538" height="85.431" transform="translate(14.386 3.589) rotate(-47.723)"/><rect class="e" width="0.538" height="85.431" transform="translate(14.631 3.319) rotate(-47.715)"/><rect class="e" width="0.538" height="85.431" transform="translate(14.866 3.061) rotate(-47.728)"/><rect class="e" width="0.538" height="85.431" transform="translate(15.11 2.792) rotate(-47.722)"/><rect class="e" width="0.538" height="85.431" transform="translate(15.34 2.54) rotate(-47.745)"/><rect class="e" width="0.538" height="85.431" transform="translate(15.587 2.268) rotate(-47.735)"/><rect class="e" width="0.538" height="85.431" transform="translate(15.823 2.009) rotate(-47.745)"/><rect class="e" width="0.538" height="85.431" transform="translate(16.076 1.73) rotate(-47.722)"/><rect class="e" width="0.538" height="85.431" transform="translate(16.317 1.465) rotate(-47.722)"/><rect class="e" width="0.538" height="85.431" transform="matrix(0.673, -0.74, 0.74, 0.673, 16.56, 1.197)"/><rect class="e" width="0.538" height="85.431" transform="matrix(0.673, -0.74, 0.74, 0.673, 16.796, 0.938)"/><rect class="e" width="0.538" height="85.431" transform="matrix(0.673, -0.74, 0.74, 0.673, 17.041, 0.668)"/><rect class="e" width="0.538" height="85.431" transform="translate(17.282 0.403) rotate(-47.723)"/><rect class="e" width="0.538" height="85.431" transform="translate(17.526 0.134) rotate(-47.716)"/><rect class="e" width="0.538" height="85.431" transform="matrix(0.673, -0.74, 0.74, 0.673, 17.757, -0.118)"/><rect class="e" width="0.538" height="85.431" transform="matrix(0.673, -0.74, 0.74, 0.673, 17.999, -0.385)"/><rect class="e" width="0.538" height="85.431" transform="matrix(0.673, -0.74, 0.74, 0.673, 18.243, -0.653)"/><rect class="e" width="0.538" height="85.431" transform="matrix(0.673, -0.74, 0.74, 0.673, 18.484, -0.919)"/><rect class="e" width="0.538" height="85.431" transform="matrix(0.673, -0.74, 0.74, 0.673, 18.722, -1.181)"/><rect class="e" width="0.538" height="85.431" transform="translate(18.971 -1.455) rotate(-47.722)"/><rect class="e" width="0.538" height="85.431" transform="translate(19.216 -1.724) rotate(-47.716)"/><rect class="e" width="0.538" height="85.431" transform="matrix(0.673, -0.74, 0.74, 0.673, 19.454, -1.986)"/><rect class="e" width="0.538" height="85.431" transform="matrix(0.673, -0.74, 0.74, 0.673, 19.695, -2.251)"/><rect class="e" width="0.538" height="85.431" transform="matrix(0.673, -0.74, 0.74, 0.673, 19.937, -2.517)"/><rect class="e" width="0.538" height="85.431" transform="matrix(0.673, -0.74, 0.74, 0.673, 20.181, -2.786)"/><rect class="e" width="0.538" height="85.431" transform="matrix(0.673, -0.74, 0.74, 0.673, 20.42, -3.049)"/><rect class="e" width="0.538" height="85.431" transform="matrix(0.673, -0.74, 0.74, 0.673, 20.653, -3.305)"/><rect class="e" width="0.538" height="85.431" transform="translate(20.896 -3.573) rotate(-47.733)"/><rect class="e" width="0.538" height="85.431" transform="translate(21.138 -3.838) rotate(-47.733)"/><rect class="e" width="0.538" height="85.431" transform="matrix(0.673, -0.74, 0.74, 0.673, 21.376, -4.1)"/><rect class="e" width="0.538" height="85.431" transform="matrix(0.673, -0.74, 0.74, 0.673, 21.635, -4.385)"/><rect class="e" width="0.538" height="85.431" transform="translate(21.87 -4.644) rotate(-47.716)"/><rect class="e" width="0.538" height="85.431" transform="translate(22.112 -4.909) rotate(-47.716)"/><rect class="e" width="0.538" height="85.431" transform="matrix(0.673, -0.74, 0.74, 0.673, 22.35, -5.172)"/><rect class="e" width="0.538" height="85.431" transform="matrix(0.673, -0.74, 0.74, 0.673, 22.591, -5.437)"/><rect class="e" width="0.538" height="85.431" transform="translate(22.832 -5.702) rotate(-47.723)"/><rect class="e" width="0.538" height="85.431" transform="translate(23.077 -5.971) rotate(-47.716)"/><rect class="e" width="0.538" height="85.431" transform="matrix(0.673, -0.74, 0.74, 0.673, 23.307, -6.224)"/><rect class="e" width="0.538" height="85.431" transform="translate(23.557 -6.5) rotate(-47.721)"/><rect class="e" width="0.538" height="85.431" transform="matrix(0.673, -0.74, 0.74, 0.673, 23.793, -6.759)"/><rect class="e" width="0.538" height="85.431" transform="matrix(0.673, -0.74, 0.74, 0.673, 24.031, -7.02)"/><rect class="e" width="0.538" height="85.431" transform="matrix(0.673, -0.74, 0.74, 0.673, 24.278, -7.292)"/><rect class="e" width="0.538" height="85.431" transform="matrix(0.673, -0.74, 0.74, 0.673, 24.521, -7.56)"/><rect class="e" width="0.538" height="85.431" transform="translate(24.764 -7.826) rotate(-47.722)"/><rect class="e" width="0.538" height="85.431" transform="matrix(0.673, -0.74, 0.74, 0.673, 25.004, -8.091)"/><rect class="e" width="0.538" height="85.431" transform="matrix(0.673, -0.74, 0.74, 0.673, 25.243, -8.353)"/><rect class="e" width="0.538" height="85.431" transform="translate(25.49 -8.626) rotate(-47.716)"/><rect class="e" width="0.538" height="85.431" transform="matrix(0.673, -0.74, 0.74, 0.673, 25.728, -8.888)"/><rect class="e" width="0.538" height="85.431" transform="matrix(0.673, -0.74, 0.74, 0.673, 25.962, -9.145)"/><rect class="e" width="0.538" height="85.431" transform="translate(26.2 -9.406) rotate(-47.745)"/><rect class="e" width="0.538" height="85.431" transform="matrix(0.673, -0.74, 0.74, 0.673, 26.447, -9.678)"/><rect class="e" width="0.538" height="85.431" transform="translate(26.688 -9.944) rotate(-47.733)"/><rect class="e" width="0.538" height="85.431" transform="translate(26.935 -10.215) rotate(-47.723)"/><rect class="e" width="0.538" height="85.431" transform="matrix(0.673, -0.74, 0.74, 0.673, 27.174, -10.478)"/><rect class="e" width="0.538" height="85.431" transform="translate(27.421 -10.75) rotate(-47.715)"/><rect class="e" width="0.538" height="85.431" transform="translate(27.66 -11.012) rotate(-47.721)"/><rect class="e" width="0.538" height="85.431" transform="matrix(0.673, -0.74, 0.74, 0.673, 27.901, -11.277)"/><rect class="e" width="0.538" height="85.431" transform="translate(28.15 -11.552) rotate(-47.705)"/><rect class="e" width="0.538" height="85.431" transform="translate(28.386 -11.811) rotate(-47.716)"/><rect class="e" width="0.538" height="85.431" transform="matrix(0.673, -0.74, 0.74, 0.673, 28.624, -12.074)"/><rect class="e" width="0.538" height="85.431" transform="translate(28.858 -12.33) rotate(-47.737)"/><rect class="e" width="0.538" height="85.431" transform="matrix(0.673, -0.74, 0.74, 0.673, 29.099, -12.596)"/><rect class="e" width="0.538" height="85.431" transform="matrix(0.673, -0.74, 0.74, 0.673, 29.343, -12.864)"/><rect class="e" width="0.538" height="85.431" transform="matrix(0.673, -0.74, 0.74, 0.673, 29.585, -13.13)"/><rect class="e" width="0.538" height="85.431" transform="matrix(0.673, -0.74, 0.74, 0.673, 29.831, -13.401)"/><rect class="e" width="0.538" height="85.431" transform="matrix(0.673, -0.74, 0.74, 0.673, 30.081, -13.676)"/><rect class="e" width="0.538" height="85.431" transform="translate(30.317 -13.935) rotate(-47.716)"/><rect class="e" width="0.538" height="85.431" transform="matrix(0.673, -0.74, 0.74, 0.673, 30.554, -14.196)"/><rect class="e" width="0.538" height="85.431" transform="matrix(0.673, -0.74, 0.74, 0.673, 30.797, -14.463)"/><rect class="e" width="0.538" height="85.431" transform="translate(31.038 -14.728) rotate(-47.722)"/><rect class="e" width="0.538" height="85.431" transform="translate(31.279 -14.993) rotate(-47.723)"/><rect class="e" width="0.538" height="85.431" transform="matrix(0.673, -0.74, 0.74, 0.673, 31.513, -15.25)"/><rect class="e" width="0.538" height="85.431" transform="translate(31.753 -15.514) rotate(-47.74)"/><rect class="e" width="0.538" height="85.431" transform="translate(31.997 -15.783) rotate(-47.734)"/><rect class="e" width="0.538" height="85.431" transform="matrix(0.673, -0.74, 0.74, 0.673, 32.239, -16.049)"/><rect class="e" width="0.538" height="85.431" transform="matrix(0.673, -0.74, 0.74, 0.673, 32.485, -16.32)"/><rect class="e" width="0.538" height="85.431" transform="matrix(0.673, -0.74, 0.74, 0.673, 32.725, -16.583)"/><rect class="e" width="0.538" height="85.431" transform="translate(32.971 -16.855) rotate(-47.717)"/><rect class="e" width="0.538" height="85.431" transform="matrix(0.673, -0.74, 0.74, 0.673, 33.209, -17.117)"/><rect class="e" width="0.538" height="85.431" transform="matrix(0.673, -0.74, 0.74, 0.673, 33.45, -17.382)"/><rect class="e" width="0.538" height="85.431" transform="matrix(0.673, -0.74, 0.74, 0.673, 33.689, -17.645)"/><rect class="e" width="0.538" height="85.431" transform="translate(33.936 -17.917) rotate(-47.716)"/><rect class="e" width="0.538" height="85.431" transform="translate(34.166 -18.169) rotate(-47.74)"/><rect class="e" width="0.538" height="85.431" transform="translate(34.408 -18.435) rotate(-47.739)"/><rect class="e" width="0.538" height="85.431" transform="translate(34.647 -18.698) rotate(-47.744)"/><rect class="e" width="0.538" height="85.431" transform="matrix(0.673, -0.74, 0.74, 0.673, 34.893, -18.969)"/><rect class="e" width="0.538" height="85.431" transform="translate(35.138 -19.238) rotate(-47.727)"/><rect class="e" width="0.538" height="85.431" transform="matrix(0.673, -0.74, 0.74, 0.673, 35.381, -19.506)"/><rect class="e" width="0.538" height="85.431" transform="matrix(0.673, -0.74, 0.74, 0.673, 35.62, -19.768)"/><rect class="e" width="0.538" height="85.431" transform="translate(35.867 -20.04) rotate(-47.716)"/><rect class="e" width="0.179" height="85.431" transform="translate(36.006 -20.194) rotate(-47.68)"/></g></g><g transform="translate(0.077 15.023)"><g class="p"><rect class="e" width="0.288" height="67.32" transform="matrix(0.421, -0.907, 0.907, 0.421, -10.179, 44.429)"/><rect class="e" width="0.635" height="67.321" transform="translate(-10.155 44.379) rotate(-65.113)"/><rect class="e" width="0.635" height="67.32" transform="translate(-9.982 44.005) rotate(-65.131)"/><rect class="e" width="0.635" height="67.32" transform="matrix(0.421, -0.907, 0.907, 0.421, -9.799, 43.611)"/><rect class="e" width="0.635" height="67.321" transform="translate(-9.625 43.236) rotate(-65.131)"/><rect class="e" width="0.635" height="67.32" transform="matrix(0.421, -0.907, 0.907, 0.421, -9.441, 42.84)"/><rect class="e" width="0.635" height="67.32" transform="translate(-9.269 42.469) rotate(-65.134)"/><rect class="e" width="0.635" height="67.32" transform="translate(-9.087 42.075) rotate(-65.115)"/><rect class="e" width="0.635" height="67.32" transform="translate(-8.908 41.69) rotate(-65.115)"/><rect class="e" width="0.635" height="67.32" transform="matrix(0.42, -0.907, 0.907, 0.42, -8.735, 41.317)"/><rect class="e" width="0.635" height="67.321" transform="matrix(0.421, -0.907, 0.907, 0.421, -8.552, 40.922)"/><rect class="e" width="0.635" height="67.32" transform="translate(-8.378 40.548) rotate(-65.134)"/><rect class="e" width="0.635" height="67.32" transform="translate(-8.194 40.15) rotate(-65.108)"/><rect class="e" width="0.635" height="67.32" transform="translate(-8.021 39.778) rotate(-65.131)"/><rect class="e" width="0.635" height="67.32" transform="matrix(0.421, -0.907, 0.907, 0.421, -7.839, 39.384)"/><rect class="e" width="0.635" height="67.321" transform="matrix(0.421, -0.907, 0.907, 0.421, -7.661, 39)"/><rect class="e" width="0.635" height="67.32" transform="matrix(0.421, -0.907, 0.907, 0.421, -7.485, 38.622)"/><rect class="e" width="0.635" height="67.32" transform="translate(-7.304 38.23) rotate(-65.112)"/><rect class="e" width="0.635" height="67.32" transform="translate(-7.131 37.857) rotate(-65.134)"/><rect class="e" width="0.635" height="67.32" transform="translate(-6.946 37.46) rotate(-65.108)"/><rect class="e" width="0.635" height="67.32" transform="translate(-6.772 37.085) rotate(-65.126)"/><rect class="e" width="0.635" height="67.32" transform="matrix(0.421, -0.907, 0.907, 0.421, -6.592, 36.696)"/><rect class="e" width="0.635" height="67.32" transform="matrix(0.421, -0.907, 0.907, 0.421, -6.414, 36.311)"/><rect class="e" width="0.635" height="67.32" transform="translate(-6.24 35.937) rotate(-65.134)"/><rect class="e" width="0.635" height="67.32" transform="translate(-6.057 35.543) rotate(-65.117)"/><rect class="e" width="0.635" height="67.321" transform="translate(-5.884 35.168) rotate(-65.135)"/><rect class="e" width="0.635" height="67.32" transform="translate(-5.699 34.769) rotate(-65.107)"/><rect class="e" width="0.635" height="67.32" transform="translate(-5.525 34.396) rotate(-65.127)"/><rect class="e" width="0.635" height="67.32" transform="translate(-5.344 34.005) rotate(-65.114)"/><rect class="e" width="0.635" height="67.321" transform="translate(-5.165 33.619) rotate(-65.112)"/><rect class="e" width="0.635" height="67.32" transform="matrix(0.421, -0.907, 0.907, 0.421, -4.99, 33.242)"/><rect class="e" width="0.635" height="67.32" transform="matrix(0.421, -0.907, 0.907, 0.421, -4.809, 32.851)"/><rect class="e" width="0.635" height="67.32" transform="translate(-4.635 32.477) rotate(-65.131)"/><rect class="e" width="0.635" height="67.32" transform="matrix(0.421, -0.907, 0.907, 0.421, -4.453, 32.083)"/><rect class="e" width="0.635" height="67.32" transform="translate(-4.277 31.704) rotate(-65.123)"/><rect class="e" width="0.635" height="67.32" transform="translate(-4.097 31.315) rotate(-65.115)"/><rect class="e" width="0.635" height="67.32" transform="matrix(0.421, -0.907, 0.907, 0.421, -3.919, 30.931)"/><rect class="e" width="0.635" height="67.32" transform="matrix(0.42, -0.907, 0.907, 0.42, -3.745, 30.558)"/><rect class="e" width="0.635" height="67.32" transform="translate(-3.562 30.162) rotate(-65.115)"/><rect class="e" width="0.635" height="67.32" transform="translate(-3.388 29.788) rotate(-65.134)"/><rect class="e" width="0.635" height="67.321" transform="matrix(0.421, -0.907, 0.907, 0.421, -3.206, 29.395)"/><rect class="e" width="0.635" height="67.32" transform="translate(-3.029 29.012) rotate(-65.12)"/><rect class="e" width="0.635" height="67.32" transform="translate(-2.849 28.625) rotate(-65.115)"/><rect class="e" width="0.635" height="67.321" transform="translate(-2.671 28.242) rotate(-65.117)"/><rect class="e" width="0.635" height="67.32" transform="matrix(0.42, -0.907, 0.907, 0.42, -2.498, 27.868)"/><rect class="e" width="0.635" height="67.32" transform="translate(-2.314 27.471) rotate(-65.113)"/><rect class="e" width="0.635" height="67.32" transform="translate(-2.14 27.097) rotate(-65.131)"/><rect class="e" width="0.635" height="67.32" transform="matrix(0.421, -0.907, 0.907, 0.421, -1.958, 26.703)"/><rect class="e" width="0.635" height="67.32" transform="translate(-1.782 26.324) rotate(-65.123)"/><rect class="e" width="0.635" height="67.32" transform="translate(-1.599 25.93) rotate(-65.106)"/><rect class="e" width="0.635" height="67.321" transform="matrix(0.421, -0.907, 0.907, 0.421, -1.423, 25.551)"/><rect class="e" width="0.635" height="67.32" transform="translate(-1.249 25.176) rotate(-65.131)"/><rect class="e" width="0.635" height="67.32" transform="matrix(0.421, -0.907, 0.907, 0.421, -1.069, 24.787)"/><rect class="e" width="0.635" height="67.32" transform="matrix(0.42, -0.907, 0.907, 0.42, -0.894, 24.41)"/><rect class="e" width="0.635" height="67.321" transform="translate(-0.711 24.014) rotate(-65.115)"/><rect class="e" width="0.635" height="67.32" transform="translate(-0.534 23.633) rotate(-65.12)"/><rect class="e" width="0.635" height="67.32" transform="translate(-0.353 23.242) rotate(-65.108)"/><rect class="e" width="0.635" height="67.321" transform="matrix(0.421, -0.907, 0.907, 0.421, -0.177, 22.862)"/><rect class="e" width="0.635" height="67.32" transform="translate(-0.003 22.487) rotate(-65.134)"/><rect class="e" width="0.635" height="67.32" transform="matrix(0.421, -0.907, 0.907, 0.421, 0.18, 22.094)"/><rect class="e" width="0.635" height="67.32" transform="matrix(0.42, -0.907, 0.907, 0.42, 0.354, 21.719)"/><rect class="e" width="0.635" height="67.32" transform="matrix(0.421, -0.907, 0.907, 0.421, 0.537, 21.325)"/><rect class="e" width="0.635" height="67.321" transform="translate(0.711 20.95) rotate(-65.133)"/><rect class="e" width="0.635" height="67.321" transform="translate(0.896 20.55) rotate(-65.103)"/><rect class="e" width="0.635" height="67.321" transform="translate(1.072 20.17) rotate(-65.113)"/><rect class="e" width="0.635" height="67.32" transform="matrix(0.421, -0.907, 0.907, 0.421, 1.25, 19.787)"/><rect class="e" width="0.635" height="67.32" transform="matrix(0.421, -0.907, 0.907, 0.421, 1.428, 19.402)"/><rect class="e" width="0.635" height="67.32" transform="translate(1.602 19.027) rotate(-65.131)"/><rect class="e" width="0.635" height="67.32" transform="matrix(0.421, -0.907, 0.907, 0.421, 1.785, 18.634)"/><rect class="e" width="0.635" height="67.32" transform="translate(1.958 18.261) rotate(-65.135)"/><rect class="e" width="0.635" height="67.32" transform="translate(2.143 17.861) rotate(-65.106)"/><rect class="e" width="0.635" height="67.321" transform="translate(2.318 17.483) rotate(-65.117)"/><rect class="e" width="0.635" height="67.32" transform="translate(2.497 17.099) rotate(-65.117)"/><rect class="e" width="0.635" height="67.32" transform="translate(2.675 16.713) rotate(-65.115)"/><rect class="e" width="0.635" height="67.32" transform="translate(2.85 16.336) rotate(-65.128)"/><rect class="e" width="0.635" height="67.32" transform="translate(3.031 15.945) rotate(-65.116)"/><rect class="e" width="0.635" height="67.32" transform="matrix(0.42, -0.907, 0.907, 0.42, 3.205, 15.571)"/><rect class="e" width="0.635" height="67.32" transform="matrix(0.421, -0.907, 0.907, 0.421, 3.39, 15.173)"/><rect class="e" width="0.635" height="67.321" transform="translate(3.568 14.788) rotate(-65.108)"/><rect class="e" width="0.635" height="67.32" transform="translate(3.745 14.406) rotate(-65.112)"/><rect class="e" width="0.635" height="67.32" transform="translate(3.923 14.022) rotate(-65.113)"/><rect class="e" width="0.635" height="67.32" transform="translate(4.097 13.649) rotate(-65.133)"/><rect class="e" width="0.635" height="67.32" transform="translate(4.28 13.253) rotate(-65.112)"/><rect class="e" width="0.635" height="67.32" transform="translate(4.453 12.879) rotate(-65.131)"/><rect class="e" width="0.635" height="67.32" transform="translate(4.637 12.483) rotate(-65.108)"/><rect class="e" width="0.635" height="67.321" transform="translate(4.815 12.098) rotate(-65.108)"/><rect class="e" width="0.635" height="67.32" transform="matrix(0.421, -0.907, 0.907, 0.421, 4.992, 11.719)"/><rect class="e" width="0.635" height="67.32" transform="matrix(0.421, -0.907, 0.907, 0.421, 5.17, 11.334)"/><rect class="e" width="0.635" height="67.32" transform="matrix(0.421, -0.907, 0.907, 0.421, 5.345, 10.957)"/><rect class="e" width="0.635" height="67.32" transform="matrix(0.421, -0.907, 0.907, 0.421, 5.526, 10.565)"/><rect class="e" width="0.635" height="67.32" transform="translate(5.7 10.192) rotate(-65.136)"/><rect class="e" width="0.635" height="67.32" transform="matrix(0.421, -0.907, 0.907, 0.421, 5.883, 9.797)"/><rect class="e" width="0.635" height="67.321" transform="translate(6.063 9.408) rotate(-65.107)"/><rect class="e" width="0.635" height="67.32" transform="translate(6.24 9.027) rotate(-65.114)"/><rect class="e" width="0.635" height="67.32" transform="translate(6.418 8.643) rotate(-65.114)"/><rect class="e" width="0.635" height="67.32" transform="translate(6.592 8.268) rotate(-65.132)"/><rect class="e" width="0.635" height="67.32" transform="translate(6.774 7.875) rotate(-65.114)"/><rect class="e" width="0.635" height="67.32" transform="translate(6.948 7.499) rotate(-65.131)"/><rect class="e" width="0.635" height="67.32" transform="translate(7.131 7.105) rotate(-65.112)"/><rect class="e" width="0.635" height="67.321" transform="translate(7.311 6.718) rotate(-65.107)"/><rect class="e" width="0.635" height="67.32" transform="translate(7.489 6.334) rotate(-65.108)"/><rect class="e" width="0.635" height="67.32" transform="matrix(0.421, -0.907, 0.907, 0.421, 7.665, 5.955)"/><rect class="e" width="0.635" height="67.32" transform="translate(7.839 5.58) rotate(-65.134)"/><rect class="e" width="0.635" height="67.32" transform="matrix(0.421, -0.907, 0.907, 0.421, 8.021, 5.186)"/><rect class="e" width="0.635" height="67.32" transform="translate(8.195 4.812) rotate(-65.135)"/><rect class="e" width="0.635" height="67.32" transform="matrix(0.421, -0.907, 0.907, 0.421, 8.378, 4.417)"/><rect class="e" width="0.635" height="67.321" transform="translate(8.558 4.028) rotate(-65.108)"/><rect class="e" width="0.635" height="67.32" transform="translate(8.736 3.644) rotate(-65.107)"/><rect class="e" width="0.635" height="67.32" transform="translate(8.913 3.262) rotate(-65.112)"/><rect class="e" width="0.635" height="67.32" transform="translate(9.087 2.888) rotate(-65.131)"/><rect class="e" width="0.635" height="67.32" transform="matrix(0.421, -0.907, 0.907, 0.421, 9.269, 2.495)"/><rect class="e" width="0.635" height="67.32" transform="translate(9.443 2.12) rotate(-65.131)"/><rect class="e" width="0.635" height="67.32" transform="matrix(0.421, -0.907, 0.907, 0.421, 9.626, 1.726)"/><rect class="e" width="0.635" height="67.321" transform="translate(9.804 1.342) rotate(-65.114)"/><rect class="e" width="0.635" height="67.32" transform="translate(9.985 0.952) rotate(-65.104)"/><rect class="e" width="0.635" height="67.32" transform="translate(10.159 0.575) rotate(-65.117)"/><rect class="e" width="0.635" height="67.32" transform="matrix(0.42, -0.907, 0.907, 0.42, 10.333, 0.201)"/><rect class="e" width="0.635" height="67.32" transform="translate(10.516 -0.195) rotate(-65.115)"/><rect class="e" width="0.635" height="67.32" transform="translate(10.69 -0.569) rotate(-65.134)"/><rect class="e" width="0.635" height="67.32" transform="matrix(0.421, -0.907, 0.907, 0.421, 10.873, -0.962)"/><rect class="e" width="0.635" height="67.321" transform="translate(11.05 -1.346) rotate(-65.117)"/><rect class="e" width="0.635" height="67.32" transform="translate(11.231 -1.735) rotate(-65.108)"/><rect class="e" width="0.635" height="67.32" transform="matrix(0.421, -0.907, 0.907, 0.421, 11.407, -2.115)"/><rect class="e" width="0.352" height="67.32" transform="translate(11.441 -2.188) rotate(-65.101)"/></g></g></g></g></g></svg>