<svg xmlns="http://www.w3.org/2000/svg" width="24" height="24" viewBox="0 0 24 24">
  <g id="Group_21135" data-name="Group 21135" transform="translate(7044 14086)">
    <rect id="Rectangle_15180" data-name="Rectangle 15180" width="24" height="24" transform="translate(-7044 -14086)" fill="none"/>
    <path id="Notification" d="M5.565,17.672c0-1.287,1.091-1.243,2.435-1.243s2.435-.044,2.435,1.243A2.383,2.383,0,0,1,8,20,2.383,2.383,0,0,1,5.565,17.672ZM1.667,15a1.79,1.79,0,0,1,0-3.571l.011,0a1.249,1.249,0,0,0,1.1-1.248V5.357A5.283,5.283,0,0,1,8.16,0a5.446,5.446,0,0,1,5.057,5.578v4.6a1.249,1.249,0,0,0,1.105,1.248l.011,0a1.79,1.79,0,0,1,0,3.571A56.461,56.461,0,0,0,1.667,15Z" transform="translate(-7040 -14084)" fill="#6971e8"/>
  </g>
</svg>
