<svg xmlns="http://www.w3.org/2000/svg" xmlns:xlink="http://www.w3.org/1999/xlink" width="24" height="24" viewBox="0 0 24 24">
  <defs>
    <clipPath id="clip-path">
      <rect id="Rectangle_13874" data-name="Rectangle 13874" width="20.554" height="20.447" fill="#6982e7"/>
    </clipPath>
  </defs>
  <g id="Group_21157" data-name="Group 21157" transform="translate(7064 13837)">
    <rect id="Rectangle_15189" data-name="Rectangle 15189" width="24" height="24" transform="translate(-7064 -13837)" fill="none"/>
    <g id="Group_21156" data-name="Group 21156" transform="translate(-7062 -13835)">
      <path id="Path_68210" data-name="Path 68210" d="M38.433,426.29a2.037,2.037,0,0,1-2.494,0l-1.769-1.37-6.45,7.1H46.651l-6.45-7.1Zm0,0" transform="translate(-26.822 -411.293)" fill="#6982e7"/>
      <path id="Path_68211" data-name="Path 68211" d="M.48,252.45v11.918l6.414-7Zm0,0" transform="translate(-0.48 -244.507)" fill="#6982e7"/>
      <path id="Path_68212" data-name="Path 68212" d="M446.464,264.368V252.45l-6.414,4.922Zm0,0" transform="translate(-425.737 -244.507)" fill="#6982e7"/>
      <g id="Group_19769" data-name="Group 19769" transform="translate(0.084 0)">
        <g id="Group_19767" data-name="Group 19767" clip-path="url(#clip-path)">
          <path id="Path_68213" data-name="Path 68213" d="M165.392,233.61H154.75v2.911l4.826,3.684a.818.818,0,0,0,.99,0l4.826-3.684V233.61Zm-3.967,4.819h-2.71a.615.615,0,1,1,0-1.23h2.71a.615.615,0,1,1,0,1.23Zm1.082-2.366h-4.874a.615.615,0,1,1,0-1.23h4.874a.615.615,0,1,1,0,1.23Zm0,0" transform="translate(-149.792 -226.11)" fill="#6982e7"/>
        </g>
        <g id="Group_19768" data-name="Group 19768" clip-path="url(#clip-path)">
          <path id="Path_68214" data-name="Path 68214" d="M22.364,7.931a.617.617,0,0,1,.618-.615H34.861a.617.617,0,0,1,.618.615v2.581l3.195-2.438L29.292,1.1a.621.621,0,0,0-.74,0L19.17,8.074l3.194,2.438Zm0,0" transform="translate(-18.643 -1.046)" fill="#6982e7"/>
        </g>
      </g>
    </g>
  </g>
</svg>
