<svg xmlns="http://www.w3.org/2000/svg" width="24" height="24" viewBox="0 0 24 24"><defs><style>.a{fill:none;stroke:#fff;stroke-linecap:round;stroke-linejoin:round;stroke-width:2px;}</style></defs><circle class="a" cx="2.873" cy="2.873" r="2.873" transform="translate(9.127 9.127)"/><path class="a" d="M19.4,15a1.65,1.65,0,0,0,.33,1.82l.06.06a2,2,0,1,1-2.83,2.83l-.06-.06a1.663,1.663,0,0,0-2.82,1.18V21a2,2,0,0,1-4,0v-.09A1.65,1.65,0,0,0,9,19.4a1.65,1.65,0,0,0-1.82.33l-.06.06a2,2,0,1,1-2.83-2.83l.06-.06a1.663,1.663,0,0,0-1.18-2.82H3a2,2,0,0,1,0-4h.09A1.65,1.65,0,0,0,4.6,9a1.65,1.65,0,0,0-.33-1.82l-.06-.06A2,2,0,1,1,7.04,4.29l.06.06a1.65,1.65,0,0,0,1.82.33H9a1.65,1.65,0,0,0,1-1.51V3a2,2,0,0,1,4,0v.09a1.663,1.663,0,0,0,2.82,1.18l.06-.06a2,2,0,1,1,2.83,2.83l-.06.06a1.65,1.65,0,0,0-.33,1.82V9a1.65,1.65,0,0,0,1.51,1H21a2,2,0,0,1,0,4h-.09A1.65,1.65,0,0,0,19.4,15Z" transform="translate(0 0)"/></svg>