<svg xmlns="http://www.w3.org/2000/svg" xmlns:xlink="http://www.w3.org/1999/xlink" width="24" height="24" viewBox="0 0 24 24"><defs><style>.a{fill:#fff;}.b{fill:none;}.c{clip-path:url(#a);}</style><clipPath id="a"><rect class="a" width="20" height="22"/></clipPath></defs><g transform="translate(18608 18721)"><rect class="b" width="24" height="24" transform="translate(-18608 -18721)"/><g transform="translate(-18606 -18720)"><g class="c"><path class="a" d="M13.461,1.89V4.583a7.627,7.627,0,0,1-3.452,14.388A7.633,7.633,0,0,1,5.955,4.917v-2.8A10.109,10.109,0,0,0,10,21.444,10.1,10.1,0,0,0,13.461,1.89Zm0,0" transform="translate(0 -0.227)"/></g><path class="a" d="M11.12,12.793c1.142,0,1.259-.68,1.259-1.5V1.5C12.38.67,12.262,0,11.12,0S9.87.68,9.87,1.5v9.785c0,.834.118,1.5,1.25,1.5Zm0,0" transform="translate(-1.251)"/></g></g></svg>