<svg xmlns="http://www.w3.org/2000/svg" xmlns:xlink="http://www.w3.org/1999/xlink" width="247.496" height="224.882" viewBox="0 0 247.496 224.882"><defs><style>.a{fill:none;}.b{fill:#33226c;}.c{fill:#ffb300;}.d{clip-path:url(#a);}.e{fill:#471f5e;}.f{fill:#31236c;}.g{clip-path:url(#b);}.h{fill:#fbb1a6;}.i{fill:#f1f2f2;}.j{clip-path:url(#c);}.k{fill:#d1d3d4;}.l{clip-path:url(#d);}.m{fill:url(#e);}.n{opacity:0.19;}.ah,.al,.at,.ax,.n,.v{mix-blend-mode:multiply;}.ah,.al,.at,.ax,.n,.v,.z{isolation:isolate;}.o{clip-path:url(#f);}.p{clip-path:url(#g);}.q{fill:url(#h);}.r{clip-path:url(#i);}.s{fill:url(#j);}.t{clip-path:url(#k);}.u{fill:url(#l);}.v{opacity:0.52;}.w{clip-path:url(#m);}.x{clip-path:url(#n);}.y{fill:url(#o);}.z{opacity:0.1;mix-blend-mode:color-dodge;}.aa{clip-path:url(#p);}.ab{clip-path:url(#q);}.ac{fill:url(#r);}.ad{clip-path:url(#s);}.ae{fill:url(#t);}.af{clip-path:url(#u);}.ag{fill:url(#v);}.ah{opacity:0.44;}.ai{clip-path:url(#w);}.aj{clip-path:url(#x);}.ak{fill:url(#y);}.al{opacity:0.3;}.am{clip-path:url(#z);}.an{clip-path:url(#aa);}.ao{fill:url(#ab);}.ap{clip-path:url(#ac);}.aq{fill:url(#ad);}.ar{clip-path:url(#ae);}.as{fill:url(#af);}.at{opacity:0.26;}.au{clip-path:url(#ag);}.av{clip-path:url(#ah);}.aw{fill:url(#ai);}.ax{opacity:0.33;}.ay{clip-path:url(#aj);}.az{clip-path:url(#ak);}.ba{fill:url(#al);}.bb{clip-path:url(#am);}.bc{fill:url(#an);}.bd{clip-path:url(#ao);}.be{clip-path:url(#ap);}.bf{fill:url(#aq);}.bg{fill:#362478;}.bh{clip-path:url(#ar);}.bi{fill:url(#as);}.bj{clip-path:url(#at);}.bk{fill:url(#au);}.bl{clip-path:url(#av);}.bm{clip-path:url(#aw);}.bn{fill:url(#ax);}.bo{clip-path:url(#ay);}.bp{fill:url(#az);}</style><clipPath id="a"><rect class="a" width="247.495" height="1.619"/></clipPath><clipPath id="b"><rect class="a" width="54.69" height="78.34"/></clipPath><clipPath id="c"><rect class="a" width="26.949" height="26.538"/></clipPath><clipPath id="d"><path class="a" d="M650.057,791.562h2.683s3.966-20.578-10.009-35.19c-1.716,24.135,7.326,35.19,7.326,35.19" transform="translate(-642.514 -756.372)"/></clipPath><linearGradient id="e" x1="-3.979" y1="6.237" x2="-3.972" y2="6.237" gradientUnits="objectBoundingBox"><stop offset="0" stop-color="#6ad0fb"/><stop offset="0.227" stop-color="#69cdf9"/><stop offset="0.387" stop-color="#69c3f5"/><stop offset="0.526" stop-color="#68b4ed"/><stop offset="0.654" stop-color="#679ee3"/><stop offset="0.773" stop-color="#6682d6"/><stop offset="0.885" stop-color="#645fc5"/><stop offset="0.992" stop-color="#6337b2"/><stop offset="0.995" stop-color="#6336b2"/><stop offset="1" stop-color="#6336b2"/></linearGradient><clipPath id="f"><rect class="a" width="10.534" height="35.19"/></clipPath><clipPath id="g"><path class="a" d="M643.858,756.372c0,.028,0,.056-.005.084,10.94,13.844,7.868,31.015,7.036,34.71.188.264.3.4.3.4h2.683s3.966-20.578-10.009-35.19" transform="translate(-643.853 -756.372)"/></clipPath><linearGradient id="h" x1="-4.348" y1="6.302" x2="-4.341" y2="6.302" xlink:href="#e"/><clipPath id="i"><path class="a" d="M698.4,728.157h1.7s9.212-24.9,4.944-47.066c0,0-12.8,14.01-6.648,47.066" transform="translate(-696.722 -681.091)"/></clipPath><linearGradient id="j" x1="-5.843" y1="5.227" x2="-5.834" y2="5.227" xlink:href="#e"/><clipPath id="k"><path class="a" d="M718.137,826.721h1.347s13.83-13.974,12.736-28.6c0,0-10.654,7.808-14.083,28.6" transform="translate(-718.137 -798.117)"/></clipPath><linearGradient id="l" x1="-3.275" y1="9.518" x2="-3.27" y2="9.518" xlink:href="#e"/><clipPath id="m"><rect class="a" width="17.015" height="16.361"/></clipPath><clipPath id="n"><path class="a" d="M1130.638,478.844l-8.968,63.811h114.666l8.968-63.811Z" transform="translate(-1121.67 -478.844)"/></clipPath><linearGradient id="o" x1="-1.335" y1="3.696" x2="-1.334" y2="3.696" xlink:href="#e"/><clipPath id="p"><rect class="a" width="105.325" height="56.41"/></clipPath><clipPath id="q"><path class="a" d="M1143.206,519.444c10.62,9.588,27.714,15.81,46.994,15.81,32.215,0,58.331-17.369,58.331-38.795a28.762,28.762,0,0,0-6.346-17.615h-93.273Z" transform="translate(-1143.206 -478.844)"/></clipPath><linearGradient id="r" x1="-1.712" y1="4.953" x2="-1.711" y2="4.953" xlink:href="#e"/><clipPath id="s"><path class="a" d="M1013.8,549.747c-4.1,1.292-5.394,5.394-5.166,8.508s1.23,6.515,5.317,12.154a12.146,12.146,0,0,1,2.583,7.824c5.849.836,12.914-5.242,11.243-8.736s-2.279-7.976,1.443-8.2,2.887,9.344,2.2,15.117c-.442,3.732,3.465,5.4,6.283,6.114a2.593,2.593,0,0,0,3.188-2.092l.252-1.515a18.26,18.26,0,0,1-4.862-1.9c-3.039-1.6-1.823-12.458-.987-15.725.743-2.9,2.686-4.907,6.629-4.516a4.924,4.924,0,0,0,4.423-1.937c2.478-3.31,1.634-8.284,1.634-8.284a9.8,9.8,0,0,1-5.182.48,10.617,10.617,0,0,1-1.8-.462,46.962,46.962,0,0,0-14.948-2.939c-8.033,0-11.387,3.567-12.252,6.111" transform="translate(-1008.612 -543.636)"/></clipPath><linearGradient id="t" x1="-2.93" y1="5.338" x2="-2.927" y2="5.338" gradientUnits="objectBoundingBox"><stop offset="0" stop-color="#43295d"/><stop offset="1" stop-color="#774b88"/></linearGradient><clipPath id="u"><rect class="a" width="49.987" height="2.315"/></clipPath><linearGradient id="v" x1="-4.654" y1="8.898" x2="-4.651" y2="8.898" gradientUnits="objectBoundingBox"><stop offset="0" stop-color="#965bf1"/><stop offset="0.995" stop-color="#bb68fa"/><stop offset="1" stop-color="#bb68fa"/></linearGradient><clipPath id="w"><rect class="a" width="49.986" height="1.507"/></clipPath><clipPath id="x"><rect class="a" width="49.987" height="1.505"/></clipPath><linearGradient id="y" x1="-4.69" y1="9.174" x2="-4.687" y2="9.174" xlink:href="#v"/><clipPath id="z"><rect class="a" width="17.252" height="50.627"/></clipPath><clipPath id="aa"><path class="a" d="M1228.262,1402.24l-2.949.977a1.677,1.677,0,0,0-1.04,2.191l24.218,63.434a1.677,1.677,0,0,0,3.16-1.124l-21.268-64.411a1.675,1.675,0,0,0-2.12-1.067" transform="translate(-1224.161 -1402.154)"/></clipPath><linearGradient id="ab" x1="-2.432" y1="3.312" x2="-2.43" y2="3.312" xlink:href="#t"/><clipPath id="ac"><path class="a" d="M1011.347,1396.758,998.184,1463.3a1.677,1.677,0,0,0,3.275.726l16.211-65.936a1.677,1.677,0,0,0-1.3-2.046l-3.047-.606a1.675,1.675,0,0,0-1.973,1.32" transform="translate(-998.151 -1395.406)"/></clipPath><linearGradient id="ad" x1="-1.833" y1="4.111" x2="-1.831" y2="4.111" xlink:href="#t"/><clipPath id="ae"><path class="a" d="M848.644,1401.376l-20.036,73.29a1.879,1.879,0,0,0,3.6,1.073l23.392-72.37a1.879,1.879,0,0,0-1.291-2.39l-3.356-.921a1.877,1.877,0,0,0-2.31,1.317" transform="translate(-828.541 -1399.992)"/></clipPath><linearGradient id="af" x1="-1.31" y1="3.144" x2="-1.308" y2="3.144" xlink:href="#t"/><clipPath id="ag"><rect class="a" width="6.304" height="10.035"/></clipPath><clipPath id="ah"><path class="a" d="M843.085,827.616c-8.888,17.776-8.542,19.448-8.542,19.448s-4.676,18.383,22.672,9.951l4.533-47.288s-9.774.114-18.662,17.89" transform="translate(-834.239 -809.726)"/></clipPath><linearGradient id="ai" x1="-1.73" y1="4.083" x2="-1.728" y2="4.083" gradientUnits="objectBoundingBox"><stop offset="0" stop-color="#9a72f6"/><stop offset="1" stop-color="#724ce4"/></linearGradient><clipPath id="aj"><rect class="a" width="18.721" height="38.917"/></clipPath><clipPath id="ak"><path class="a" d="M900.791,884.123c-1.2-4.372-2.191-7.3-2.191-7.3s-23.946,25.31-14.2,38.872c3.285.218,7.685-.354,13.569-2.168Z" transform="translate(-882.07 -876.821)"/></clipPath><linearGradient id="al" x1="-5.04" y1="5.542" x2="-5.034" y2="5.542" xlink:href="#ai"/><clipPath id="am"><path class="a" d="M917.814,820.614a87.154,87.154,0,0,0-2.963,21.878s.228,14.357,0,39.2c21.191,11.623,54.471-5.469,49.685-15.725-4.335-9.29-2.581-28.064-2.109-32.019,1.748.583,7.32,16.427,14.985,18.687,6.569,1.937,15.155-1.367,32.475-7.52.8-4.672-2.735-10.027-4.786-10.141-1.54-.086-12.647.5-18.09.793a4.911,4.911,0,0,1-4.5-2.412c-3.948-6.707-14.437-24.3-16.8-25.956-2.931-2.051-1.4-3.418-22.59-4.849-1.747-.118-3.355-.176-4.839-.176-16.517,0-17.533,7.16-20.461,18.242" transform="translate(-914.847 -802.372)"/></clipPath><linearGradient id="an" x1="-1.313" y1="2.161" x2="-1.312" y2="2.161" xlink:href="#ai"/><clipPath id="ao"><rect class="a" width="65.426" height="58.606"/></clipPath><clipPath id="ap"><path class="a" d="M1166.866,948.4c-2.1,1.31-24.269,14.729-33.546,2.47-9.742-12.874-13.792-26.1-22.2-16.7s-9.163,35.142-8.962,36.185c.135.7,4.145,11.956,6.755,19.246,9.31-4.15,15.422-10.455,13.18-15.259-4.335-9.29-2.581-28.064-2.109-32.019,1.748.583,7.32,16.427,14.985,18.687,6.569,1.937,15.155-1.367,32.475-7.521a10.162,10.162,0,0,0-.572-5.089" transform="translate(-1102.126 -930.991)"/></clipPath><linearGradient id="aq" x1="-1.805" y1="2.522" x2="-1.803" y2="2.522" xlink:href="#ai"/><clipPath id="ar"><path class="a" d="M904.405,1048.173a24.607,24.607,0,0,1,12.408-2.961c30.109,0,25.752,30.766,33.761,42.389a35.322,35.322,0,0,0,13.21,15.083c6.211-1.93,9.673-4.113,7.774-5.1a34.712,34.712,0,0,1-14.546-15.836c-8.008-11.623-3.651-42.388-33.76-42.388-9.423,0-15.253,3.806-18.846,8.816" transform="translate(-904.405 -1039.357)"/></clipPath><linearGradient id="as" x1="-2.066" y1="3.016" x2="-2.064" y2="3.016" gradientUnits="objectBoundingBox"><stop offset="0" stop-color="#533aa9"/><stop offset="1" stop-color="#2f2070"/></linearGradient><clipPath id="at"><path class="a" d="M1136.339,1398.789a3.58,3.58,0,0,0-2.778,4.365l17.734,72.13a1.879,1.879,0,0,0,3.668-.813l-14.415-72.866a3.576,3.576,0,0,0-4.209-2.816" transform="translate(-1133.456 -1398.72)"/></clipPath><linearGradient id="au" x1="-1.869" y1="3.599" x2="-1.867" y2="3.599" xlink:href="#t"/><clipPath id="av"><rect class="a" width="27.555" height="19.183"/></clipPath><clipPath id="aw"><path class="a" d="M1162.554,685.624l.218-1.309a18.265,18.265,0,0,1-4.862-1.9c-2.552-1.34-2.1-9.218-1.4-13.642a7.447,7.447,0,0,0-3.1,1.388c.52,3.262.051,8.15-.363,11.646-.43,3.63,3.253,5.307,6.048,6.053a2.784,2.784,0,0,0,3.457-2.238" transform="translate(-1153.015 -668.775)"/></clipPath><linearGradient id="ax" x1="-15.029" y1="12.244" x2="-15.016" y2="12.244" xlink:href="#t"/><clipPath id="ay"><path class="a" d="M1040.2,703.505q.176.247.359.5a12.145,12.145,0,0,1,2.583,7.824c5.849.836,12.914-5.242,11.243-8.736-.131-.275-.255-.555-.371-.839-4.624,3.305-9.6,2.863-13.813,1.25" transform="translate(-1040.205 -702.255)"/></clipPath><linearGradient id="az" x1="-9.74" y1="20.559" x2="-9.731" y2="20.559" xlink:href="#t"/></defs><g transform="translate(16555.546 18896.618)"><rect class="b" width="3.077" height="108.706" transform="translate(-16358.045 -18797.875)"/><rect class="b" width="3.077" height="108.706" transform="translate(-16508.199 -18797.875)"/><path class="c" d="M1324.19,1699.548s-4.188,11.042-1.523,12.469,27.509,0,27.509,0,2.189-4.315-4.474-5.917a17.934,17.934,0,0,1-9.709-5.6Z" transform="translate(-17756.844 -20401.822)"/><path class="c" d="M1050,1699.548s-4.188,11.042-1.523,12.469,27.509,0,27.509,0,2.189-4.315-4.474-5.917a17.934,17.934,0,0,1-9.709-5.6Z" transform="translate(-17525.91 -20401.822)"/><path class="b" d="M804.686,1093.88H558.909a.859.859,0,0,1-.859-.859V1092a.859.859,0,0,1,.859-.859H804.686a.859.859,0,0,1,.859.859v1.017a.859.859,0,0,1-.859.859" transform="translate(-17113.596 -19889.396)"/><g transform="translate(-16555.545 -18798.25)"><g class="d"><path class="b" d="M804.686,1091.145H558.909a.859.859,0,0,0-.859.859v.761a.859.859,0,0,1,.859-.859H804.686a.859.859,0,0,1,.859.859V1092a.859.859,0,0,0-.859-.859" transform="translate(-558.05 -1091.146)"/></g></g><rect class="b" width="3.077" height="108.706" transform="translate(-16318.902 -18797.875)"/><path class="e" d="M1436.139,883.338s7.566,12.675,7.566,20.784c0,4.6-5.356,9.683-5.356,9.683l-30.071-.043s17.56-4.919,13.139-15.706-7.156-14.718-7.156-14.718Z" transform="translate(-17829.699 -19714.371)"/><path class="f" d="M1182.407,1219.859s33.042,2.291,45,12.774c3.759,5.7,5.81,6.153-15.612,64.039,0,0-8.432,4.1-14.129-1.139a393.614,393.614,0,0,0,9.8-46.719s-25.069,2.735-30.994-.456-4.546-22.357,5.931-28.5" transform="translate(-17631.521 -19997.807)"/><path class="f" d="M919.71,1219.859s33.041,2.291,45,12.774c3.759,5.7,5.81,6.153-15.612,64.039,0,0-8.432,4.1-14.129-1.139a393.62,393.62,0,0,0,9.8-46.719s-17.717.844-23.711-2.215c-10.715-5.469-11.829-20.6-1.352-26.739" transform="translate(-17412.055 -19997.807)"/><g transform="translate(-16499.643 -18777.945)"><g class="g"><path class="f" d="M919.71,1219.859s33.041,2.291,45,12.774c3.759,5.7,5.81,6.153-15.612,64.039,0,0-8.432,4.1-14.129-1.139a393.62,393.62,0,0,0,9.8-46.719s-17.717.844-23.711-2.215c-10.715-5.469-11.829-20.6-1.352-26.739" transform="translate(-912.412 -1219.859)"/></g></g><rect class="b" width="3.077" height="108.706" transform="translate(-16547.342 -18797.875)"/><path class="h" d="M1490.291,1004.823s6.3-2.326,9.451-.445c3.532,2.108,5.128,4.961,5.983,9.572.684,3.691-4.273-2.393-5.3-2.849s-3.188,3.988-6.152,2.849-4.446-8.5-4.446-8.5" transform="translate(-17898.383 -19815.699)"/><path class="i" d="M1868.082,897.9h-25.666L1829.5,928.328h25.666Z" transform="translate(-18184.469 -19726.641)"/><g transform="translate(-16352.479 -18828.738)"><g class="j"><path class="i" d="M1871.405,897.9h-15.7l-10.416,24.539a17.507,17.507,0,0,0,8.121,2c10.4,0,18.828-9.171,18.828-20.484a22.142,22.142,0,0,0-.836-6.054" transform="translate(-1845.292 -897.903)"/></g></g><path class="k" d="M2005.11,897.9l4.235,30.424H1992.2Z" transform="translate(-18321.498 -19726.641)"/><path class="k" d="M1922.355,968.234h-18.146a.494.494,0,1,1,0-.988h18.146a.494.494,0,0,1,0,.988" transform="translate(-18246.975 -19785.043)"/><path class="k" d="M1913.514,989.061h-18.146a.494.494,0,1,1,0-.988h18.146a.494.494,0,0,1,0,.988" transform="translate(-18239.529 -19802.584)"/><path class="k" d="M1904.674,1009.887h-18.146a.494.494,0,1,1,0-.987h18.146a.494.494,0,0,1,0,.987" transform="translate(-18232.084 -19820.127)"/><path class="k" d="M1890.392,1027.515h-11.348a.494.494,0,0,1,0-.988h11.348a.494.494,0,1,1,0,.988" transform="translate(-18225.781 -19834.973)"/><path class="k" d="M1915.933,1068.875h-11.348a.494.494,0,0,1,0-.988h11.348a.494.494,0,0,1,0,.988" transform="translate(-18247.291 -19869.809)"/><path class="k" d="M1920.655,919.773l-1.988,4.684h-1.084l1.988-4.684Z" transform="translate(-18258.656 -19745.059)"/><path class="k" d="M1936.082,919.773l-.375.883h1.966l-3.293,3.8h1.178l3.43-3.981.3-.7Z" transform="translate(-18272.801 -19745.059)"/><path class="c" d="M663.9,981.069a1.548,1.548,0,0,0-1.546-1.631H645.436a1.548,1.548,0,0,0-1.546,1.631c.172,3.265,1.062,10.739,5.508,15.992h9c4.446-5.252,5.337-12.727,5.508-15.992" transform="translate(-17185.895 -19795.313)"/><g class="l" transform="translate(-16542.221 -18851.064)"><rect class="m" width="24.049" height="38.008" transform="translate(-10.078 2.233) rotate(-14.589)"/></g><g class="n" transform="translate(-16542.01 -18851.064)"><g class="o"><g transform="translate(0 0)"><g class="p"><rect class="q" width="22.394" height="37.577" transform="translate(-8.578 2.233) rotate(-14.589)"/></g></g></g></g><g class="r" transform="translate(-16533.672 -18862.939)"><rect class="s" width="17.967" height="47.383" transform="translate(-5.38 0.017) rotate(-1.093)"/></g><g class="t" transform="translate(-16530.291 -18844.479)"><rect class="u" width="32.02" height="23.811" transform="translate(-8.956 25.453) rotate(-70.616)"/></g><g class="v" transform="translate(-16542.004 -18814.613)"><g class="w"><path class="c" d="M655.6,1003.791H658.4a19.423,19.423,0,0,0,2.508-3.843c-10.269-.834-11.289-8.228-11.273-11.246a1.27,1.27,0,0,0-1.272-1.273h-4.441a1.543,1.543,0,0,0-.026.37c.172,3.265,1.062,10.739,5.508,15.992h6.2Z" transform="translate(-643.889 -987.429)"/></g></g><path class="e" d="M1108.855,534.965l9.466-67.356h118.211l-9.466,67.356Z" transform="translate(-17577.51 -19364.227)"/><g class="x" transform="translate(-16466.633 -18894.844)"><rect class="y" width="130.086" height="77.45" transform="translate(-7.206 0.824) rotate(-6.527)"/></g><path class="h" d="M1175.276,611.651a19.406,19.406,0,0,1-.779,8.077,10.524,10.524,0,0,0,.439,7.288l.023.05a1.425,1.425,0,0,1-.57,1.818,4.9,4.9,0,0,1-.534.272,1.974,1.974,0,0,0-1.147,1.374l-.828,3.728-6.305-1.215-1.747-13.978,5.242-9.724Z" transform="translate(-17623.809 -19483.602)"/><path class="h" d="M1062.7,662.563s-2.1,2.5-2.442,7.518l-14.776-.911,2.109-6.8,9.534-18.27,5.576-.57s1.588,7.412,0,19.032" transform="translate(-17524.137 -19512.396)"/><g class="z" transform="translate(-16463.234 -18894.846)"><g class="aa"><g transform="translate(-0.001 0.001)"><g class="ab"><rect class="ac" width="105.325" height="56.41" transform="translate(0 0)"/></g></g></g></g><g class="ad" transform="translate(-16484.467 -18884.625)"><rect class="ae" width="52.223" height="51.584" transform="translate(-13.888 5.556) rotate(-22.098)"/></g><g class="af" transform="translate(-16427.229 -18800.566)"><rect class="ag" width="46.823" height="21.907" transform="translate(-0.841 0.363) rotate(-23.311)"/></g><g class="ah" transform="translate(-16427.229 -18799.758)"><g class="ai"><g transform="translate(0 0)"><g class="aj"><rect class="ak" width="46.502" height="21.163" transform="translate(-0.547 0.236) rotate(-23.311)"/></g></g></g></g><g class="al" transform="translate(-16433.158 -18750.254)"><g class="am"><path class="f" d="M1339.714,1446.033c5.275-17.453,11.4-50.627,11.4-50.627l-8.144,1.261a400.075,400.075,0,0,1-8.137,40.553c-.353,2.2-.694,4.511-.972,6.745a10.345,10.345,0,0,0,5.857,2.068" transform="translate(-1333.857 -1395.406)"/></g></g><g class="an" transform="translate(-16450.463 -18749.188)"><rect class="ao" width="70.573" height="35.505" transform="translate(-7.814 66.99) rotate(-83.541)"/></g><g class="ap" transform="translate(-16486.117 -18750.254)"><rect class="aq" width="71.694" height="27.655" transform="translate(-7.986 69.013) rotate(-83.541)"/></g><g class="ar" transform="translate(-16512.875 -18749.529)"><rect class="as" width="79.725" height="36.133" transform="translate(-8.863 76.131) rotate(-83.541)"/></g><g class="at" transform="translate(-16467.434 -18852.35)"><g class="au"><path class="h" d="M1116.59,758.037l3.558.22c.342-5.014,2.443-7.518,2.443-7.518q.177-1.294.3-2.517a12.46,12.46,0,0,0-6.3,9.815" transform="translate(-1116.59 -748.222)"/></g></g><g class="av" transform="translate(-16511.977 -18842.646)"><rect class="aw" width="64.193" height="55.637" transform="matrix(0.504, -0.863, 0.863, 0.504, -28.643, 41.539)"/></g><g class="ax" transform="translate(-16504.43 -18832.063)"><g class="ay"><g transform="translate(0 0)"><g class="az"><rect class="ba" width="26.137" height="39.09" transform="translate(-7.416 0)"/></g></g></g></g><g class="bb" transform="translate(-16499.26 -18843.807)"><rect class="bc" width="105.961" height="110.132" transform="matrix(0.17, -0.985, 0.985, 0.17, -15.474, 88.307)"/></g><g class="ax" transform="translate(-16469.715 -18823.518)"><g class="bd"><g transform="translate(-0.001 0)"><g class="be"><rect class="bf" width="89.624" height="89.939" transform="matrix(0.522, -0.853, 0.853, 0.522, -29.032, 40.952)"/></g></g></g></g><path class="bg" d="M868.042,1071.946s-3.191-32.589,24.385-32.589c30.109,0,25.752,30.766,33.761,42.388a34.71,34.71,0,0,0,14.546,15.836c5.476,2.852-33.628,15.634-54.688,3.649-17.32-9.856-18-29.284-18-29.284" transform="translate(-17374.59 -19845.779)"/><g class="bh" transform="translate(-16500.908 -18806.422)"><rect class="bi" width="69.052" height="63.326" transform="translate(0 0)"/></g><g class="bj" transform="translate(-16464.773 -18749.73)"><rect class="bk" width="79.988" height="30.752" transform="matrix(0.112, -0.994, 0.994, 0.112, -9.1, 77.008)"/></g><path class="c" d="M1995.928,926.52H1992.2l1.585-3.733h3.733Z" transform="translate(-18326.705 -19747.756)"/><g transform="translate(-16484.691 -18865.041)"><g class="bl"><g transform="translate(17.797 0.001)"><g class="bm"><rect class="bn" width="12.014" height="20.41" transform="translate(-2.296 0.187) rotate(-5.618)"/></g></g><g transform="translate(0.001 5.282)"><g class="bo"><rect class="bp" width="16.799" height="11.913" transform="translate(-1.014 0.1) rotate(-5.618)"/></g></g></g></g><path class="i" d="M1489.54,579.627a6.741,6.741,0,0,1-6.462,5.666,4.81,4.81,0,0,1-4.87-5.666,6.741,6.741,0,0,1,6.462-5.666,4.81,4.81,0,0,1,4.87,5.666" transform="translate(-17893.754 -19453.959)"/><path class="i" d="M1450.092,683.3h-21.3a.753.753,0,0,1-.746-.858l.1-.7a.753.753,0,0,1,.746-.648h21.3a.753.753,0,0,1,.746.858l-.1.7a.753.753,0,0,1-.746.648" transform="translate(-17851.541 -19544.188)"/><path class="i" d="M1445.495,716.239h-21.3a.753.753,0,0,1-.746-.858l.1-.7a.753.753,0,0,1,.746-.648h21.3a.753.753,0,0,1,.746.858l-.1.7a.753.753,0,0,1-.746.648" transform="translate(-17847.67 -19571.93)"/><path class="c" d="M1471.172,768.234h-5.647a.753.753,0,0,1-.746-.858l.1-.7a.753.753,0,0,1,.746-.648h5.646a.753.753,0,0,1,.746.858l-.1.7a.753.753,0,0,1-.746.648" transform="translate(-17882.484 -19615.725)"/></g></svg>