<svg xmlns="http://www.w3.org/2000/svg" width="19" height="19" viewBox="0 0 19 19"><defs><style>.a{fill:#44455d;}</style></defs><g transform="translate(0)"><path class="a" d="M1.845,17.742a1.3,1.3,0,0,0,.134.11l.672.415c.024.012.061.037.086.049A8.132,8.132,0,0,0,6.024,19a6.887,6.887,0,0,0,4.937-1.917L17.3,10.746A7.471,7.471,0,0,0,18.49,2.552a.494.494,0,0,0-.061-.11L18,1.795c-.024-.037-.061-.073-.086-.11L16.779.549A1.871,1.871,0,0,0,15.459,0a1.722,1.722,0,0,0-1.21.5l-3.3,3.3a1.794,1.794,0,0,0,.037,2.54l1.3,1.294L7.87,12.04,6.55,10.721a1.663,1.663,0,0,0-1.259-.537,1.789,1.789,0,0,0-1.247.513l-3.3,3.3a1.949,1.949,0,0,0-.55,1.27,1.764,1.764,0,0,0,.5,1.331Zm-.061-2.711,3.3-3.3a.315.315,0,0,1,.452.024l1.833,1.832a.746.746,0,0,0,1.039,0l5.439-5.434a.754.754,0,0,0,.22-.513.7.7,0,0,0-.22-.513L12.037,5.3A.346.346,0,0,1,12,4.823l3.3-3.3a.222.222,0,0,1,.171-.073.421.421,0,0,1,.281.122L16.828,2.65l.354.537a5.939,5.939,0,0,1-.9,6.5L9.935,16.045a5.439,5.439,0,0,1-3.911,1.49A6.625,6.625,0,0,1,3.385,17l-.562-.342L1.735,15.569a.321.321,0,0,1-.073-.232A.577.577,0,0,1,1.784,15.031Z" transform="translate(-0.193 0)"/></g></svg>