<svg xmlns="http://www.w3.org/2000/svg" xmlns:xlink="http://www.w3.org/1999/xlink" width="14" height="14" viewBox="0 0 14 14"><defs><style>.a{fill:none;}.b{clip-path:url(#a);}.c{fill:#f44336;}</style><clipPath id="a"><rect class="a" width="14" height="14"/></clipPath></defs><g transform="translate(-776.878 -357.878)"><g transform="translate(776.878 357.878)"><g class="b" transform="translate(0 0)"><path class="c" d="M790.452,369.89l-10.819-10.819a1.207,1.207,0,0,0-1.708,0l-.57.569a1.208,1.208,0,0,0,0,1.708l10.819,10.819a1.208,1.208,0,0,0,1.708,0l.569-.569a1.206,1.206,0,0,0,0-1.708Zm0,0" transform="translate(-776.903 -358.592)"/><path class="c" d="M788.174,359.074l-10.819,10.819a1.208,1.208,0,0,0,0,1.708l.569.569a1.208,1.208,0,0,0,1.708,0l10.819-10.818a1.207,1.207,0,0,0,0-1.708l-.569-.569a1.207,1.207,0,0,0-1.709,0Zm0,0" transform="translate(-776.903 -358.595)"/></g></g></g></svg>