<svg xmlns="http://www.w3.org/2000/svg" width="24" height="18" viewBox="0 0 24 18"><defs><style>.a{fill:#f2f2f2;}.b{fill:#f14336;}.c{fill:#d32e2a;}</style></defs><g transform="translate(0 -60.983)"><g transform="translate(1.598 60.983)"><path class="a" d="M54.488,122.808,52.96,137.848H34.61L33.379,123.1l10.406,5.712Z" transform="translate(-33.379 -119.848)"/><path class="a" d="M58.466,60.983l-10.176,9.8-10.176-9.8H58.466Z" transform="translate(-37.888 -60.983)"/></g><path class="b" d="M2.858,113.965v13.562h-1.7A1.133,1.133,0,0,1,0,126.419V111.967l1.867.049Z" transform="translate(0 -48.544)"/><path class="c" d="M455.146,109.106v14.457a1.133,1.133,0,0,1-1.156,1.108h-1.7V111.1l.943-2.136Z" transform="translate(-431.146 -45.689)"/><path class="b" d="M24,62.138v1.285l-2.8,2.083L12,72.354,2.8,65.507,0,63.423V62.138a1.144,1.144,0,0,1,1.132-1.155h.655L12,68.584l10.213-7.6h.654A1.144,1.144,0,0,1,24,62.138Z" transform="translate(0 0)"/><path class="c" d="M2.858,114.05,0,113.607v-1.64Z" transform="translate(0 -48.544)"/></g></svg>