<svg xmlns="http://www.w3.org/2000/svg" width="24.765" height="24.765" viewBox="0 0 24.765 24.765"><defs><style>.a{fill:#65666b;}</style></defs><path class="a" d="M12.383,0A12.383,12.383,0,1,0,24.765,12.383,12.4,12.4,0,0,0,12.383,0Zm0,23.427A11.042,11.042,0,1,1,23.427,12.383,11.009,11.009,0,0,1,12.383,23.427Z"/><circle class="a" cx="1.339" cy="1.339" r="1.339" transform="translate(7 8.283)"/><circle class="a" cx="1.339" cy="1.339" r="1.339" transform="translate(15.283 8.283)"/><path class="a" d="M77.123,183.448a7.772,7.772,0,0,0,6.493-3.524l-1.124-.727a6.36,6.36,0,0,1-10.69,0l-1.124.727a7.773,7.773,0,0,0,5.579,3.474A7.565,7.565,0,0,0,77.123,183.448Z" transform="translate(-64.764 -164.205)"/></svg>