<svg id="Group_19671" data-name="Group 19671" xmlns="http://www.w3.org/2000/svg" xmlns:xlink="http://www.w3.org/1999/xlink" width="50" height="36" viewBox="0 0 50 36">
  <defs>
    <clipPath id="clip-path">
      <rect id="Rectangle_13862" data-name="Rectangle 13862" width="50" height="36" fill="#fff"/>
    </clipPath>
  </defs>
  <g id="Group_19670" data-name="Group 19670" transform="translate(0)" clip-path="url(#clip-path)">
    <path id="Path_68149" data-name="Path 68149" d="M46.491,28.068H42.264V23.78a.71.71,0,0,0-.7-.715H40.151a.71.71,0,0,0-.7.715v4.288H35.22a.71.71,0,0,0-.7.715v1.43a.71.71,0,0,0,.7.715h4.227v4.289a.709.709,0,0,0,.7.714H41.56a.709.709,0,0,0,.7-.714V30.928h4.227a.71.71,0,0,0,.7-.715v-1.43a.711.711,0,0,0-.706-.715ZM24.83,14.016a6.958,6.958,0,0,0,6.906-7.008,6.907,6.907,0,1,0-13.813,0,6.957,6.957,0,0,0,6.906,7.008Zm3.6-4.548c-.341,1.459-1.8,2.007-3.557,2.007s-3.216-.548-3.557-2.007Zm8.2,11.805v2.31a1.115,1.115,0,0,1-.621.879c-1.195.539-4.486,1.644-11.145,1.644-6.674,0-9.837-1.109-11.025-1.647a.787.787,0,0,1-.453-.718V21.274a6.65,6.65,0,0,1,5.934-6.732,9.05,9.05,0,0,0,11.105-.009,6.8,6.8,0,0,1,6.205,6.741Zm13.384-6.264v1.367a.722.722,0,0,1-.417.52c-.707.32-2.68.973-6.621.973s-5.941-.653-6.649-.973a.7.7,0,0,1-.4-.52V15.011a4.038,4.038,0,0,1,3.68-3.989,5.42,5.42,0,0,0,6.627,0,4.077,4.077,0,0,1,3.781,3.994ZM13.533,16.9a17.291,17.291,0,0,1-6.69.973c-3.883,0-5.781-.634-6.513-.959A.619.619,0,0,1,0,16.392V15.011a3.918,3.918,0,0,1,3.481-3.984,5.344,5.344,0,0,0,6.576-.017,4.2,4.2,0,0,1,4.031,4v1.367c0,.2-.373.439-.555.522ZM6.731,2.417a4.148,4.148,0,1,0,4.088,4.147A4.118,4.118,0,0,0,6.731,2.417Zm0,6.869A2.144,2.144,0,0,1,4.582,8.073h4.3A2.144,2.144,0,0,1,6.731,9.285Zm36.2-6.869a4.148,4.148,0,1,0,4.087,4.147A4.118,4.118,0,0,0,42.93,2.417Zm0,6.869a2.143,2.143,0,0,1-2.148-1.212h4.3a2.145,2.145,0,0,1-2.149,1.212Zm0,0" transform="translate(-0.009)" fill="#fff"/>
  </g>
</svg>
