<svg xmlns="http://www.w3.org/2000/svg" width="33" height="30" viewBox="0 0 33 30"><defs><style>.a{fill:#fff;}</style></defs><path class="a" d="M136.929,134.943c-2.976-.444-3.1.265-3.881.592a9.062,9.062,0,0,0-3.148,4.7c-.79,3.28.446,7.215,3.377,11.138a34.037,34.037,0,0,0,18.452,12.995,9.352,9.352,0,0,0,7.646-.879,6.447,6.447,0,0,0,2.931-4.146l.331-1.535a1.092,1.092,0,0,0-.561-1.2l-7.085-3.168a1.1,1.1,0,0,0-1.351.322l-2.816,3.515a.915.915,0,0,1-.9.223,21.786,21.786,0,0,1-11.813-9.827.8.8,0,0,1,.115-.879l2.7-2.945a1.332,1.332,0,0,0,.229-1.089l-3.262-7.1a1.12,1.12,0,0,0-.961-.716" transform="translate(-129.667 -134.8)"/></svg>