<svg xmlns="http://www.w3.org/2000/svg" width="36" height="36" viewBox="0 0 36 36"><defs><style>.a{fill:#fff;}</style></defs><path class="a" d="M1.646,111.478H15.432a11.421,11.421,0,0,0,9.044,4.489,11.786,11.786,0,0,0,0-23.567,11.438,11.438,0,0,0-9.252,4.767,12.425,12.425,0,0,0-2.6-.278A12.78,12.78,0,0,0,0,109.794a1.665,1.665,0,0,0,1.646,1.683ZM24.476,95.767a8.419,8.419,0,1,1-8.232,8.417,8.335,8.335,0,0,1,8.232-8.417Zm0,0" transform="translate(0 -79.967)"/><path class="a" d="M48.842,0a7.042,7.042,0,1,0,7.042,7.042A7.05,7.05,0,0,0,48.842,0Zm0,0" transform="translate(-36.145)"/><path class="a" d="M144.083,147.133h1.683v1.683a1.683,1.683,0,1,0,3.367,0v-1.683h1.683a1.683,1.683,0,1,0,0-3.367h-1.683v-1.683a1.683,1.683,0,1,0-3.367,0v1.683h-1.683a1.683,1.683,0,0,0,0,3.367Zm0,0" transform="translate(-123.029 -121.099)"/></svg>