<svg xmlns="http://www.w3.org/2000/svg" width="24" height="24" viewBox="0 0 24 24"><defs><style>.a{fill:none;}.b{fill:#fff;}</style></defs><g transform="translate(18554 19841)"><rect class="a" width="24" height="24" transform="translate(-18554 -19841)"/><path class="b" d="M17.619,20A2.381,2.381,0,1,1,20,17.62,2.383,2.383,0,0,1,17.619,20ZM10,20a2.381,2.381,0,1,1,2.381-2.38A2.383,2.383,0,0,1,10,20ZM2.38,20a2.381,2.381,0,1,1,2.382-2.38A2.383,2.383,0,0,1,2.38,20Zm15.239-7.619A2.381,2.381,0,1,1,20,10,2.383,2.383,0,0,1,17.619,12.381Zm-7.619,0A2.381,2.381,0,1,1,12.381,10,2.383,2.383,0,0,1,10,12.381Zm-7.619,0A2.381,2.381,0,1,1,4.762,10,2.383,2.383,0,0,1,2.38,12.381ZM17.619,4.762A2.381,2.381,0,1,1,20,2.381,2.383,2.383,0,0,1,17.619,4.762ZM10,4.762a2.381,2.381,0,1,1,2.381-2.381A2.383,2.383,0,0,1,10,4.762Zm-7.619,0A2.381,2.381,0,1,1,4.762,2.381,2.383,2.383,0,0,1,2.38,4.762Z" transform="translate(-18552 -19839)"/></g></svg>