<svg xmlns="http://www.w3.org/2000/svg" xmlns:xlink="http://www.w3.org/1999/xlink" width="200" height="134" viewBox="0 0 200 134"><defs><style>.a{fill:#f2f2ff;}.b{opacity:0.65;}.b,.c{fill:url(#a);}.d{fill:#e9e7fe;}.e{fill:#cbcadd;}.f{fill:#d0c8fa;}.g{fill:#6858f7;}.h{fill:#fff;}.i{fill:#f0426a;}.j{fill:#00ce26;fill-rule:evenodd;}.k{filter:url(#d);}</style><linearGradient id="a" x1="0.024" y1="0.029" x2="0.991" y2="1" gradientUnits="objectBoundingBox"><stop offset="0" stop-color="#6966e9"/><stop offset="1" stop-color="#69b1e3"/></linearGradient><filter id="d" x="113" y="96" width="34" height="34" filterUnits="userSpaceOnUse"><feOffset dy="3" input="SourceAlpha"/><feGaussianBlur stdDeviation="3" result="e"/><feFlood flood-opacity="0.161"/><feComposite operator="in" in2="e"/><feComposite in="SourceGraphic"/></filter></defs><g transform="translate(4452 7756)"><g transform="translate(-4452 -7756)"><path class="a" d="M494.763,900.167s-39.54-.287-37.272-25.087c2.572-28.124,26.951-19.494,19.884-52.988-5.062-23.994,27.968-30.442,43.645-14.717,10.38,10.411,14.206,28.1,40.322,12.577,13.544-8.049,35.732-.824,27.669,18.751-6.572,15.956-13.6,13.88-3.779,36.378,5.5,12.6-4.1,25.169-25.859,27.161S494.763,900.167,494.763,900.167Z" transform="translate(-419.551 -774.124)"/><g transform="translate(78.354 60.667)"><g transform="translate(0 0)"><path class="b" d="M1865.088,1155.723a2.387,2.387,0,0,1-.667,1.727,2.36,2.36,0,0,1-1.555.575h-48.889a2.6,2.6,0,0,1-1.556-.575,2.387,2.387,0,0,1-.667-1.727V1122h53.333v33.721Z" transform="translate(-1811.755 -1104.692)"/><path class="c" d="M1870.258,1261.973a2.357,2.357,0,0,1-1.554.576H1819.86a2.6,2.6,0,0,1-1.554-.576l25.976-23.133Z" transform="translate(-1817.616 -1209.216)"/><path class="c" d="M1865.088,957.4l-7.555,5.351L1839.866,975.2a2.535,2.535,0,0,1-3,0l-17.555-12.451-7.555-5.351,7.555-5.351,16.445-11.577,1.222-.874a2.534,2.534,0,0,1,3,0l1.223.874,7.889,5.57,3.889,2.73,4.556,3.277Z" transform="translate(-1811.755 -939.104)"/><path class="d" d="M1923.687,959.889v16.343l-17.417,13.12a2.369,2.369,0,0,1-2.957,0l-17.307-13.12V955.055a2.255,2.255,0,0,1,2.191-2.3h28.59Z" transform="translate(-1878.412 -951.315)"/><path class="e" d="M2193.93,958.047a1.818,1.818,0,0,0,1.842,1.841h5.294l-7.135-7.135v5.294Z" transform="translate(-2155.558 -951.315)"/></g><g transform="translate(13.671 12.84)"><path class="f" d="M109.187,80.952H92.313a.478.478,0,0,1,0-.955h16.874a.478.478,0,0,1,0,.955Z" transform="translate(-91.847 -79.997)"/><g transform="translate(19.36)"><path class="f" d="M130.49,80.952h-5.724a.478.478,0,0,1,0-.955h5.724a.478.478,0,0,1,0,.955Z" transform="translate(-124.3 -79.997)"/></g><g transform="translate(0 2.35)"><path class="f" d="M98.307,84.892H92.313a.478.478,0,0,1,0-.955h5.994a.478.478,0,0,1,0,.955Z" transform="translate(-91.847 -83.937)"/><g transform="translate(8.211)"><path class="f" d="M117.138,84.892H106.076a.478.478,0,0,1,0-.955h11.062a.478.478,0,0,1,0,.955Z" transform="translate(-105.61 -83.937)"/></g><g transform="translate(21.388)"><path class="f" d="M131.861,84.892h-3.7a.478.478,0,0,1,0-.955h3.7a.478.478,0,0,1,0,.955Z" transform="translate(-127.698 -83.937)"/></g></g><g transform="translate(0 7.051)"><path class="f" d="M97.294,92.771H92.313a.478.478,0,0,1,0-.955h4.981a.478.478,0,0,1,0,.955Z" transform="translate(-91.847 -91.816)"/><g transform="translate(7.197)"><path class="f" d="M106.216,92.771h-1.839a.478.478,0,0,1,0-.955h1.839a.478.478,0,0,1,0,.955Z" transform="translate(-103.911 -91.816)"/></g><g transform="translate(11.15)"><path class="f" d="M111.659,92.771H111a.478.478,0,0,1,0-.955h.656a.478.478,0,0,1,0,.955Z" transform="translate(-110.537 -91.816)"/></g></g><g transform="translate(0 4.701)"><path class="f" d="M96.01,88.831h-3.7a.477.477,0,0,1,0-.954h3.7a.477.477,0,0,1,0,.954Z" transform="translate(-91.847 -87.877)"/><g transform="translate(6.183)"><path class="f" d="M108.4,88.831h-5.724a.477.477,0,0,1,0-.954H108.4a.477.477,0,0,1,0,.954Z" transform="translate(-102.212 -87.877)"/></g><g transform="translate(14.393)"><path class="f" d="M124.191,88.831H116.44a.477.477,0,0,1,0-.954h7.751a.477.477,0,0,1,0,.954Z" transform="translate(-115.974 -87.877)"/></g></g></g><g transform="translate(13.671 23.527)"><path class="f" d="M109.187,80.952H92.313a.478.478,0,0,1,0-.955h16.874a.478.478,0,0,1,0,.955Z" transform="translate(-91.847 -79.997)"/><g transform="translate(19.36)"><path class="f" d="M130.49,80.952h-5.724a.478.478,0,0,1,0-.955h5.724a.478.478,0,0,1,0,.955Z" transform="translate(-124.3 -79.997)"/></g><g transform="translate(0 2.35)"><path class="f" d="M98.307,84.892H92.313a.478.478,0,0,1,0-.955h5.994a.478.478,0,0,1,0,.955Z" transform="translate(-91.847 -83.937)"/><g transform="translate(8.211)"><path class="f" d="M117.138,84.892H106.076a.478.478,0,0,1,0-.955h11.062a.478.478,0,0,1,0,.955Z" transform="translate(-105.61 -83.937)"/></g><g transform="translate(21.388)"><path class="f" d="M131.861,84.892h-3.7a.478.478,0,0,1,0-.955h3.7a.478.478,0,0,1,0,.955Z" transform="translate(-127.698 -83.937)"/></g></g></g></g><g transform="translate(185.965 129.431)"><path class="g" d="M2856.782,1561.826a2.284,2.284,0,1,1-1.921-2.6A2.284,2.284,0,0,1,2856.782,1561.826Z" transform="translate(-2852.239 -1559.204)"/><g transform="translate(1.032 1.568)"><path class="h" d="M2862.87,1575.906a.25.25,0,0,1-.065-.059l-.76-1a.243.243,0,0,1,.385-.295l.592.775,1.232-1.23a.243.243,0,0,1,.343.344l-1.428,1.426a.244.244,0,0,1-.3.035Z" transform="translate(-2861.995 -1574.031)"/></g></g><g transform="translate(73 34.894)"><path class="g" d="M1784.031,660.194a3.063,3.063,0,1,1-2.577-3.482A3.063,3.063,0,0,1,1784.031,660.194Z" transform="translate(-1777.938 -656.677)"/><g transform="translate(1.384 2.104)"><path class="h" d="M1792.195,679.076a.329.329,0,0,1-.088-.079l-1.02-1.335a.325.325,0,0,1,.517-.4l.794,1.04,1.653-1.65a.325.325,0,1,1,.459.461l-1.915,1.912a.325.325,0,0,1-.4.047Z" transform="translate(-1791.02 -676.562)"/></g></g><g transform="translate(145.836 39.184)"><path class="g" d="M2474.825,700.215a2.284,2.284,0,1,1-1.921-2.6A2.284,2.284,0,0,1,2474.825,700.215Z" transform="translate(-2470.282 -697.593)"/><g transform="translate(1.032 1.568)"><path class="h" d="M2480.912,714.295a.249.249,0,0,1-.065-.059l-.76-1a.243.243,0,0,1,.386-.295l.592.775,1.232-1.23a.243.243,0,1,1,.343.343l-1.428,1.426a.242.242,0,0,1-.187.07A.244.244,0,0,1,2480.912,714.295Z" transform="translate(-2480.036 -712.42)"/></g></g><g transform="translate(60.985 1.301)"><path class="g" d="M1668.241,338.419a2.284,2.284,0,1,1-1.921-2.6A2.284,2.284,0,0,1,1668.241,338.419Z" transform="translate(-1663.698 -335.797)"/><g transform="translate(1.032 1.569)"><path class="h" d="M1674.328,352.5a.249.249,0,0,1-.065-.059l-.76-1a.243.243,0,0,1,.385-.295l.592.775,1.232-1.23a.243.243,0,1,1,.343.343l-1.428,1.426a.243.243,0,0,1-.3.035Z" transform="translate(-1673.452 -350.624)"/></g></g><g transform="translate(101.858 5.87)"><path class="g" d="M2056.771,381.608a2.284,2.284,0,1,1-1.922-2.6A2.284,2.284,0,0,1,2056.771,381.608Z" transform="translate(-2052.227 -378.986)"/><g transform="translate(1.032 1.568)"><path class="h" d="M2062.857,395.688a.238.238,0,0,1-.065-.059l-.76-1a.243.243,0,1,1,.385-.295l.592.775,1.232-1.23a.243.243,0,1,1,.343.343l-1.428,1.426a.242.242,0,0,1-.3.035Z" transform="translate(-2061.981 -393.813)"/></g></g><g transform="translate(195.43 23.17)"><path class="g" d="M2946.26,547.328a2.284,2.284,0,1,1-1.922-2.6A2.284,2.284,0,0,1,2946.26,547.328Z" transform="translate(-2941.717 -544.706)"/><g transform="translate(1.032 1.568)"><path class="h" d="M2952.347,561.408a.248.248,0,0,1-.065-.059l-.76-1a.243.243,0,0,1,.385-.295l.593.775,1.232-1.23a.243.243,0,1,1,.343.343l-1.427,1.426a.244.244,0,0,1-.3.035Z" transform="translate(-2951.471 -559.533)"/></g></g><g transform="translate(1.862 90.411)"><path class="g" d="M1106.123,1189.289a2.284,2.284,0,1,1-1.921-2.6A2.284,2.284,0,0,1,1106.123,1189.289Z" transform="translate(-1101.58 -1186.667)"/><g transform="translate(1.032 1.568)"><path class="h" d="M1112.21,1203.369a.255.255,0,0,1-.065-.059l-.76-1a.243.243,0,1,1,.385-.295l.592.775,1.232-1.23a.243.243,0,1,1,.343.343l-1.428,1.426a.243.243,0,0,1-.3.035Z" transform="translate(-1111.334 -1201.494)"/></g></g><g transform="translate(0 36.052)"><path class="g" d="M1090.054,671.246a3.054,3.054,0,1,1-2.569-3.472A3.054,3.054,0,0,1,1090.054,671.246Z" transform="translate(-1083.979 -667.74)"/><g transform="translate(1.38 2.097)"><path class="h" d="M1098.194,690.073a.324.324,0,0,1-.087-.079l-1.017-1.331a.324.324,0,0,1,.516-.394l.792,1.036,1.648-1.645a.324.324,0,1,1,.458.459l-1.909,1.907a.325.325,0,0,1-.4.046Z" transform="translate(-1097.023 -687.566)"/></g></g><g transform="translate(15.765 60.624)"><g transform="translate(2.793)"><path class="i" d="M1260.2,909.573a.792.792,0,0,1-.792-.792v-5.587a.792.792,0,0,1,1.583,0v5.587A.792.792,0,0,1,1260.2,909.573Z" transform="translate(-1259.41 -902.403)"/></g><g transform="translate(0 2.793)"><path class="i" d="M1239.386,930.389H1233.8a.792.792,0,0,1,0-1.584h5.587a.792.792,0,1,1,0,1.584Z" transform="translate(-1233.007 -928.805)"/></g></g><g transform="translate(164.731)"><g transform="translate(2.793)"><path class="i" d="M2678.709,330.671a.792.792,0,0,1-.792-.792v-5.587a.792.792,0,0,1,1.583,0v5.587A.793.793,0,0,1,2678.709,330.671Z" transform="translate(-2677.917 -323.5)"/></g><g transform="translate(0 2.793)"><path class="i" d="M2657.893,351.486h-5.587a.792.792,0,1,1,0-1.584h5.587a.792.792,0,1,1,0,1.584Z" transform="translate(-2651.514 -349.902)"/></g></g><g transform="translate(177.539 105.56)"><g transform="translate(1.651)"><path class="i" d="M2788.667,1335.515a.468.468,0,0,1-.468-.468v-3.3a.468.468,0,0,1,.936,0v3.3A.468.468,0,0,1,2788.667,1335.515Z" transform="translate(-2788.199 -1331.277)"/></g><g transform="translate(0 1.651)"><path class="i" d="M2776.364,1347.817h-3.3a.468.468,0,1,1,0-.936h3.3a.468.468,0,0,1,0,.936Z" transform="translate(-2772.593 -1346.881)"/></g></g><g transform="translate(92.893 24.261)"><g transform="translate(1.651)"><path class="i" d="M1983.073,559.36a.468.468,0,0,1-.468-.468v-3.3a.468.468,0,0,1,.936,0v3.3A.468.468,0,0,1,1983.073,559.36Z" transform="translate(-1982.605 -555.122)"/></g><g transform="translate(0 1.651)"><path class="i" d="M1970.77,571.663h-3.3a.468.468,0,0,1,0-.936h3.3a.468.468,0,1,1,0,.936Z" transform="translate(-1967 -570.727)"/></g></g><g transform="translate(187.986 75.801)"><g transform="translate(2.157)"><path class="i" d="M2892.339,1052.775a.612.612,0,0,1-.611-.612v-4.314a.611.611,0,0,1,1.223,0v4.314A.612.612,0,0,1,2892.339,1052.775Z" transform="translate(-2891.728 -1047.238)"/></g><g transform="translate(0 2.156)"><path class="i" d="M2876.268,1068.846h-4.314a.611.611,0,1,1,0-1.223h4.314a.611.611,0,0,1,0,1.223Z" transform="translate(-2871.342 -1067.623)"/></g></g><g transform="translate(32.213 23.798)"><g transform="translate(1.651)"><path class="i" d="M1404.558,554.933a.469.469,0,0,1-.468-.468v-3.3a.468.468,0,0,1,.936,0v3.3A.469.469,0,0,1,1404.558,554.933Z" transform="translate(-1404.09 -550.695)"/></g><g transform="translate(0 1.651)"><path class="i" d="M1392.255,567.236h-3.3a.468.468,0,1,1,0-.936h3.3a.468.468,0,1,1,0,.936Z" transform="translate(-1388.485 -566.3)"/></g></g><g transform="translate(129.592 15.241)"><g transform="translate(1.651)"><path class="i" d="M2331.922,471.813a.468.468,0,0,1-.468-.468v-3.3a.468.468,0,1,1,.936,0v3.3A.468.468,0,0,1,2331.922,471.813Z" transform="translate(-2331.454 -467.575)"/></g><g transform="translate(0 1.651)"><path class="i" d="M2319.619,484.116h-3.3a.468.468,0,1,1,0-.936h3.3a.468.468,0,1,1,0,.936Z" transform="translate(-2315.849 -483.18)"/></g></g></g><g class="k" transform="matrix(1, 0, 0, 1, -4452, -7756)"><circle class="h" cx="8" cy="8" r="8" transform="translate(122 102)"/></g><path class="j" d="M115.968,120.8l1.708,1.7a.344.344,0,0,1,0,.486l-5.625,5.61a.347.347,0,0,1-.488,0L110,127.046a.328.328,0,0,1-.029-.026l-2.1-2.089a.344.344,0,0,1,0-.487l1.708-1.7a.347.347,0,0,1,.488,0l1.732,1.727,3.675-3.665A.347.347,0,0,1,115.968,120.8Z" transform="translate(-4434.777 -7770.703)"/></g></svg>