<svg xmlns="http://www.w3.org/2000/svg" width="188.658" height="43.762" viewBox="0 0 188.658 43.762">
  <g id="Group_20949" data-name="Group 20949" transform="translate(6655.782 14199)">
    <g id="Group_20947" data-name="Group 20947" transform="translate(438.219 -57.266)">
      <path id="Path_159" data-name="Path 159" d="M1499.818,1523.48l5.047,9.276h20.325l-3.956-9.276Z" transform="translate(-8593.818 -15665.208)" fill="#fff"/>
      <path id="Path_157" data-name="Path 157" d="M1556.742,1523.105l4.046,9.269,8.814-9.262Z" transform="translate(-8629.435 -15664.84)" fill="#fff"/>
      <path id="Path_150" data-name="Path 150" d="M1648.511,1523.287l8.771,9.069,3.952-9.268Z" transform="translate(-8686.609 -15664.82)" fill="#fff"/>
      <path id="Path_148" data-name="Path 148" d="M1676.326,1523.48l-3.956,9.276h20.052l5.184-9.276Z" transform="translate(-8701.712 -15665.208)" fill="#3d3d3d"/>
      <path id="Path_158" data-name="Path 158" d="M1527.541,1568.985l18.529,0,4.171,9.355H1533Z" transform="translate(-8610.606 -15693.571)" fill="#fff"/>
      <path id="Path_153" data-name="Path 153" d="M1577.386,1543l15.74-15.74v14.27l-11.606,10.8Z" transform="translate(-8641.945 -15667.572)" fill="#fff"/>
      <path id="Path_151" data-name="Path 151" d="M1620.308,1541.532l.011-14.278,16.213,15.936-4.222,9.251Z" transform="translate(-8669.166 -15667.56)" fill="#fff"/>
      <path id="Path_149" data-name="Path 149" d="M1656.544,1568.506l-4.216,9.25,17.114.505,5.5-9.931Z" transform="translate(-8689.181 -15692.878)" fill="#3d3d3d"/>
      <path id="Path_154" data-name="Path 154" d="M1555.153,1614.855l15.312,0,4.239,9.14-14.367,0Z" transform="translate(-8628.043 -15721.969)" fill="#fff"/>
      <path id="Path_155" data-name="Path 155" d="M1596.852,1600.764l8.569-8.449-.013,13.759-4.25,3.8Z" transform="translate(-8654.528 -15707.868)" fill="#fff"/>
      <path id="Path_156" data-name="Path 156" d="M1620.53,1593.307l-.045,13.78,4.329,3.759,4.2-9.759Z" transform="translate(-8669.661 -15708.87)" fill="#fff"/>
      <path id="Path_152" data-name="Path 152" d="M1637.249,1613.917l-4.192,9.754,13.841-.035,5.644-9.368Z" transform="translate(-8677.901 -15721.702)" fill="#3d3d3d"/>
    </g>
    <g id="Group_20948" data-name="Group 20948" transform="translate(-16 -4)">
      <path id="Path_70905" data-name="Path 70905" d="M21.47-33.97h-3.5L15.581-22.76l-.318-.023L12.488-33.97H9.146L6.326-22.919l-.318.045-2.3-11.1H.141l4.3,16.236H8.054L10.76-28.786h.045l2.751,11.051H17.1Zm1.637,16.236h3.57V-33.97h-3.57Zm5.526-5.389c0,4,3.274,5.776,6.913,5.776,4.434,0,6.753-2.228,6.753-5.207,0-3.684-3.615-4.434-4.821-4.73-4.07-.978-4.843-1.251-4.843-2.456,0-1.364,1.319-1.842,2.456-1.842,1.114,0,2.774.068,3.206,1.956l3.456.5c0-3.752-3.115-5.23-6.5-5.23-2.933,0-6.071,1.569-6.071,4.912,0,6.071,9.664,3.843,9.664,7.3,0,1.66-1.91,2.024-3.161,2.024-1.319,0-3.229-.3-3.593-2.433ZM47.46-24.215h7.413v-3.161H47.46v-3.661h8.391v-3H44v16.281h12.62v-3H47.46Z" transform="translate(-6544.084 -14160.602)" fill="#fff"/>
      <path id="Path_70906" data-name="Path 70906" d="M5.853-24.191h7.413v-3.161H5.853v-3.661h8.391v-3H2.4v16.281h12.62v-3H5.853Zm22.761,6.5h3.024v-16.3H28.615V-23.85L21.361-33.992H17.268v16.3h3.115V-28.921Zm14.939-6.026a4.862,4.862,0,0,0,3.866-5.025c0-2.638-1.569-5.207-5.662-5.207H34.436v16.258h3.593v-5.844h1.751l4.093,5.844h4.366L43.69-23.714ZM40.8-31.172c1.705,0,3.115.318,3.115,2.433,0,2.069-1.41,2.456-3.115,2.456H38.029v-4.889ZM66.5-25.9a8.423,8.423,0,0,0-8.413-8.413A8.39,8.39,0,0,0,49.694-25.9a8.385,8.385,0,0,0,8.391,8.391A8.419,8.419,0,0,0,66.5-25.9Zm-8.413-4.98A4.979,4.979,0,0,1,63-25.9a4.959,4.959,0,0,1-4.912,4.957A5,5,0,0,1,53.127-25.9,5.018,5.018,0,0,1,58.084-30.876ZM80.05-17.824v-3H71.727V-34.014h-3.5v16.19Zm14.075,0v-3H85.8V-34.014H82.3v16.19Z" transform="translate(-6545.249 -14135.468)" fill="#fff"/>
    </g>
  </g>
</svg>
