<svg id="Group_57" data-name="Group 57" xmlns="http://www.w3.org/2000/svg" width="206.739" height="47.956" viewBox="0 0 206.739 47.956">
  <g id="Group_20947" data-name="Group 20947" transform="translate(0)">
    <path id="Path_159" data-name="Path 159" d="M1499.82,1523.48l5.531,10.165h22.273l-4.335-10.165Z" transform="translate(-1499.82 -1523.467)"/>
    <path id="Path_157" data-name="Path 157" d="M1556.74,1523.1l4.434,10.157,9.659-10.15Z" transform="translate(-1533.394 -1523.1)" fill="#fff"/>
    <path id="Path_150" data-name="Path 150" d="M1648.51,1523.309l9.612,9.938,4.331-10.156Z" transform="translate(-1587.253 -1523.08)"/>
    <path id="Path_148" data-name="Path 148" d="M1676.709,1523.48l-4.335,10.165h21.974l5.681-10.165Z" transform="translate(-1601.516 -1523.467)" fill="#7f4be8"/>
    <path id="Path_158" data-name="Path 158" d="M1527.54,1568.98h20.305l4.571,10.252h-18.893Z" transform="translate(-1515.56 -1550.188)"/>
    <path id="Path_153" data-name="Path 153" d="M1577.39,1544.509l17.249-17.249V1542.9l-12.718,11.835Z" transform="translate(-1545.125 -1525.696)"/>
    <path id="Path_151" data-name="Path 151" d="M1620.31,1542.9l.012-15.647,17.767,17.464-4.627,10.138Z" transform="translate(-1570.841 -1525.683)"/>
    <path id="Path_149" data-name="Path 149" d="M1656.944,1568.527l-4.62,10.137,18.754.553,6.027-10.883Z" transform="translate(-1589.705 -1549.49)" fill="#7f4be8"/>
    <path id="Path_154" data-name="Path 154" d="M1555.15,1614.85h16.78l4.645,10.016h-15.744Z" transform="translate(-1532.022 -1576.911)"/>
    <path id="Path_155" data-name="Path 155" d="M1596.85,1601.57l9.39-9.259-.014,15.078-4.657,4.164Z" transform="translate(-1557.049 -1563.619)" fill="#fff"/>
    <path id="Path_156" data-name="Path 156" d="M1620.534,1593.31l-.049,15.1,4.744,4.12,4.6-10.695Z" transform="translate(-1571.366 -1564.621)" fill="#fff"/>
    <path id="Path_152" data-name="Path 152" d="M1637.652,1613.92l-4.594,10.689,15.168-.038,6.185-10.266Z" transform="translate(-1579.191 -1576.707)" fill="#7f4be8"/>
  </g>
  <g id="Group_20948" data-name="Group 20948" transform="translate(105.023 0.052)">
    <path id="Path_70905" data-name="Path 70905" d="M23.514-33.933H19.679L17.061-21.648l-.348-.025L13.672-33.933H10.009l-3.09,12.11-.348.049L4.05-33.937H.141L4.853-16.145H8.813l2.965-12.107h.049l3.015,12.11h3.884Zm1.794,17.792h3.912V-33.933H25.308Zm6.056-5.906c0,4.383,3.588,6.33,7.576,6.33,4.859,0,7.4-2.442,7.4-5.706,0-4.037-3.962-4.859-5.283-5.183C36.6-27.678,35.75-27.977,35.75-29.3c0-1.495,1.445-2.019,2.691-2.019,1.221,0,3.04.075,3.513,2.143l3.787.548c0-4.112-3.414-5.731-7.123-5.731-3.214,0-6.653,1.719-6.653,5.383,0,6.653,10.59,4.211,10.59,8,0,1.819-2.093,2.218-3.464,2.218-1.445,0-3.539-.329-3.937-2.666ZM52-23.243h8.124v-3.464H52v-4.012h9.2v-3.288H48.2v17.842h13.83v-3.288H52Z" transform="translate(-0.141 34.356)" fill="#3d3d3d"/>
    <path id="Path_70906" data-name="Path 70906" d="M6.184-23.221h8.124v-3.464H6.184V-30.7h9.2v-3.288H2.4v17.842H16.23V-19.43H6.184ZM31.127-16.1h3.314V-33.96H31.128v11.113L23.179-33.961H18.693V-16.1h3.414V-28.4ZM47.5-22.7a5.328,5.328,0,0,0,4.237-5.507c0-2.891-1.719-5.706-6.2-5.706H37.507V-16.1h3.937v-6.4h1.919l4.485,6.4h4.785l-4.985-6.6Zm-3.017-8.17c1.868,0,3.414.348,3.414,2.666,0,2.267-1.545,2.691-3.414,2.691H41.444v-5.358Zm28.163,5.777a9.23,9.23,0,0,0-9.219-9.219,9.194,9.194,0,0,0-6.512,2.7,9.194,9.194,0,0,0-2.685,6.519,9.189,9.189,0,0,0,2.691,6.5,9.189,9.189,0,0,0,6.5,2.691A9.226,9.226,0,0,0,72.644-25.094Zm-9.219-5.457a5.456,5.456,0,0,1,5.384,5.457,5.434,5.434,0,0,1-5.383,5.432,5.479,5.479,0,0,1-5.437-5.432,5.5,5.5,0,0,1,5.432-5.453ZM87.493-16.243v-3.288H78.372V-33.985H74.537v17.742Zm15.424,0v-3.288H93.794V-33.985H89.959v17.742Z" transform="translate(-1.201 61.903)" fill="#3d3d3d"/>
  </g>
</svg>
