<svg width="31" height="20" viewBox="0 0 31 20" fill="none" xmlns="http://www.w3.org/2000/svg">
<path d="M30.1052 16.999C30.1052 18.6559 28.7621 19.999 27.1052 19.999L2.99998 19.999C1.34312 19.999 -2.68073e-05 18.6559 -2.6936e-05 16.999L-2.79737e-05 3.64565C-2.81024e-05 1.98879 1.34312 0.645648 2.99997 0.645648L27.1052 0.645645C28.7621 0.645645 30.1052 1.98879 30.1052 3.64565L30.1052 16.999Z" fill="#FF6F3D"/>
<path d="M15.0532 13.4183C14.899 13.4183 14.7449 13.3521 14.6274 13.22L10.9289 9.05916C10.6936 8.79448 10.6936 8.36534 10.9289 8.10077C11.1641 7.8362 11.5454 7.8362 11.7807 8.10077L15.0532 11.7825L18.3256 8.1009C18.5609 7.83633 18.9422 7.83633 19.1774 8.1009C19.4128 8.36547 19.4128 8.7946 19.1774 9.05928L15.479 13.2201C15.3614 13.3523 15.2073 13.4183 15.0532 13.4183Z" fill="white"/>
</svg>
