<svg width="60" height="53" viewBox="0 0 60 53" fill="none" xmlns="http://www.w3.org/2000/svg">
<g filter="url(#filter0_ddd)">
<rect x="8" y="4" width="44" height="41" rx="5" fill="white"/>
</g>
<path d="M38.3553 36H20.647C19.7855 36 19.0845 35.299 19.0845 34.4375V24.0208C19.0845 23.7333 19.3178 23.5 19.6053 23.5H39.397C39.6845 23.5 39.9178 23.7333 39.9178 24.0208V34.4375C39.9178 35.299 39.2168 36 38.3553 36ZM20.1261 24.5417V34.4375C20.1261 34.724 20.3605 34.9583 20.647 34.9583H38.3553C38.6418 34.9583 38.8761 34.724 38.8761 34.4375V24.5417H20.1261Z" fill="#323131"/>
<path d="M40.4375 24.542H18.5625C17.701 24.542 17 23.841 17 22.9795V19.8545C17 18.993 17.701 18.292 18.5625 18.292H40.4375C41.299 18.292 42 18.993 42 19.8545V22.9795C42 23.841 41.299 24.542 40.4375 24.542ZM18.5625 19.3337C18.276 19.3337 18.0417 19.568 18.0417 19.8545V22.9795C18.0417 23.266 18.276 23.5003 18.5625 23.5003H40.4375C40.724 23.5003 40.9583 23.266 40.9583 22.9795V19.8545C40.9583 19.568 40.724 19.3337 40.4375 19.3337H18.5625Z" fill="#323131"/>
<path d="M29.4991 19.3333C29.3481 19.3333 29.2043 19.2688 29.1053 19.1531C29.0064 19.0396 28.9616 18.8885 28.9835 18.7396C28.9949 18.6615 30.1595 11 36.2699 11C38.9616 11 39.9168 12.4542 39.9168 13.699C39.9168 16.0385 36.6845 19.3333 29.4991 19.3333ZM36.2699 12.0417C31.9866 12.0417 30.5262 16.6094 30.1356 18.2813C35.8428 18.1042 38.8751 15.5563 38.8751 13.699C38.8751 13.2365 38.6803 12.8552 38.2981 12.5688C37.8397 12.224 37.1376 12.0417 36.2699 12.0417Z" fill="#323131"/>
<path d="M29.5022 19.3333C22.3168 19.3333 19.0845 16.0385 19.0845 13.699C19.0845 12.9135 19.4376 12.2156 20.0772 11.7354C20.7178 11.2542 21.6355 11 22.7313 11C28.8418 11 30.0064 18.6615 30.0178 18.7396C30.0397 18.8896 29.9949 19.0396 29.8959 19.1531C29.797 19.2688 29.6532 19.3333 29.5022 19.3333ZM22.7313 12.0417C21.1241 12.0417 20.1261 12.676 20.1261 13.699C20.1261 15.5573 23.1605 18.1052 28.8709 18.2823C28.4928 16.6 27.0688 12.0417 22.7313 12.0417Z" fill="#323131"/>
<path d="M29.4989 36.0003C29.2114 36.0003 28.978 35.767 28.978 35.4795V18.8128C28.978 18.5253 29.2114 18.292 29.4989 18.292C29.7864 18.292 30.0197 18.5253 30.0197 18.8128V35.4795C30.0197 35.767 29.7864 36.0003 29.4989 36.0003Z" fill="#323131"/>
<defs>
<filter id="filter0_ddd" x="0" y="0" width="60" height="53" filterUnits="userSpaceOnUse" color-interpolation-filters="sRGB">
<feFlood flood-opacity="0" result="BackgroundImageFix"/>
<feColorMatrix in="SourceAlpha" type="matrix" values="0 0 0 0 0 0 0 0 0 0 0 0 0 0 0 0 0 0 127 0" result="hardAlpha"/>
<feOffset dx="-4"/>
<feGaussianBlur stdDeviation="2"/>
<feColorMatrix type="matrix" values="0 0 0 0 0 0 0 0 0 0 0 0 0 0 0 0 0 0 0.1 0"/>
<feBlend mode="normal" in2="BackgroundImageFix" result="effect1_dropShadow"/>
<feColorMatrix in="SourceAlpha" type="matrix" values="0 0 0 0 0 0 0 0 0 0 0 0 0 0 0 0 0 0 127 0" result="hardAlpha"/>
<feOffset dx="4"/>
<feGaussianBlur stdDeviation="2"/>
<feColorMatrix type="matrix" values="0 0 0 0 0 0 0 0 0 0 0 0 0 0 0 0 0 0 0.1 0"/>
<feBlend mode="normal" in2="effect1_dropShadow" result="effect2_dropShadow"/>
<feColorMatrix in="SourceAlpha" type="matrix" values="0 0 0 0 0 0 0 0 0 0 0 0 0 0 0 0 0 0 127 0" result="hardAlpha"/>
<feOffset dy="4"/>
<feGaussianBlur stdDeviation="2"/>
<feColorMatrix type="matrix" values="0 0 0 0 0 0 0 0 0 0 0 0 0 0 0 0 0 0 0.1 0"/>
<feBlend mode="normal" in2="effect2_dropShadow" result="effect3_dropShadow"/>
<feBlend mode="normal" in="SourceGraphic" in2="effect3_dropShadow" result="shape"/>
</filter>
</defs>
</svg>
