<svg xmlns="http://www.w3.org/2000/svg" xmlns:xlink="http://www.w3.org/1999/xlink" width="44" height="22.137" viewBox="0 0 44 22.137">
  <defs>
    <linearGradient id="linear-gradient" x1="0.5" x2="0.5" y2="1" gradientUnits="objectBoundingBox">
      <stop offset="0" stop-color="#4458dc"/>
      <stop offset="1" stop-color="#854fee"/>
    </linearGradient>
  </defs>
  <g id="Group_150" data-name="Group 150" transform="translate(-552 -630.853)">
    <path id="Path_935" data-name="Path 935" d="M153.375,321.6h41.25a1.375,1.375,0,1,0,0-2.75h-41.25a1.375,1.375,0,1,0,0,2.75Zm0,0" transform="translate(400 312)" fill="url(#linear-gradient)"/>
    <path id="Path_936" data-name="Path 936" d="M194.625,386.224h-41.25a1.375,1.375,0,1,0,0,2.75h41.25a1.375,1.375,0,1,0,0-2.75Zm0,0" transform="translate(400 254.254)" fill="url(#linear-gradient)"/>
    <path id="Path_937" data-name="Path 937" d="M277.117,453.591h-27.5a1.375,1.375,0,1,0,0,2.75h27.5a1.375,1.375,0,1,0,0-2.75Zm0,0" transform="translate(317.508 196.512)" fill="url(#linear-gradient)"/>
    <rect id="Rectangle_51" data-name="Rectangle 51" width="43.992" height="22.116" transform="translate(552 630.874)" fill="none"/>
  </g>
</svg>
