<svg xmlns="http://www.w3.org/2000/svg" xmlns:xlink="http://www.w3.org/1999/xlink" width="245.333" height="33.589" viewBox="0 0 245.333 33.589">
  <defs>
    <linearGradient id="linear-gradient" x1="0.81" y1="-0.937" x2="0.698" y2="1.719" gradientUnits="objectBoundingBox">
      <stop offset="0" stop-color="#4458dc"/>
      <stop offset="1" stop-color="#854fee"/>
    </linearGradient>
    <linearGradient id="linear-gradient-2" x1="0.5" y1="0" x2="0.5" y2="1" xlink:href="#linear-gradient"/>
  </defs>
  <g id="Group_149" data-name="Group 149" transform="translate(-372 -493)">
    <g id="Group_148" data-name="Group 148">
      <path id="Path_48" data-name="Path 48" d="M93.58,89.527c8.89-1.01,17.485-.394,26.186-.558C114.5,97.941,99.483,98.472,93.58,89.527Z" transform="translate(283.598 404.179)" fill="url(#linear-gradient)"/>
      <g id="Group_147" data-name="Group 147">
        <path id="Path_46" data-name="Path 46" d="M139.737,89.2c-4.55,4.581-8.768,9.028-13.221,13.227-2.117,2-2.594,3.233-.135,5.472,4.781,4.354,9.2,9.109,14.128,14.066-5,.309-9.223,1.168-12.971-3.257-4.755-5.616-10.378-10.5-15.6-15.67.273-.394.416-.723.5-.709,4.484.74,7.5-1.533,10.163-4.746,1.3-1.569,3.118-2.742,4.285-4.389C130.063,88.709,134.4,88.21,139.737,89.2Z" transform="translate(277.86 404.228)" fill="url(#linear-gradient-2)"/>
        <path id="Path_47" data-name="Path 47" d="M113.119,133.164c-6.574-.034-12.884.481-19.144-.312-4.444-.563-7.106-3.933-7.6-8.68.261-.6.707-.417,1.084-.2,4.3,2.421,8.945,2.887,13.789,2.781C108.175,126.6,108.178,126.709,113.119,133.164Z" transform="translate(285.851 393.292)" fill="url(#linear-gradient)"/>
        <path id="Path_49" data-name="Path 49" d="M99.689,111.625c-7.756.978-12.621-2.081-13.576-8.605a12.127,12.127,0,0,1,.091-3.015c.192-1.774.905-2.263,2.271-.791.385.415.756.848,1.176,1.224q5.556,4.977,11.129,9.935Z" transform="translate(285.952 401.236)" fill="url(#linear-gradient)"/>
      </g>
    </g>
    <path id="Path_50" data-name="Path 50" d="M12.144-13.792a14.051,14.051,0,0,1-5.473-.96,8.13,8.13,0,0,1-3.447-2.523A5.963,5.963,0,0,1,1.98-20.687a.742.742,0,0,1,.213-.515.7.7,0,0,1,.533-.231H5.96a1.075,1.075,0,0,1,.64.178,1.887,1.887,0,0,1,.462.5,3.639,3.639,0,0,0,1.617,2.026,6.327,6.327,0,0,0,3.465.817,6.841,6.841,0,0,0,3.749-.835,2.611,2.611,0,0,0,1.262-2.292,2.17,2.17,0,0,0-.64-1.6,5.349,5.349,0,0,0-1.937-1.12q-1.3-.48-3.856-1.155a15.137,15.137,0,0,1-6.148-2.63A5.772,5.772,0,0,1,2.62-32.237a6.238,6.238,0,0,1,1.137-3.678,7.55,7.55,0,0,1,3.252-2.541,12.2,12.2,0,0,1,4.922-.924,11.694,11.694,0,0,1,5.1,1.031,8.413,8.413,0,0,1,3.27,2.577A5.7,5.7,0,0,1,21.492-32.7a.742.742,0,0,1-.213.515.7.7,0,0,1-.533.231H17.369a1.06,1.06,0,0,1-1.066-.64,2.751,2.751,0,0,0-1.386-1.9,5.48,5.48,0,0,0-2.985-.764,5.488,5.488,0,0,0-3.074.746,2.444,2.444,0,0,0-1.12,2.168,2.319,2.319,0,0,0,.569,1.6,4.637,4.637,0,0,0,1.777,1.12A32.283,32.283,0,0,0,13.6-28.541a24.517,24.517,0,0,1,5.029,1.6A6.556,6.556,0,0,1,21.385-24.7a6.157,6.157,0,0,1,.889,3.447,6.491,6.491,0,0,1-1.262,4,7.837,7.837,0,0,1-3.554,2.577A14.645,14.645,0,0,1,12.144-13.792Zm19.121,0a7.547,7.547,0,0,1-3.323-.729,6.035,6.035,0,0,1-2.381-1.972,4.669,4.669,0,0,1-.871-2.737,4.689,4.689,0,0,1,1.955-3.909,11.735,11.735,0,0,1,5.367-2.026l4.869-.711v-.746a3.133,3.133,0,0,0-.782-2.31,3.4,3.4,0,0,0-2.488-.782,3.636,3.636,0,0,0-1.884.426,5.983,5.983,0,0,0-1.155.871l-.586.586a.537.537,0,0,1-.533.426H26.68a.784.784,0,0,1-.551-.213.737.737,0,0,1-.231-.569,3.76,3.76,0,0,1,.871-2.008,6.8,6.8,0,0,1,2.577-1.955,9.9,9.9,0,0,1,4.3-.835q4.194,0,6.113,1.884a6.613,6.613,0,0,1,1.919,4.94V-15a.856.856,0,0,1-.231.6.808.808,0,0,1-.622.249h-2.95a.823.823,0,0,1-.6-.249.823.823,0,0,1-.249-.6v-1.386a5.829,5.829,0,0,1-2.2,1.866A7.748,7.748,0,0,1,31.265-13.792ZM32.473-17.2a4.266,4.266,0,0,0,3.2-1.279,5.091,5.091,0,0,0,1.244-3.7v-.711l-3.554.569q-4.087.64-4.087,2.737a1.989,1.989,0,0,0,.942,1.759A4,4,0,0,0,32.473-17.2ZM46.938-35.649a.823.823,0,0,1-.6-.249.823.823,0,0,1-.249-.6V-39.1a.866.866,0,0,1,.249-.64.823.823,0,0,1,.6-.249h3.27a.866.866,0,0,1,.64.249.866.866,0,0,1,.249.64V-36.5a.8.8,0,0,1-.267.6.883.883,0,0,1-.622.249Zm.142,21.5a.823.823,0,0,1-.6-.249.823.823,0,0,1-.249-.6V-31.775a.808.808,0,0,1,.249-.622.856.856,0,0,1,.6-.231H50.1a.823.823,0,0,1,.6.249.823.823,0,0,1,.249.6V-15a.823.823,0,0,1-.249.6.823.823,0,0,1-.6.249Zm17.948,0a.823.823,0,0,1-.6-.249.823.823,0,0,1-.249-.6V-38.137a.9.9,0,0,1,.231-.64.808.808,0,0,1,.622-.249h3.2a.866.866,0,0,1,.64.249.866.866,0,0,1,.249.64v8.316l7.925-8.565a1.719,1.719,0,0,1,1.386-.64h3.625a.742.742,0,0,1,.515.213.7.7,0,0,1,.231.533.582.582,0,0,1-.178.426L72.954-27.119,83.331-15.356a.942.942,0,0,1,.142.462.723.723,0,0,1-.213.533.682.682,0,0,1-.5.213H79.031a1.529,1.529,0,0,1-1.066-.3q-.32-.3-.355-.338L69.115-24.17V-15a.823.823,0,0,1-.249.6.866.866,0,0,1-.64.249Zm22.07,0a.823.823,0,0,1-.6-.249.823.823,0,0,1-.249-.6V-31.74a.866.866,0,0,1,.249-.64.823.823,0,0,1,.6-.249h2.914a.866.866,0,0,1,.64.249.866.866,0,0,1,.249.64v1.457a6.032,6.032,0,0,1,5.118-2.346h1.493a.84.84,0,0,1,.622.231.84.84,0,0,1,.231.622v2.594a.856.856,0,0,1-.231.6.808.808,0,0,1-.622.249H94.7a3.554,3.554,0,0,0-2.63.96,3.554,3.554,0,0,0-.96,2.63V-15a.823.823,0,0,1-.249.6.823.823,0,0,1-.6.249Zm14.749-21.5a.823.823,0,0,1-.6-.249.823.823,0,0,1-.249-.6V-39.1a.866.866,0,0,1,.249-.64.823.823,0,0,1,.6-.249h3.27a.866.866,0,0,1,.64.249.866.866,0,0,1,.249.64V-36.5a.8.8,0,0,1-.267.6.883.883,0,0,1-.622.249Zm.142,21.5a.823.823,0,0,1-.6-.249.823.823,0,0,1-.249-.6V-31.775a.808.808,0,0,1,.249-.622.856.856,0,0,1,.6-.231h3.021a.823.823,0,0,1,.6.249.823.823,0,0,1,.249.6V-15a.823.823,0,0,1-.249.6.823.823,0,0,1-.6.249Zm15.6.355a10.981,10.981,0,0,1-4.514-.817,7.132,7.132,0,0,1-2.683-1.9,3.214,3.214,0,0,1-.871-1.866.737.737,0,0,1,.231-.569.784.784,0,0,1,.551-.213h2.914a.615.615,0,0,1,.5.284q.178.142.8.675a4.736,4.736,0,0,0,1.422.835,4.941,4.941,0,0,0,1.759.3,4.331,4.331,0,0,0,2.31-.551,1.756,1.756,0,0,0,.889-1.582,1.639,1.639,0,0,0-.409-1.155,3.68,3.68,0,0,0-1.457-.817A28.2,28.2,0,0,0,115.886-22a9.484,9.484,0,0,1-4.46-1.955,4.491,4.491,0,0,1-1.439-3.483,4.708,4.708,0,0,1,.853-2.683,6.142,6.142,0,0,1,2.541-2.061,9.351,9.351,0,0,1,4.034-.8,10.3,10.3,0,0,1,4.158.764,7.207,7.207,0,0,1,2.648,1.83,3.108,3.108,0,0,1,.906,1.884.752.752,0,0,1-.231.551.752.752,0,0,1-.551.231h-2.666a.711.711,0,0,1-.6-.284q-.249-.178-.8-.657a4.534,4.534,0,0,0-1.226-.764,4.208,4.208,0,0,0-1.635-.284,3.173,3.173,0,0,0-2.026.569,1.819,1.819,0,0,0-.711,1.493,1.664,1.664,0,0,0,.338,1.066,3.123,3.123,0,0,0,1.368.8,21.533,21.533,0,0,0,3.092.764q6.4,1.244,6.4,5.58a4.809,4.809,0,0,1-2.186,4.087A10.331,10.331,0,0,1,117.592-13.792Zm12.794-.355a.823.823,0,0,1-.6-.249.823.823,0,0,1-.249-.6V-38.528a.808.808,0,0,1,.249-.622.856.856,0,0,1,.6-.231h3.234a.841.841,0,0,1,.622.231.841.841,0,0,1,.231.622v8.1a7.066,7.066,0,0,1,5.722-2.559,6.716,6.716,0,0,1,5.224,2.15,8.363,8.363,0,0,1,1.955,5.846V-15a.856.856,0,0,1-.231.6.808.808,0,0,1-.622.249h-3.234a.866.866,0,0,1-.64-.249.823.823,0,0,1-.249-.6v-9.774a4.716,4.716,0,0,0-1.013-3.216,3.647,3.647,0,0,0-2.9-1.155,3.811,3.811,0,0,0-2.914,1.173,4.484,4.484,0,0,0-1.1,3.2V-15a.856.856,0,0,1-.231.6.808.808,0,0,1-.622.249Zm22.355,0a.823.823,0,0,1-.6-.249.823.823,0,0,1-.249-.6V-31.775a.808.808,0,0,1,.249-.622.856.856,0,0,1,.6-.231h2.95a.84.84,0,0,1,.622.231.84.84,0,0,1,.231.622v1.457a7.238,7.238,0,0,1,5.935-2.666,6.633,6.633,0,0,1,5.189,2.132,8.448,8.448,0,0,1,1.919,5.864V-15a.856.856,0,0,1-.231.6.808.808,0,0,1-.622.249h-3.2a.823.823,0,0,1-.6-.249.823.823,0,0,1-.249-.6v-9.774a4.716,4.716,0,0,0-1.013-3.216,3.647,3.647,0,0,0-2.9-1.155,3.811,3.811,0,0,0-2.914,1.173,4.484,4.484,0,0,0-1.1,3.2V-15a.856.856,0,0,1-.231.6.808.808,0,0,1-.622.249Zm26.726.355a7.547,7.547,0,0,1-3.323-.729,6.035,6.035,0,0,1-2.381-1.972,4.669,4.669,0,0,1-.871-2.737,4.689,4.689,0,0,1,1.955-3.909,11.735,11.735,0,0,1,5.367-2.026l4.869-.711v-.746a3.133,3.133,0,0,0-.782-2.31,3.4,3.4,0,0,0-2.488-.782,3.636,3.636,0,0,0-1.884.426,5.984,5.984,0,0,0-1.155.871l-.586.586a.537.537,0,0,1-.533.426h-2.772a.784.784,0,0,1-.551-.213.737.737,0,0,1-.231-.569,3.76,3.76,0,0,1,.871-2.008,6.8,6.8,0,0,1,2.577-1.955,9.9,9.9,0,0,1,4.3-.835q4.194,0,6.113,1.884a6.613,6.613,0,0,1,1.919,4.94V-15a.856.856,0,0,1-.231.6.808.808,0,0,1-.622.249h-2.95a.823.823,0,0,1-.6-.249.823.823,0,0,1-.249-.6v-1.386a5.829,5.829,0,0,1-2.2,1.866A7.748,7.748,0,0,1,179.468-13.792Zm1.208-3.412a4.266,4.266,0,0,0,3.2-1.279,5.091,5.091,0,0,0,1.244-3.7v-.711l-3.554.569q-4.087.64-4.087,2.737a1.989,1.989,0,0,0,.942,1.759A4,4,0,0,0,180.676-17.2Z" transform="translate(427.452 536.683)" fill="url(#linear-gradient-2)"/>
  </g>
</svg>
