<svg xmlns="http://www.w3.org/2000/svg" xmlns:xlink="http://www.w3.org/1999/xlink" width="217.657" height="29.8" viewBox="0 0 217.657 29.8">
  <defs>
    <linearGradient id="linear-gradient" x1="0.81" y1="-0.937" x2="0.698" y2="1.719" gradientUnits="objectBoundingBox">
      <stop offset="0" stop-color="#4458dc"/>
      <stop offset="1" stop-color="#854fee"/>
    </linearGradient>
    <linearGradient id="linear-gradient-2" x1="0.5" y1="0" x2="0.5" y2="1" xlink:href="#linear-gradient"/>
  </defs>
  <g id="Group_149" data-name="Group 149" transform="translate(-372 -493)">
    <g id="Group_148" data-name="Group 148" transform="translate(372 493)">
      <path id="Path_48" data-name="Path 48" d="M93.58,89.46c7.887-.9,15.513-.349,23.232-.495C112.14,96.924,98.817,97.4,93.58,89.46Z" transform="translate(-88.986 -88.833)" fill="url(#linear-gradient)"/>
      <g id="Group_147" data-name="Group 147">
        <path id="Path_46" data-name="Path 46" d="M136.6,89.149c-4.036,4.064-7.779,8.009-11.73,11.735-1.878,1.771-2.3,2.868-.12,4.855,4.242,3.863,8.158,8.081,12.534,12.479-4.433.274-8.183,1.036-11.508-2.89-4.219-4.982-9.207-9.315-13.838-13.9.242-.349.369-.642.446-.629,3.978.657,6.652-1.36,9.016-4.21,1.155-1.392,2.767-2.433,3.8-3.894C128.019,88.716,131.866,88.274,136.6,89.149Z" transform="translate(-96.148 -88.772)" fill="url(#linear-gradient-2)"/>
        <path id="Path_47" data-name="Path 47" d="M110.1,132.1c-5.832-.03-11.43.426-16.984-.277-3.943-.5-6.3-3.489-6.745-7.7.231-.534.627-.37.962-.182,3.813,2.147,7.936,2.562,12.233,2.467C105.715,126.276,105.718,126.377,110.1,132.1Z" transform="translate(-86.175 -102.422)" fill="url(#linear-gradient)"/>
        <path id="Path_49" data-name="Path 49" d="M98.15,110.127c-6.881.868-11.2-1.846-12.045-7.634a10.759,10.759,0,0,1,.081-2.674c.17-1.574.8-2.008,2.015-.7.342.368.671.752,1.044,1.086q4.929,4.415,9.873,8.815Z" transform="translate(-86.048 -92.506)" fill="url(#linear-gradient)"/>
      </g>
    </g>
    <path id="Path_50" data-name="Path 50" d="M11-16.747A12.466,12.466,0,0,1,6.142-17.6a7.212,7.212,0,0,1-3.058-2.239,5.29,5.29,0,0,1-1.1-3.027.658.658,0,0,1,.189-.457.617.617,0,0,1,.473-.2H5.511a.954.954,0,0,1,.568.158,1.674,1.674,0,0,1,.41.441,3.228,3.228,0,0,0,1.435,1.8A5.613,5.613,0,0,0,11-20.4a6.069,6.069,0,0,0,3.327-.741,2.317,2.317,0,0,0,1.119-2.034,1.925,1.925,0,0,0-.568-1.419,4.746,4.746,0,0,0-1.718-.993q-1.151-.426-3.421-1.025a13.429,13.429,0,0,1-5.455-2.333,5.121,5.121,0,0,1-1.734-4.162,5.534,5.534,0,0,1,1.009-3.263,6.7,6.7,0,0,1,2.885-2.254,10.827,10.827,0,0,1,4.367-.82,10.375,10.375,0,0,1,4.525.914,7.464,7.464,0,0,1,2.9,2.286,5.055,5.055,0,0,1,1.056,2.727.658.658,0,0,1-.189.457.617.617,0,0,1-.473.2h-3a.941.941,0,0,1-.946-.568,2.441,2.441,0,0,0-1.23-1.687,4.862,4.862,0,0,0-2.649-.678,4.869,4.869,0,0,0-2.727.662,2.168,2.168,0,0,0-.993,1.923,2.057,2.057,0,0,0,.5,1.419,4.114,4.114,0,0,0,1.577.993,28.641,28.641,0,0,0,3.122.962,21.751,21.751,0,0,1,4.462,1.419A5.817,5.817,0,0,1,19.2-26.427a5.462,5.462,0,0,1,.788,3.058,5.759,5.759,0,0,1-1.119,3.547,6.953,6.953,0,0,1-3.153,2.286A12.993,12.993,0,0,1,11-16.747Zm16.964,0a6.7,6.7,0,0,1-2.948-.646,5.354,5.354,0,0,1-2.113-1.75,4.142,4.142,0,0,1-.773-2.428,4.16,4.16,0,0,1,1.734-3.468,10.411,10.411,0,0,1,4.761-1.8l4.32-.631v-.662a2.78,2.78,0,0,0-.694-2.05,3.02,3.02,0,0,0-2.207-.694,3.226,3.226,0,0,0-1.671.378,5.309,5.309,0,0,0-1.025.773l-.52.52a.477.477,0,0,1-.473.378H23.894a.7.7,0,0,1-.489-.189.654.654,0,0,1-.2-.5,3.336,3.336,0,0,1,.773-1.781,6.037,6.037,0,0,1,2.286-1.734,8.787,8.787,0,0,1,3.815-.741q3.721,0,5.423,1.671a5.867,5.867,0,0,1,1.7,4.383v9.9a.759.759,0,0,1-.2.536.717.717,0,0,1-.552.221H33.826a.73.73,0,0,1-.536-.221.73.73,0,0,1-.221-.536v-1.23a5.172,5.172,0,0,1-1.955,1.655A6.874,6.874,0,0,1,27.961-16.747Zm1.072-3.027a3.785,3.785,0,0,0,2.838-1.135,4.516,4.516,0,0,0,1.1-3.279v-.631l-3.153.5q-3.626.568-3.626,2.428a1.764,1.764,0,0,0,.836,1.561A3.551,3.551,0,0,0,29.033-19.774ZM41.867-36.138a.73.73,0,0,1-.536-.221.73.73,0,0,1-.221-.536v-2.3a.768.768,0,0,1,.221-.568.73.73,0,0,1,.536-.221h2.9a.768.768,0,0,1,.568.221.768.768,0,0,1,.221.568v2.3a.706.706,0,0,1-.236.536.783.783,0,0,1-.552.221Zm.126,19.076a.73.73,0,0,1-.536-.221.73.73,0,0,1-.221-.536V-32.7a.717.717,0,0,1,.221-.552.759.759,0,0,1,.536-.2h2.68a.73.73,0,0,1,.536.221.73.73,0,0,1,.221.536v14.883a.73.73,0,0,1-.221.536.73.73,0,0,1-.536.221Zm15.923,0a.73.73,0,0,1-.536-.221.73.73,0,0,1-.221-.536V-38.345a.8.8,0,0,1,.2-.568.717.717,0,0,1,.552-.221h2.838a.768.768,0,0,1,.568.221.768.768,0,0,1,.221.568v7.378l7.031-7.6a1.525,1.525,0,0,1,1.23-.568h3.216a.658.658,0,0,1,.457.189.617.617,0,0,1,.2.473.516.516,0,0,1-.158.378l-8.576,9.522,9.207,10.437a.835.835,0,0,1,.126.41.642.642,0,0,1-.189.473.605.605,0,0,1-.441.189H70.339a1.357,1.357,0,0,1-.946-.268q-.284-.268-.315-.3l-7.536-8.324v8.135a.73.73,0,0,1-.221.536.768.768,0,0,1-.568.221Zm19.581,0a.73.73,0,0,1-.536-.221.73.73,0,0,1-.221-.536V-32.67a.768.768,0,0,1,.221-.568.73.73,0,0,1,.536-.221h2.586a.768.768,0,0,1,.568.221.768.768,0,0,1,.221.568v1.293a5.352,5.352,0,0,1,4.54-2.081h1.324a.746.746,0,0,1,.552.2.746.746,0,0,1,.2.552v2.3a.759.759,0,0,1-.2.536.717.717,0,0,1-.552.221H84.244a3.153,3.153,0,0,0-2.333.851,3.153,3.153,0,0,0-.851,2.333v8.639a.73.73,0,0,1-.221.536.73.73,0,0,1-.536.221ZM90.582-36.138a.73.73,0,0,1-.536-.221.73.73,0,0,1-.221-.536v-2.3a.768.768,0,0,1,.221-.568.73.73,0,0,1,.536-.221h2.9a.768.768,0,0,1,.568.221.768.768,0,0,1,.221.568v2.3a.706.706,0,0,1-.236.536.783.783,0,0,1-.552.221Zm.126,19.076a.73.73,0,0,1-.536-.221.73.73,0,0,1-.221-.536V-32.7a.717.717,0,0,1,.221-.552.759.759,0,0,1,.536-.2h2.68a.73.73,0,0,1,.536.221.73.73,0,0,1,.221.536v14.883a.73.73,0,0,1-.221.536.73.73,0,0,1-.536.221Zm13.842.315a9.742,9.742,0,0,1-4-.725,6.327,6.327,0,0,1-2.381-1.687,2.852,2.852,0,0,1-.773-1.655.654.654,0,0,1,.2-.5.7.7,0,0,1,.489-.189h2.586a.545.545,0,0,1,.441.252q.158.126.709.6a4.2,4.2,0,0,0,1.261.741,4.384,4.384,0,0,0,1.561.268,3.842,3.842,0,0,0,2.05-.489,1.558,1.558,0,0,0,.788-1.4,1.454,1.454,0,0,0-.363-1.025,3.265,3.265,0,0,0-1.293-.725,25.016,25.016,0,0,0-2.79-.741,8.414,8.414,0,0,1-3.957-1.734,3.985,3.985,0,0,1-1.277-3.09,4.177,4.177,0,0,1,.757-2.381,5.449,5.449,0,0,1,2.254-1.829,8.3,8.3,0,0,1,3.579-.709,9.139,9.139,0,0,1,3.689.678,6.394,6.394,0,0,1,2.349,1.624,2.757,2.757,0,0,1,.8,1.671.667.667,0,0,1-.2.489.667.667,0,0,1-.489.2h-2.365a.631.631,0,0,1-.536-.252q-.221-.158-.709-.583a4.022,4.022,0,0,0-1.088-.678,3.733,3.733,0,0,0-1.45-.252,2.815,2.815,0,0,0-1.8.5,1.614,1.614,0,0,0-.631,1.324,1.476,1.476,0,0,0,.3.946,2.771,2.771,0,0,0,1.214.709,19.1,19.1,0,0,0,2.743.678q5.676,1.1,5.676,4.95a4.267,4.267,0,0,1-1.939,3.626A9.166,9.166,0,0,1,104.55-16.747Zm11.351-.315a.73.73,0,0,1-.536-.221.73.73,0,0,1-.221-.536V-38.692a.717.717,0,0,1,.221-.552.759.759,0,0,1,.536-.2h2.869a.746.746,0,0,1,.552.2.746.746,0,0,1,.2.552V-31.5a6.269,6.269,0,0,1,5.076-2.27,5.958,5.958,0,0,1,4.635,1.908,7.42,7.42,0,0,1,1.734,5.187v8.86a.759.759,0,0,1-.2.536.717.717,0,0,1-.552.221h-2.869a.768.768,0,0,1-.568-.221.73.73,0,0,1-.221-.536V-26.49a4.184,4.184,0,0,0-.9-2.854,3.235,3.235,0,0,0-2.57-1.025,3.381,3.381,0,0,0-2.586,1.041,3.979,3.979,0,0,0-.977,2.838v8.671a.759.759,0,0,1-.2.536.717.717,0,0,1-.552.221Zm19.833,0a.73.73,0,0,1-.536-.221.73.73,0,0,1-.221-.536V-32.7a.717.717,0,0,1,.221-.552.759.759,0,0,1,.536-.2h2.617a.746.746,0,0,1,.552.2.746.746,0,0,1,.2.552v1.293a6.422,6.422,0,0,1,5.266-2.365,5.884,5.884,0,0,1,4.6,1.892,7.5,7.5,0,0,1,1.7,5.2v8.86a.759.759,0,0,1-.2.536.717.717,0,0,1-.552.221h-2.838a.73.73,0,0,1-.536-.221.73.73,0,0,1-.221-.536V-26.49a4.184,4.184,0,0,0-.9-2.854,3.236,3.236,0,0,0-2.57-1.025,3.381,3.381,0,0,0-2.586,1.041,3.978,3.978,0,0,0-.977,2.838v8.671a.759.759,0,0,1-.2.536.716.716,0,0,1-.552.221Zm23.711.315a6.7,6.7,0,0,1-2.948-.646,5.354,5.354,0,0,1-2.113-1.75,4.142,4.142,0,0,1-.773-2.428,4.16,4.16,0,0,1,1.734-3.468,10.411,10.411,0,0,1,4.761-1.8l4.32-.631v-.662a2.78,2.78,0,0,0-.694-2.05,3.021,3.021,0,0,0-2.207-.694,3.226,3.226,0,0,0-1.671.378,5.308,5.308,0,0,0-1.025.773l-.52.52a.477.477,0,0,1-.473.378h-2.459a.7.7,0,0,1-.489-.189.654.654,0,0,1-.2-.5,3.336,3.336,0,0,1,.772-1.781,6.037,6.037,0,0,1,2.286-1.734,8.787,8.787,0,0,1,3.815-.741q3.721,0,5.423,1.671a5.867,5.867,0,0,1,1.7,4.383v9.9a.759.759,0,0,1-.2.536.717.717,0,0,1-.552.221H165.31a.73.73,0,0,1-.536-.221.73.73,0,0,1-.221-.536v-1.23a5.171,5.171,0,0,1-1.955,1.655A6.874,6.874,0,0,1,159.445-16.747Zm1.072-3.027a3.785,3.785,0,0,0,2.838-1.135,4.516,4.516,0,0,0,1.1-3.279v-.631l-3.153.5q-3.626.568-3.626,2.428a1.764,1.764,0,0,0,.836,1.561A3.551,3.551,0,0,0,160.517-19.774Z" transform="translate(420.973 536.266)" fill="url(#linear-gradient-2)"/>
  </g>
</svg>
