<svg xmlns="http://www.w3.org/2000/svg" width="55.105" height="42.559" viewBox="0 0 55.105 42.559">
    <g>
        <path fill="#f64100" d="M144.12 151.782l-18.853-18.852a.417.417 0 0 0-.712.295v10.331h-32a.417.417 0 0 0-.417.417v16.209a.417.417 0 0 0 .417.417h32v10.331a.417.417 0 0 0 .258.385.412.412 0 0 0 .16.032.417.417 0 0 0 .295-.122l18.853-18.853a.417.417 0 0 0 0-.59z" transform="translate(-571.061 -1192.181) translate(481.924 1063.392)"/>
        <path fill="none" stroke="#2e2588" stroke-width="2px" d="M144.12 151.782l-18.853-18.852a.417.417 0 0 0-.712.295v10.331h-32a.417.417 0 0 0-.417.417v16.209a.417.417 0 0 0 .417.417h32v10.331a.417.417 0 0 0 .258.385.412.412 0 0 0 .16.032.417.417 0 0 0 .295-.122l18.853-18.853a.417.417 0 0 0 0-.59z" transform="translate(-571.061 -1192.181) translate(479.924 1060.392)"/>
    </g>
</svg>
