<svg xmlns="http://www.w3.org/2000/svg" width="174.527" height="227.857" viewBox="0 0 174.527 227.857">
    <g>
        <path fill="#f9bd00" d="M152.051 0H3.809L8.35-32.227 84.082-104.3q15.234-14.941 23-26.587t9.082-20.435q1.611-12.891-2.93-19.922t-16.846-7.031q-10.986 0-18.97 9.521t-10.035 24.027h-48.34l-.293-.879q3.662-30.762 26.44-50.757t56.616-20q33.691 0 50.9 17.432t13.11 47.168q-3.076 21.094-15.088 35.669t-45.552 46.221L74.707-38.965l.439.879h82.178z" transform="translate(-690.274 -1081.143) translate(698.191 1309)"/>
        <path fill="none" stroke="#2e2588" stroke-width="3px" d="M152.051 0H3.809L8.35-32.227 84.082-104.3q15.234-14.941 23-26.587t9.082-20.435q1.611-12.891-2.93-19.922t-16.846-7.031q-10.986 0-18.97 9.521t-10.035 24.027h-48.34l-.293-.879q3.662-30.762 26.44-50.757t56.616-20q33.691 0 50.9 17.432t13.11 47.168q-3.076 21.094-15.088 35.669t-45.552 46.221L74.707-38.965l.439.879h82.178z" transform="translate(-690.274 -1081.143) translate(688.191 1299)"/>
    </g>
</svg>
