<svg xmlns="http://www.w3.org/2000/svg" width="178.305" height="230.934" viewBox="0 0 178.305 230.934">
    <g>
        <g>
            <path fill="#eb0752" d="M173.291-155.42a53.431 53.431 0 0 1-12.817 27.32 70.309 70.309 0 0 1-26.733 18.823q15.967 6.445 23.584 19.116t4.98 30.4Q157.617-29.3 133.081-13.11T73.1 3.076q-29.15 0-49.585-15.82T8.35-58.3l.293-.879h48.34q-1.758 10.84 4.395 17.5t17.431 6.669a36.763 36.763 0 0 0 22.778-7.471q9.888-7.471 11.5-18.311 2.344-16.113-4.541-22.925t-21.974-6.81H63.135l3.223-21.826 2.2-14.941h23.434q12.891 0 21.387-7.251t10.4-19.849q1.465-10.254-4.761-17.065t-18.677-6.812a27.372 27.372 0 0 0-16.626 5.566 21.227 21.227 0 0 0-8.862 14.355h-47.9l-.293-.879q3.223-26.514 26.147-41.821t53.247-15.308q33.545 0 52.515 16.04t14.722 44.898z" transform="translate(-1278.763 -1106.143) translate(116 -11) translate(1167 1345)"/>
            <path fill="none" stroke="#2e2588" stroke-width="3px" d="M173.291-155.42a53.431 53.431 0 0 1-12.817 27.32 70.309 70.309 0 0 1-26.733 18.823q15.967 6.445 23.584 19.116t4.98 30.4Q157.617-29.3 133.081-13.11T73.1 3.076q-29.15 0-49.585-15.82T8.35-58.3l.293-.879h48.34q-1.758 10.84 4.395 17.5t17.431 6.669a36.763 36.763 0 0 0 22.778-7.471q9.888-7.471 11.5-18.311 2.344-16.113-4.541-22.925t-21.974-6.81H63.135l3.223-21.826 2.2-14.941h23.434q12.891 0 21.387-7.251t10.4-19.849q1.465-10.254-4.761-17.065t-18.677-6.812a27.372 27.372 0 0 0-16.626 5.566 21.227 21.227 0 0 0-8.862 14.355h-47.9l-.293-.879q3.223-26.514 26.147-41.821t53.247-15.308q33.545 0 52.515 16.04t14.722 44.898z" transform="translate(-1278.763 -1106.143) translate(116 -11) translate(1157 1335)"/>
        </g>
    </g>
</svg>
