<svg xmlns="http://www.w3.org/2000/svg" viewBox="0 0 388.48 258.99">
  <defs>
    <style>
      .cls-1 {
        fill: #010101;
      }
    </style>
  </defs>
  <g id="Layer_2" data-name="Layer 2">
    <g id="Layer_1-2" data-name="Layer 1">
      <path class="cls-1" d="M385,17.65a8,8,0,0,0-7.41-1l-66,24A32.2,32.2,0,0,0,293.3,57.54a32.81,32.81,0,0,0-1.58,4.56,299.28,299.28,0,0,1-53.31-20.73c-31.61-16.29-55.77-8.25-76.49,7.56-10.5.2-25,1.44-39.19,2.7-9.07.8-17.65,1.54-24.6,2a32.36,32.36,0,0,0-21.29-29.1l-66-24A8.09,8.09,0,0,0,0,8.09V170a8.09,8.09,0,0,0,8.09,8.09H31.73a32.55,32.55,0,0,0,25.46-12.4c3.22,2.45,7,5.32,11,8.33,9.45,7.1,19.79,14.85,24.32,18.66,30.14,25.22,66.37,52.47,73.59,57.21,6.74,4.43,18.88,9.14,28.11,9.14,3.61,0,12.71,0,19.1-5.4a26,26,0,0,0,20.28-.45,30.36,30.36,0,0,0,15-15,31.51,31.51,0,0,0,20.17-3A27.66,27.66,0,0,0,282,221.93c5.84.53,12.09-1.37,17.68-5.65,8-6.1,11.64-15.11,10.6-24l20.53-11.36a32.42,32.42,0,0,0,26,13.32h23.64a8.09,8.09,0,0,0,8.09-8.09V24.28A8.11,8.11,0,0,0,385,17.65ZM46.89,151.36a16.26,16.26,0,0,1-15.16,10.51H16.19V19.65l55.12,20a16.2,16.2,0,0,1,9.62,20.89ZM289.8,203.43c-2.74,2.1-6.58,3.27-8.29,1.56-.08-.09-.22-.08-.31-.16a4.51,4.51,0,0,0-.4-.47c-5.78-4.57-31.71-31.1-47.73-47.8a8.09,8.09,0,1,0-11.68,11.19c3.76,3.92,34,35.36,46,46.36-.9,3.55-4.2,5.75-5.87,6.58-5.19,2.6-10.59,2.17-12.62.29-.06-.06-.15,0-.21-.11s-.14-.21-.25-.29c-9.7-7.76-34.05-33.63-39.56-39.63a8.1,8.1,0,0,0-11.92,11c.27.29,24.13,26,37.53,38a14.22,14.22,0,0,1-7.44,8.44c-2.54,1.12-6.52,1.7-11.06-1.65-11.62-9.86-34.94-34.69-39.53-39.6a8.09,8.09,0,0,0-11.83,11c5.44,5.82,21.52,22.86,33.74,34.4a34.29,34.29,0,0,1-4.16.26c-5.36,0-14.57-3.42-19.22-6.48-5.68-3.73-41.31-30.32-72.07-56.08-4.66-3.91-15.28-11.9-25-19.2-5.21-3.91-10-7.52-13.55-10.24L94.7,70c7.87-.34,18.35-1.25,29.45-2.23,6.28-.55,12.56-1.09,18.57-1.56-9.23,9.47-23,26.44-21.15,42.35.83,7.24,4.79,13.27,11.47,17.44,13.23,8.28,37.7,1.34,49.49-13.16A56.29,56.29,0,0,0,200.9,107c9.49,8.92,22.2,19.4,35.56,30.41,23.25,19.16,49.61,40.87,56.58,53C296.92,197.23,291.54,202.1,289.8,203.43Zm13.89-26c-10.79-14.43-34.16-33.73-56.94-52.5-15.18-12.51-29.52-24.33-38.69-33.5A8.14,8.14,0,0,0,198.52,90c-8.25,4.42-12,6.25-21.27,7.18a8.1,8.1,0,0,0-6,3.74c-6.35,10.07-24,14.86-29.58,11.36-3.18-2-3.8-4-4-5.55-.78-6.89,6.19-18.81,17.75-30.38C184,47.7,204.52,42.1,231,55.75a313.54,313.54,0,0,0,60.42,23.08,30.85,30.85,0,0,0,1,3.63l31.42,83.8Zm68.6.65H356.75a16.26,16.26,0,0,1-15.16-10.5l-34-90.77a16.2,16.2,0,0,1,9.62-20.9l55.12-20V178.05Z"/>
    </g>
  </g>
</svg>
