<svg width="11" height="13" viewBox="0 0 11 13" fill="none" xmlns="http://www.w3.org/2000/svg">
<path fill-rule="evenodd" clip-rule="evenodd" d="M1.65 2.19961C1.34624 2.19961 1.1 2.44585 1.1 2.74961V10.4496C1.1 10.7534 1.34624 10.9996 1.65 10.9996H9.35C9.65376 10.9996 9.9 10.7534 9.9 10.4496V2.74961C9.9 2.44585 9.65376 2.19961 9.35 2.19961H1.65ZM0 2.74961C0 1.83834 0.73873 1.09961 1.65 1.09961H9.35C10.2613 1.09961 11 1.83834 11 2.74961V10.4496C11 11.3609 10.2613 12.0996 9.35 12.0996H1.65C0.73873 12.0996 0 11.3609 0 10.4496V2.74961Z" fill="black"/>
<path fill-rule="evenodd" clip-rule="evenodd" d="M7.6999 0C8.00366 0 8.2499 0.246243 8.2499 0.55V2.75C8.2499 3.05376 8.00366 3.3 7.6999 3.3C7.39615 3.3 7.1499 3.05376 7.1499 2.75V0.55C7.1499 0.246243 7.39615 0 7.6999 0Z" fill="black"/>
<path fill-rule="evenodd" clip-rule="evenodd" d="M3.30049 0C3.60424 0 3.85049 0.246243 3.85049 0.55V2.75C3.85049 3.05376 3.60424 3.3 3.30049 3.3C2.99673 3.3 2.75049 3.05376 2.75049 2.75V0.55C2.75049 0.246243 2.99673 0 3.30049 0Z" fill="black"/>
<path fill-rule="evenodd" clip-rule="evenodd" d="M0 4.95039C0 4.64663 0.246243 4.40039 0.55 4.40039H10.45C10.7538 4.40039 11 4.64663 11 4.95039C11 5.25415 10.7538 5.50039 10.45 5.50039H0.55C0.246243 5.50039 0 5.25415 0 4.95039Z" fill="black"/>
</svg>
